<svg xmlns="http://www.w3.org/2000/svg" xmlns:xlink="http://www.w3.org/1999/xlink" contentStyleType="text/css" data-diagram-type="ACTIVITY" height="1263px" preserveAspectRatio="none" style="width:636px;height:1263px;background:#E3F2FD;" version="1.1" viewBox="0 0 636 1263" width="636px" zoomAndPan="magnify"><?plantuml 1.2026.3beta6?><defs/><g><rect fill="#E3F2FD" height="1263" style="stroke:none;stroke-width:1;" width="636" x="0" y="0"/><g class="title" data-source-line="39"><text fill="#01579B" font-family="'Segoe UI'" font-size="14" font-weight="700" lengthAdjust="spacing" textLength="62.9521" x="31.6541" y="27.9951">BABIFIX</text><text fill="#01579B" font-family="'Segoe UI'" font-size="14" font-weight="700" lengthAdjust="spacing" textLength="503.7881" x="99.4803" y="27.9951">- Diagramme d'Activit&#233; : Syst&#232;me de Notation / Avis Prestataire</text></g><rect fill="#E3F2FD" height="110.6094" style="stroke:#42A5F5;stroke-width:1;" width="245.439" x="168.0387" y="48.2969"/><path d="M209.8839,48.2969 L209.8839,54.1016 L199.8839,64.1016 L168.0387,64.1016" fill="none" style="stroke:#42A5F5;stroke-width:1;"/><text fill="#01579B" font-family="'Segoe UI'" font-size="11" lengthAdjust="spacing" textLength="31.8452" x="171.0387" y="59.5073">Client</text><ellipse cx="290.7582" cy="84.1016" fill="#FFFFFF" rx="10" ry="10" style="stroke:#000000;stroke-width:1;"/><rect fill="#BBDEFB" height="32.8047" rx="12.5" ry="12.5" style="stroke:#1976D2;stroke-width:1;" width="225.439" x="178.0387" y="114.1016"/><text fill="#01579B" font-family="'Segoe UI'" font-size="11" lengthAdjust="spacing" textLength="205.439" x="188.0387" y="134.312">Consulter ses reservations terminees</text><rect fill="#E3F2FD" height="130.4141" style="stroke:#42A5F5;stroke-width:1;" width="343.2734" x="119.1215" y="168.9063"/><path d="M176.9081,168.9063 L176.9081,174.7109 L166.9081,184.7109 L119.1215,184.7109" fill="none" style="stroke:#42A5F5;stroke-width:1;"/><text fill="#01579B" font-family="'Segoe UI'" font-size="11" lengthAdjust="spacing" textLength="47.7866" x="122.1215" y="180.1167">Systeme</text><rect fill="#BBDEFB" height="32.8047" rx="12.5" ry="12.5" style="stroke:#1976D2;stroke-width:1;" width="323.2734" x="129.1215" y="201.7109"/><text fill="#01579B" font-family="'Segoe UI'" font-size="11" lengthAdjust="spacing" textLength="303.2734" x="139.1215" y="221.9214">Charger liste des reservations avec statut = TERMINEE</text><rect fill="#BBDEFB" height="32.8047" rx="12.5" ry="12.5" style="stroke:#1976D2;stroke-width:1;" width="262.5103" x="159.5031" y="254.5156"/><text fill="#01579B" font-family="'Segoe UI'" font-size="11" lengthAdjust="spacing" textLength="242.5103" x="169.5031" y="274.7261">Filtrer celles non encore notees par le client</text><rect fill="#E3F2FD" height="322.8281" style="stroke:#42A5F5;stroke-width:1;" width="610.9225" x="11" y="309.3203"/><path d="M52.8452,309.3203 L52.8452,315.125 L42.8452,325.125 L11,325.125" fill="none" style="stroke:#42A5F5;stroke-width:1;"/><text fill="#01579B" font-family="'Segoe UI'" font-size="11" lengthAdjust="spacing" textLength="31.8452" x="14" y="320.5308">Client</text><polygon fill="#E3F2FD" points="170.9774,342.125,410.5389,342.125,422.5389,354.125,410.5389,366.125,170.9774,366.125,158.9774,354.125,170.9774,342.125" style="stroke:#42A5F5;stroke-width:1;"/><text fill="#01579B" font-family="'Segoe UI'" font-size="11" lengthAdjust="spacing" textLength="239.5615" x="170.9774" y="357.9331">Il existe au moins une reservation a noter ?</text><text fill="#000000" font-family="'Segoe UI'" font-size="11" lengthAdjust="spacing" textLength="16.7578" x="142.2196" y="351.5308">oui</text><text fill="#000000" font-family="'Segoe UI'" font-size="11" lengthAdjust="spacing" textLength="20.6733" x="422.5389" y="351.5308">non</text><rect fill="#BBDEFB" height="32.8047" rx="12.5" ry="12.5" style="stroke:#1976D2;stroke-width:1;" width="232.6685" x="23" y="376.125"/><text fill="#01579B" font-family="'Segoe UI'" font-size="11" lengthAdjust="spacing" textLength="212.6685" x="33" y="396.3354">Selectionner une reservation terminee</text><rect fill="#BBDEFB" height="32.8047" rx="12.5" ry="12.5" style="stroke:#1976D2;stroke-width:1;" width="182.0942" x="48.2871" y="428.9297"/><text fill="#01579B" font-family="'Segoe UI'" font-size="11" lengthAdjust="spacing" textLength="162.0942" x="58.2871" y="449.1401">Acceder a l'ecran de notation</text><rect fill="#BBDEFB" height="32.8047" rx="12.5" ry="12.5" style="stroke:#1976D2;stroke-width:1;" width="221.1689" x="28.7498" y="481.7344"/><text fill="#01579B" font-family="'Segoe UI'" font-size="11" lengthAdjust="spacing" textLength="201.1689" x="38.7498" y="501.9448">Selectionner une note (1 a 5 etoiles)</text><rect fill="#BBDEFB" height="32.8047" rx="12.5" ry="12.5" style="stroke:#1976D2;stroke-width:1;" width="205.437" x="36.6157" y="534.5391"/><text fill="#01579B" font-family="'Segoe UI'" font-size="11" lengthAdjust="spacing" textLength="185.437" x="46.6157" y="554.7495">Saisir un commentaire (facultatif)</text><rect fill="#BBDEFB" height="32.8047" rx="12.5" ry="12.5" style="stroke:#1976D2;stroke-width:1;" width="184.1836" x="47.2424" y="587.3438"/><text fill="#01579B" font-family="'Segoe UI'" font-size="11" lengthAdjust="spacing" textLength="164.1836" x="57.2424" y="607.5542">Cliquer "Soumettre mon avis"</text><rect fill="#BBDEFB" height="32.8047" rx="12.5" ry="12.5" style="stroke:#1976D2;stroke-width:1;" width="333.0273" x="275.6685" y="376.125"/><text fill="#01579B" font-family="'Segoe UI'" font-size="11" lengthAdjust="spacing" textLength="313.0273" x="285.6685" y="396.3354">Afficher message "Aucune reservation en attente d'avis"</text><ellipse cx="442.1821" cy="439.9297" fill="none" rx="11" ry="11" style="stroke:#000000;stroke-width:1;"/><ellipse cx="442.1821" cy="439.9297" fill="#FFFFFF" rx="6" ry="6" style="stroke:#000000;stroke-width:1;"/><rect fill="#E3F2FD" height="424.0703" style="stroke:#42A5F5;stroke-width:1;" width="480.5691" x="129.3534" y="642.1484"/><path d="M187.14,642.1484 L187.14,647.9531 L177.14,657.9531 L129.3534,657.9531" fill="none" style="stroke:#42A5F5;stroke-width:1;"/><text fill="#01579B" font-family="'Segoe UI'" font-size="11" lengthAdjust="spacing" textLength="47.7866" x="132.3534" y="653.3589">Systeme</text><rect fill="#BBDEFB" height="32.8047" rx="12.5" ry="12.5" style="stroke:#1976D2;stroke-width:1;" width="213.1553" x="184.1805" y="674.9531"/><text fill="#01579B" font-family="'Segoe UI'" font-size="11" lengthAdjust="spacing" textLength="193.1553" x="194.1805" y="695.1636">Valider que la note est entre 1 et 5</text><rect fill="#BBDEFB" height="32.8047" rx="12.5" ry="12.5" style="stroke:#1976D2;stroke-width:1;" width="302.8096" x="139.3534" y="727.7578"/><text fill="#01579B" font-family="'Segoe UI'" font-size="11" lengthAdjust="spacing" textLength="282.8096" x="149.3534" y="747.9683">Verifier que la reservation appartient bien au client</text><path d="M434.4508,770.5625 L434.4508,809.9766 L414.4508,813.9766 L434.4508,817.9766 L434.4508,857.3906 A0,0 0 0 0 434.4508,857.3906 L599.9225,857.3906 A0,0 0 0 0 599.9225,857.3906 L599.9225,780.5625 L589.9225,770.5625 L434.4508,770.5625 A0,0 0 0 0 434.4508,770.5625" fill="#E3F2FD" style="stroke:#42A5F5;stroke-width:1;"/><path d="M589.9225,770.5625 L589.9225,780.5625 L599.9225,780.5625 L589.9225,770.5625" fill="#E3F2FD" style="stroke:#42A5F5;stroke-width:1;"/><text fill="#01579B" font-family="'Segoe UI'" font-size="11" lengthAdjust="spacing" textLength="47.9048" x="440.4508" y="785.7729">- clientId</text><text fill="#01579B" font-family="'Segoe UI'" font-size="11" lengthAdjust="spacing" textLength="78.1494" x="440.4508" y="798.5776">- prestataireId</text><text fill="#01579B" font-family="'Segoe UI'" font-size="11" lengthAdjust="spacing" textLength="80.3247" x="440.4508" y="811.3823">- reservationId</text><text fill="#01579B" font-family="'Segoe UI'" font-size="11" lengthAdjust="spacing" textLength="62.2939" x="440.4508" y="824.187">- note (1-5)</text><text fill="#01579B" font-family="'Segoe UI'" font-size="11" lengthAdjust="spacing" textLength="144.4717" x="440.4508" y="836.9917">- commentaire (optionnel)</text><text fill="#01579B" font-family="'Segoe UI'" font-size="11" lengthAdjust="spacing" textLength="126.543" x="440.4508" y="849.7964">- dateCreation = now()</text><rect fill="#BBDEFB" height="32.8047" rx="12.5" ry="12.5" style="stroke:#1976D2;stroke-width:1;" width="247.3853" x="167.0656" y="797.5742"/><text fill="#01579B" font-family="'Segoe UI'" font-size="11" lengthAdjust="spacing" textLength="227.3853" x="177.0656" y="817.7847">Creer document dans collection "ratings"</text><rect fill="#BBDEFB" height="45.6094" rx="12.5" ry="12.5" style="stroke:#1976D2;stroke-width:1;" width="255.5278" x="162.9943" y="877.3906"/><text fill="#01579B" font-family="'Segoe UI'" font-size="11" lengthAdjust="spacing" textLength="235.5278" x="172.9943" y="897.6011">Recalculer la note moyenne du prestataire</text><text fill="#01579B" font-family="'Segoe UI'" font-size="11" lengthAdjust="spacing" textLength="180.7964" x="172.9943" y="910.4058">(moyenne ponderee des ratings)</text><rect fill="#BBDEFB" height="45.6094" rx="12.5" ry="12.5" style="stroke:#1976D2;stroke-width:1;" width="214.1382" x="183.6891" y="943"/><text fill="#01579B" font-family="'Segoe UI'" font-size="11" lengthAdjust="spacing" textLength="194.1382" x="193.6891" y="963.2104">Mettre a jour document prestataire</text><text fill="#01579B" font-family="'Segoe UI'" font-size="11" lengthAdjust="spacing" textLength="156.0786" x="193.6891" y="976.0151">(noteMoyenne, nombreAvis)</text><rect fill="#BBDEFB" height="45.6094" rx="12.5" ry="12.5" style="stroke:#1976D2;stroke-width:1;" width="241.6328" x="169.9418" y="1008.6094"/><text fill="#01579B" font-family="'Segoe UI'" font-size="11" lengthAdjust="spacing" textLength="221.6328" x="179.9418" y="1028.8198">Envoyer notification push au prestataire</text><text fill="#01579B" font-family="'Segoe UI'" font-size="11" lengthAdjust="spacing" textLength="185.7056" x="179.9418" y="1041.6245">"Nouvel avis recu : [note] etoiles"</text><rect fill="#E3F2FD" height="130.4141" style="stroke:#42A5F5;stroke-width:1;" width="293.8433" x="143.8365" y="1076.2188"/><path d="M185.6818,1076.2188 L185.6818,1082.0234 L175.6818,1092.0234 L143.8365,1092.0234" fill="none" style="stroke:#42A5F5;stroke-width:1;"/><text fill="#01579B" font-family="'Segoe UI'" font-size="11" lengthAdjust="spacing" textLength="31.8452" x="146.8365" y="1087.4292">Client</text><rect fill="#BBDEFB" height="32.8047" rx="12.5" ry="12.5" style="stroke:#1976D2;stroke-width:1;" width="273.8433" x="153.8365" y="1109.0234"/><text fill="#01579B" font-family="'Segoe UI'" font-size="11" lengthAdjust="spacing" textLength="253.8433" x="163.8365" y="1129.2339">Afficher confirmation "Merci pour votre avis !"</text><rect fill="#BBDEFB" height="32.8047" rx="12.5" ry="12.5" style="stroke:#1976D2;stroke-width:1;" width="201.7363" x="189.89" y="1161.8281"/><text fill="#01579B" font-family="'Segoe UI'" font-size="11" lengthAdjust="spacing" textLength="181.7363" x="199.89" y="1182.0386">Retour a la liste des reservations</text><ellipse cx="290.7582" cy="1237.6328" fill="none" rx="11" ry="11" style="stroke:#000000;stroke-width:1;"/><ellipse cx="290.7582" cy="1237.6328" fill="#FFFFFF" rx="6" ry="6" style="stroke:#000000;stroke-width:1;"/><line style="stroke:#64B5F6;stroke-width:1;" x1="290.7582" x2="290.7582" y1="94.1016" y2="114.1016"/><polygon fill="#64B5F6" points="286.7582,104.1016,290.7582,114.1016,294.7582,104.1016,290.7582,108.1016" style="stroke:#64B5F6;stroke-width:1;"/><line style="stroke:#64B5F6;stroke-width:1;" x1="290.7582" x2="290.7582" y1="234.5156" y2="254.5156"/><polygon fill="#64B5F6" points="286.7582,244.5156,290.7582,254.5156,294.7582,244.5156,290.7582,248.5156" style="stroke:#64B5F6;stroke-width:1;"/><line style="stroke:#64B5F6;stroke-width:1;" x1="290.7582" x2="290.7582" y1="146.9063" y2="201.7109"/><polygon fill="#64B5F6" points="286.7582,191.7109,290.7582,201.7109,294.7582,191.7109,290.7582,195.7109" style="stroke:#64B5F6;stroke-width:1;"/><line style="stroke:#64B5F6;stroke-width:1;" x1="139.3342" x2="139.3342" y1="408.9297" y2="428.9297"/><polygon fill="#64B5F6" points="135.3342,418.9297,139.3342,428.9297,143.3342,418.9297,139.3342,422.9297" style="stroke:#64B5F6;stroke-width:1;"/><line style="stroke:#64B5F6;stroke-width:1;" x1="139.3342" x2="139.3342" y1="461.7344" y2="481.7344"/><polygon fill="#64B5F6" points="135.3342,471.7344,139.3342,481.7344,143.3342,471.7344,139.3342,475.7344" style="stroke:#64B5F6;stroke-width:1;"/><line style="stroke:#64B5F6;stroke-width:1;" x1="139.3342" x2="139.3342" y1="514.5391" y2="534.5391"/><polygon fill="#64B5F6" points="135.3342,524.5391,139.3342,534.5391,143.3342,524.5391,139.3342,528.5391" style="stroke:#64B5F6;stroke-width:1;"/><line style="stroke:#64B5F6;stroke-width:1;" x1="139.3342" x2="139.3342" y1="567.3438" y2="587.3438"/><polygon fill="#64B5F6" points="135.3342,577.3438,139.3342,587.3438,143.3342,577.3438,139.3342,581.3438" style="stroke:#64B5F6;stroke-width:1;"/><line style="stroke:#64B5F6;stroke-width:1;" x1="442.1821" x2="442.1821" y1="408.9297" y2="428.9297"/><polygon fill="#64B5F6" points="438.1821,418.9297,442.1821,428.9297,446.1821,418.9297,442.1821,422.9297" style="stroke:#64B5F6;stroke-width:1;"/><line style="stroke:#64B5F6;stroke-width:1;" x1="158.9774" x2="139.3342" y1="354.125" y2="354.125"/><line style="stroke:#64B5F6;stroke-width:1;" x1="139.3342" x2="139.3342" y1="354.125" y2="376.125"/><polygon fill="#64B5F6" points="135.3342,366.125,139.3342,376.125,143.3342,366.125,139.3342,370.125" style="stroke:#64B5F6;stroke-width:1;"/><line style="stroke:#64B5F6;stroke-width:1;" x1="422.5389" x2="442.1821" y1="354.125" y2="354.125"/><line style="stroke:#64B5F6;stroke-width:1;" x1="442.1821" x2="442.1821" y1="354.125" y2="376.125"/><polygon fill="#64B5F6" points="438.1821,366.125,442.1821,376.125,446.1821,366.125,442.1821,370.125" style="stroke:#64B5F6;stroke-width:1;"/><line style="stroke:#64B5F6;stroke-width:1;" x1="139.3342" x2="139.3342" y1="620.1484" y2="625.1484"/><line style="stroke:#64B5F6;stroke-width:1;" x1="139.3342" x2="290.7582" y1="625.1484" y2="625.1484"/><line style="stroke:#64B5F6;stroke-width:1;" x1="290.7582" x2="290.7582" y1="625.1484" y2="674.9531"/><polygon fill="#64B5F6" points="286.7582,664.9531,290.7582,674.9531,294.7582,664.9531,290.7582,668.9531" style="stroke:#64B5F6;stroke-width:1;"/><line style="stroke:#64B5F6;stroke-width:1;" x1="290.7582" x2="290.7582" y1="287.3203" y2="342.125"/><polygon fill="#64B5F6" points="286.7582,332.125,290.7582,342.125,294.7582,332.125,290.7582,336.125" style="stroke:#64B5F6;stroke-width:1;"/><line style="stroke:#64B5F6;stroke-width:1;" x1="290.7582" x2="290.7582" y1="707.7578" y2="727.7578"/><polygon fill="#64B5F6" points="286.7582,717.7578,290.7582,727.7578,294.7582,717.7578,290.7582,721.7578" style="stroke:#64B5F6;stroke-width:1;"/><line style="stroke:#64B5F6;stroke-width:1;" x1="290.7582" x2="290.7582" y1="760.5625" y2="797.5742"/><polygon fill="#64B5F6" points="286.7582,787.5742,290.7582,797.5742,294.7582,787.5742,290.7582,791.5742" style="stroke:#64B5F6;stroke-width:1;"/><line style="stroke:#64B5F6;stroke-width:1;" x1="290.7582" x2="290.7582" y1="830.3789" y2="877.3906"/><polygon fill="#64B5F6" points="286.7582,867.3906,290.7582,877.3906,294.7582,867.3906,290.7582,871.3906" style="stroke:#64B5F6;stroke-width:1;"/><line style="stroke:#64B5F6;stroke-width:1;" x1="290.7582" x2="290.7582" y1="923" y2="943"/><polygon fill="#64B5F6" points="286.7582,933,290.7582,943,294.7582,933,290.7582,937" style="stroke:#64B5F6;stroke-width:1;"/><line style="stroke:#64B5F6;stroke-width:1;" x1="290.7582" x2="290.7582" y1="988.6094" y2="1008.6094"/><polygon fill="#64B5F6" points="286.7582,998.6094,290.7582,1008.6094,294.7582,998.6094,290.7582,1002.6094" style="stroke:#64B5F6;stroke-width:1;"/><line style="stroke:#64B5F6;stroke-width:1;" x1="290.7582" x2="290.7582" y1="1141.8281" y2="1161.8281"/><polygon fill="#64B5F6" points="286.7582,1151.8281,290.7582,1161.8281,294.7582,1151.8281,290.7582,1155.8281" style="stroke:#64B5F6;stroke-width:1;"/><line style="stroke:#64B5F6;stroke-width:1;" x1="290.7582" x2="290.7582" y1="1054.2188" y2="1109.0234"/><polygon fill="#64B5F6" points="286.7582,1099.0234,290.7582,1109.0234,294.7582,1099.0234,290.7582,1103.0234" style="stroke:#64B5F6;stroke-width:1;"/><line style="stroke:#64B5F6;stroke-width:1;" x1="290.7582" x2="290.7582" y1="1194.6328" y2="1226.6328"/><polygon fill="#64B5F6" points="286.7582,1216.6328,290.7582,1226.6328,294.7582,1216.6328,290.7582,1220.6328" style="stroke:#64B5F6;stroke-width:1;"/><?plantuml-src jLJRRXCn47tFLmpB0qb51IbDAr8XbBI9b8TMY42513outjd4uBM3rvjI4Fy3ty6FSMnlcei2RqXHeendpfmvP-m7Viubqq8BPLgjwhCo2-54IJT2VfuvMvlyt6hhwE7esVXeVB6P8gHNI-Nlw7kBQBYRFnnUZCR3S69Tpgw9Tf-VdbmS8JgsnZUnfztUwVDX4vkgRqpTezQFVPq6pjdRsAufFJaUziOd-vClb2YjoVUpQwRPONTyDEYDUtlPRRN0jrTUMVC_m8tr_3zmmLZpMkBZVKVRvUk4d0jHQnzIhWJM9Plop3AzdMJxarABRgiLaUdWO3WOJiQJTmS7T4WmPePymEIF1icitx-eJzExol_-6S9CLzQBAF0J6YnLHQySLuW8vRZLMikVdMl5ncTHBoGuZz_-kJKLYB2ZYYj29RjbHAi8mL8PvkeiYBC159hZ8YIa_lbSk1dgjK8KV7PGn99bQEThJo_epUZrvUHgD3eBbMEblKEbPArHPe3DHbh7qLT4q9CWYOp4TrbiZgCAQayqyTV8GTHKMeNUjU5DCYGYiAEN7S9LDjIsjUgW75och5c698FptRgL4cSfTo0bOwS0fn-nTC845qpZGihv2sZSrtONbJrYRnN6xZIWKw4g5R98MlXjed_KBeI4FK0kLecO-qiDl6ngwv8z5CIqc0tMPo65TOKwYDbCDYWA9USeABcgn0mBEQZbxeGGGtYFhc7Hxg72djX5m3IvAlwv1TT2gw09g95EEXFM49M1O1VJKY-QVirE5MgTkUNF8kAZXcvKe5JVUny6TuootCewo4EvWCFIwaPYoXn0p2mnnoTIS6eszt6ImmPgaZT_5-jhSX_R87CVQpmxx7LME9l-s4NoLwzES-4PJDD0Br1zs-ua1IDIujP_pL9eE1lkJQDMQUyOG9JNczG-cFRgO84Ncg51kcDfsBWK_Skq1e8-sNf3eMsOqEGoGJr6n_B6SNWk4iB8B77a0XEu8nFxHLtDWmTREDcLhPUiuxv1BrdZDNeVi3-kDZhxrqrThwEqfb2kJAsoItPIOKJmNzeuJC1_4Cs4MZuSYA3L_cScj0ox-WS0?></g></svg>