<svg xmlns="http://www.w3.org/2000/svg" xmlns:xlink="http://www.w3.org/1999/xlink" contentStyleType="text/css" data-diagram-type="SEQUENCE" height="1682px" preserveAspectRatio="none" style="width:1978px;height:1682px;background:#E3F2FD;" version="1.1" viewBox="0 0 1978 1682" width="1978px" zoomAndPan="magnify"><?plantuml 1.2026.3beta6?><defs/><g><rect fill="#E3F2FD" height="1682" style="stroke:none;stroke-width:1;" width="1978" x="0" y="0"/><g class="title" data-source-line="45"><text fill="#01579B" font-family="Segoe UI" font-size="14" font-weight="700" lengthAdjust="spacing" textLength="62.9521" x="746.1711" y="27.9951">BABIFIX</text><text fill="#01579B" font-family="Segoe UI" font-size="14" font-weight="700" lengthAdjust="spacing" textLength="416.0283" x="813.9973" y="27.9951">- Sequence : Paiement en Especes (Validation triple)</text></g><rect fill="#FFFFFF" height="281.3281" style="stroke:#42A5F5;stroke-width:1;" width="1064.9541" x="897.2427" y="1305.7656"/><rect fill="#FFFFFF" height="127.8438" style="stroke:none;stroke-width:1;" width="1064.9541" x="897.2427" y="1459.25"/><g class="participant-lifeline" data-entity-uid="part1" data-qualified-name="Client" data-source-line="47" id="part1-lifeline"><g><title>Client</title><rect fill="#000000" fill-opacity="0.00000" height="1489.1563" width="8" x="26.4751" y="114.9375"/><line style="stroke:#42A5F5;stroke-width:1;stroke-dasharray:5,5;" x1="30" x2="30" y1="114.9375" y2="1604.0938"/></g></g><g class="participant-lifeline" data-entity-uid="part2" data-qualified-name="AppClient" data-source-line="48" id="part2-lifeline"><g><title>App BABIFIX</title><rect fill="#000000" fill-opacity="0.00000" height="1489.1563" width="8" x="441.0366" y="114.9375"/><line style="stroke:#42A5F5;stroke-width:1;stroke-dasharray:5,5;" x1="444.1479" x2="444.1479" y1="114.9375" y2="1604.0938"/></g></g><g class="participant-lifeline" data-entity-uid="part3" data-qualified-name="AppPro" data-source-line="49" id="part3-lifeline"><g><title>App BABIFIX Pro</title><rect fill="#000000" fill-opacity="0.00000" height="1489.1563" width="8" x="556.5332" y="114.9375"/><line style="stroke:#42A5F5;stroke-width:1;stroke-dasharray:5,5;" x1="559.9253" x2="559.9253" y1="114.9375" y2="1604.0938"/></g></g><g class="participant-lifeline" data-entity-uid="part4" data-qualified-name="Prestataire" data-source-line="50" id="part4-lifeline"><g><title>Prestataire</title><rect fill="#000000" fill-opacity="0.00000" height="1489.1563" width="8" x="862.9209" y="114.9375"/><line style="stroke:#42A5F5;stroke-width:1;stroke-dasharray:5,5;" x1="866.5991" x2="866.5991" y1="114.9375" y2="1604.0938"/></g></g><g class="participant-lifeline" data-entity-uid="part5" data-qualified-name="API" data-source-line="51" id="part5-lifeline"><g><title>Django API</title><rect fill="#000000" fill-opacity="0.00000" height="1489.1563" width="8" x="947.4473" y="114.9375"/><line style="stroke:#42A5F5;stroke-width:1;stroke-dasharray:5,5;" x1="951.2427" x2="951.2427" y1="114.9375" y2="1604.0938"/></g></g><g class="participant-lifeline" data-entity-uid="part6" data-qualified-name="DB" data-source-line="52" id="part6-lifeline"><g><title>PostgreSQL</title><rect fill="#000000" fill-opacity="0.00000" height="1489.1563" width="8" x="1371.5449" y="114.9375"/><line style="stroke:#42A5F5;stroke-width:1;stroke-dasharray:5,5;" x1="1374.7046" x2="1374.7046" y1="114.9375" y2="1604.0938"/></g></g><g class="participant-lifeline" data-entity-uid="part7" data-qualified-name="Panel" data-source-line="53" id="part7-lifeline"><g><title>Panel Admin</title><rect fill="#000000" fill-opacity="0.00000" height="1489.1563" width="8" x="1473.9131" y="114.9375"/><line style="stroke:#42A5F5;stroke-width:1;stroke-dasharray:5,5;" x1="1477.3853" x2="1477.3853" y1="114.9375" y2="1604.0938"/></g></g><g class="participant-lifeline" data-entity-uid="part8" data-qualified-name="Admin" data-source-line="54" id="part8-lifeline"><g><title>Admin</title><rect fill="#000000" fill-opacity="0.00000" height="1489.1563" width="8" x="1863.8115" y="114.9375"/><line style="stroke:#42A5F5;stroke-width:1;stroke-dasharray:5,5;" x1="1867.7886" x2="1867.7886" y1="114.9375" y2="1604.0938"/></g></g><g class="participant-lifeline" data-entity-uid="part9" data-qualified-name="FCM" data-source-line="83" id="part9-lifeline"><g><title>FCM</title><rect fill="#000000" fill-opacity="0.00000" height="1489.1563" width="8" x="1920.5156" y="114.9375"/><line style="stroke:#42A5F5;stroke-width:1;stroke-dasharray:5,5;" x1="1923.8345" x2="1923.8345" y1="114.9375" y2="1604.0938"/></g></g><g class="participant participant-head" data-entity-uid="part1" data-qualified-name="Client" data-source-line="47" id="part1-head"><text fill="#01579B" font-family="Segoe UI" font-size="10" lengthAdjust="spacing" textLength="28.9502" x="13" y="112.5791">Client</text><ellipse cx="30.4751" cy="51.2969" fill="#90CAF9" rx="8" ry="8" style="stroke:#1976D2;stroke-width:1;"/><path d="M30.4751,59.2969 L30.4751,86.2969 M17.4751,67.2969 L43.4751,67.2969 M30.4751,86.2969 L17.4751,101.2969 M30.4751,86.2969 L43.4751,101.2969" fill="none" style="stroke:#1976D2;stroke-width:1;"/></g><g class="participant participant-tail" data-entity-uid="part1" data-qualified-name="Client" data-source-line="47" id="part1-tail"><text fill="#01579B" font-family="Segoe UI" font-size="10" lengthAdjust="spacing" textLength="28.9502" x="13" y="1612.376">Client</text><ellipse cx="30.4751" cy="1623.7344" fill="#90CAF9" rx="8" ry="8" style="stroke:#1976D2;stroke-width:1;"/><path d="M30.4751,1631.7344 L30.4751,1658.7344 M17.4751,1639.7344 L43.4751,1639.7344 M30.4751,1658.7344 L17.4751,1673.7344 M30.4751,1658.7344 L43.4751,1673.7344" fill="none" style="stroke:#1976D2;stroke-width:1;"/></g><g class="participant participant-head" data-entity-uid="part2" data-qualified-name="AppClient" data-source-line="48" id="part2-head"><rect fill="#BBDEFB" height="37.2813" rx="2.5" ry="2.5" style="stroke:#1976D2;stroke-width:1;" width="75.7773" x="407.1479" y="76.6563"/><text fill="#01579B" font-family="Segoe UI" font-size="10" lengthAdjust="spacing" textLength="61.7773" x="414.1479" y="92.9385">App BABIFIX</text><text fill="#01579B" font-family="Segoe UI" font-size="10" lengthAdjust="spacing" textLength="36.7529" x="426.6602" y="104.5791">(Client)</text></g><g class="participant participant-tail" data-entity-uid="part2" data-qualified-name="AppClient" data-source-line="48" id="part2-tail"><rect fill="#BBDEFB" height="37.2813" rx="2.5" ry="2.5" style="stroke:#1976D2;stroke-width:1;" width="75.7773" x="407.1479" y="1603.0938"/><text fill="#01579B" font-family="Segoe UI" font-size="10" lengthAdjust="spacing" textLength="61.7773" x="414.1479" y="1619.376">App BABIFIX</text><text fill="#01579B" font-family="Segoe UI" font-size="10" lengthAdjust="spacing" textLength="36.7529" x="426.6602" y="1631.0166">(Client)</text></g><g class="participant participant-head" data-entity-uid="part3" data-qualified-name="AppPro" data-source-line="49" id="part3-head"><rect fill="#BBDEFB" height="25.6406" rx="2.5" ry="2.5" style="stroke:#1976D2;stroke-width:1;" width="95.2158" x="512.9253" y="88.2969"/><text fill="#01579B" font-family="Segoe UI" font-size="10" lengthAdjust="spacing" textLength="81.2158" x="519.9253" y="104.5791">App BABIFIX Pro</text></g><g class="participant participant-tail" data-entity-uid="part3" data-qualified-name="AppPro" data-source-line="49" id="part3-tail"><rect fill="#BBDEFB" height="25.6406" rx="2.5" ry="2.5" style="stroke:#1976D2;stroke-width:1;" width="95.2158" x="512.9253" y="1603.0938"/><text fill="#01579B" font-family="Segoe UI" font-size="10" lengthAdjust="spacing" textLength="81.2158" x="519.9253" y="1619.376">App BABIFIX Pro</text></g><g class="participant participant-head" data-entity-uid="part4" data-qualified-name="Prestataire" data-source-line="50" id="part4-head"><text fill="#01579B" font-family="Segoe UI" font-size="10" lengthAdjust="spacing" textLength="54.6436" x="836.5991" y="112.5791">Prestataire</text><ellipse cx="866.9209" cy="51.2969" fill="#90CAF9" rx="8" ry="8" style="stroke:#1976D2;stroke-width:1;"/><path d="M866.9209,59.2969 L866.9209,86.2969 M853.9209,67.2969 L879.9209,67.2969 M866.9209,86.2969 L853.9209,101.2969 M866.9209,86.2969 L879.9209,101.2969" fill="none" style="stroke:#1976D2;stroke-width:1;"/></g><g class="participant participant-tail" data-entity-uid="part4" data-qualified-name="Prestataire" data-source-line="50" id="part4-tail"><text fill="#01579B" font-family="Segoe UI" font-size="10" lengthAdjust="spacing" textLength="54.6436" x="836.5991" y="1612.376">Prestataire</text><ellipse cx="866.9209" cy="1623.7344" fill="#90CAF9" rx="8" ry="8" style="stroke:#1976D2;stroke-width:1;"/><path d="M866.9209,1631.7344 L866.9209,1658.7344 M853.9209,1639.7344 L879.9209,1639.7344 M866.9209,1658.7344 L853.9209,1673.7344 M866.9209,1658.7344 L879.9209,1673.7344" fill="none" style="stroke:#1976D2;stroke-width:1;"/></g><g class="participant participant-head" data-entity-uid="part5" data-qualified-name="API" data-source-line="51" id="part5-head"><rect fill="#BBDEFB" height="37.2813" rx="2.5" ry="2.5" style="stroke:#1976D2;stroke-width:1;" width="68.4092" x="917.2427" y="76.6563"/><text fill="#01579B" font-family="Segoe UI" font-size="10" lengthAdjust="spacing" textLength="54.4092" x="924.2427" y="92.9385">Django API</text><text fill="#01579B" font-family="Segoe UI" font-size="10" lengthAdjust="spacing" textLength="33.5254" x="934.6846" y="104.5791">(REST)</text></g><g class="participant participant-tail" data-entity-uid="part5" data-qualified-name="API" data-source-line="51" id="part5-tail"><rect fill="#BBDEFB" height="37.2813" rx="2.5" ry="2.5" style="stroke:#1976D2;stroke-width:1;" width="68.4092" x="917.2427" y="1603.0938"/><text fill="#01579B" font-family="Segoe UI" font-size="10" lengthAdjust="spacing" textLength="54.4092" x="924.2427" y="1619.376">Django API</text><text fill="#01579B" font-family="Segoe UI" font-size="10" lengthAdjust="spacing" textLength="33.5254" x="934.6846" y="1631.0166">(REST)</text></g><g class="participant participant-head" data-entity-uid="part6" data-qualified-name="DB" data-source-line="52" id="part6-head"><text fill="#000000" font-family="Segoe UI" font-size="10" lengthAdjust="spacing" textLength="57.6807" x="1343.7046" y="112.5791">PostgreSQL</text><path d="M1357.5449,67.2969 C1357.5449,57.2969 1375.5449,57.2969 1375.5449,57.2969 C1375.5449,57.2969 1393.5449,57.2969 1393.5449,67.2969 L1393.5449,93.2969 C1393.5449,103.2969 1375.5449,103.2969 1375.5449,103.2969 C1375.5449,103.2969 1357.5449,103.2969 1357.5449,93.2969 L1357.5449,67.2969" fill="#FFFFFF" style="stroke:#000000;stroke-width:1;"/><path d="M1357.5449,67.2969 C1357.5449,77.2969 1375.5449,77.2969 1375.5449,77.2969 C1375.5449,77.2969 1393.5449,77.2969 1393.5449,67.2969" fill="none" style="stroke:#000000;stroke-width:1;"/></g><g class="participant participant-tail" data-entity-uid="part6" data-qualified-name="DB" data-source-line="52" id="part6-tail"><text fill="#000000" font-family="Segoe UI" font-size="10" lengthAdjust="spacing" textLength="57.6807" x="1343.7046" y="1612.376">PostgreSQL</text><path d="M1357.5449,1624.7344 C1357.5449,1614.7344 1375.5449,1614.7344 1375.5449,1614.7344 C1375.5449,1614.7344 1393.5449,1614.7344 1393.5449,1624.7344 L1393.5449,1650.7344 C1393.5449,1660.7344 1375.5449,1660.7344 1375.5449,1660.7344 C1375.5449,1660.7344 1357.5449,1660.7344 1357.5449,1650.7344 L1357.5449,1624.7344" fill="#FFFFFF" style="stroke:#000000;stroke-width:1;"/><path d="M1357.5449,1624.7344 C1357.5449,1634.7344 1375.5449,1634.7344 1375.5449,1634.7344 C1375.5449,1634.7344 1393.5449,1634.7344 1393.5449,1624.7344" fill="none" style="stroke:#000000;stroke-width:1;"/></g><g class="participant participant-head" data-entity-uid="part7" data-qualified-name="Panel" data-source-line="53" id="part7-head"><rect fill="#BBDEFB" height="37.2813" rx="2.5" ry="2.5" style="stroke:#1976D2;stroke-width:1;" width="101.0557" x="1427.3853" y="76.6563"/><text fill="#01579B" font-family="Segoe UI" font-size="10" lengthAdjust="spacing" textLength="62.6514" x="1446.5874" y="92.9385">Panel Admin</text><text fill="#01579B" font-family="Segoe UI" font-size="10" lengthAdjust="spacing" textLength="87.0557" x="1434.3853" y="104.5791">(Django + HTMX)</text></g><g class="participant participant-tail" data-entity-uid="part7" data-qualified-name="Panel" data-source-line="53" id="part7-tail"><rect fill="#BBDEFB" height="37.2813" rx="2.5" ry="2.5" style="stroke:#1976D2;stroke-width:1;" width="101.0557" x="1427.3853" y="1603.0938"/><text fill="#01579B" font-family="Segoe UI" font-size="10" lengthAdjust="spacing" textLength="62.6514" x="1446.5874" y="1619.376">Panel Admin</text><text fill="#01579B" font-family="Segoe UI" font-size="10" lengthAdjust="spacing" textLength="87.0557" x="1434.3853" y="1631.0166">(Django + HTMX)</text></g><g class="participant participant-head" data-entity-uid="part8" data-qualified-name="Admin" data-source-line="54" id="part8-head"><text fill="#01579B" font-family="Segoe UI" font-size="10" lengthAdjust="spacing" textLength="32.0459" x="1848.7886" y="112.5791">Admin</text><ellipse cx="1867.8115" cy="51.2969" fill="#90CAF9" rx="8" ry="8" style="stroke:#1976D2;stroke-width:1;"/><path d="M1867.8115,59.2969 L1867.8115,86.2969 M1854.8115,67.2969 L1880.8115,67.2969 M1867.8115,86.2969 L1854.8115,101.2969 M1867.8115,86.2969 L1880.8115,101.2969" fill="none" style="stroke:#1976D2;stroke-width:1;"/></g><g class="participant participant-tail" data-entity-uid="part8" data-qualified-name="Admin" data-source-line="54" id="part8-tail"><text fill="#01579B" font-family="Segoe UI" font-size="10" lengthAdjust="spacing" textLength="32.0459" x="1848.7886" y="1612.376">Admin</text><ellipse cx="1867.8115" cy="1623.7344" fill="#90CAF9" rx="8" ry="8" style="stroke:#1976D2;stroke-width:1;"/><path d="M1867.8115,1631.7344 L1867.8115,1658.7344 M1854.8115,1639.7344 L1880.8115,1639.7344 M1867.8115,1658.7344 L1854.8115,1673.7344 M1867.8115,1658.7344 L1880.8115,1673.7344" fill="none" style="stroke:#1976D2;stroke-width:1;"/></g><g class="participant participant-head" data-entity-uid="part9" data-qualified-name="FCM" data-source-line="83" id="part9-head"><rect fill="#BBDEFB" height="25.6406" rx="2.5" ry="2.5" style="stroke:#1976D2;stroke-width:1;" width="35.3623" x="1906.8345" y="88.2969"/><text fill="#01579B" font-family="Segoe UI" font-size="10" lengthAdjust="spacing" textLength="21.3623" x="1913.8345" y="104.5791">FCM</text></g><g class="participant participant-tail" data-entity-uid="part9" data-qualified-name="FCM" data-source-line="83" id="part9-tail"><rect fill="#BBDEFB" height="25.6406" rx="2.5" ry="2.5" style="stroke:#1976D2;stroke-width:1;" width="35.3623" x="1906.8345" y="1603.0938"/><text fill="#01579B" font-family="Segoe UI" font-size="10" lengthAdjust="spacing" textLength="21.3623" x="1913.8345" y="1619.376">FCM</text></g><rect fill="#FFFFFF" height="3" style="stroke:#FFFFFF;stroke-width:1;" width="1967.1968" x="5" y="143.7578"/><line style="stroke:#000000;stroke-width:0.5;" x1="5" x2="1972.1968" y1="143.7578" y2="143.7578"/><line style="stroke:#000000;stroke-width:0.5;" x1="5" x2="1972.1968" y1="146.7578" y2="146.7578"/><rect fill="#FFFFFF" height="19.6406" style="stroke:#000000;stroke-width:1;" width="203.126" x="887.0354" y="134.9375"/><text fill="#000000" font-family="Segoe UI" font-size="10" font-weight="700" lengthAdjust="spacing" textLength="185.6445" x="893.0354" y="148.2197">Reservation avec option Especes</text><g class="message" data-entity-1="part1" data-entity-2="part2" data-source-line="58" id="msg1"><polygon fill="#64B5F6" points="433.0366,178.2188,443.0366,182.2188,433.0366,186.2188,437.0366,182.2188" style="stroke:#64B5F6;stroke-width:1;"/><line style="stroke:#64B5F6;stroke-width:1;" x1="30.4751" x2="439.0366" y1="182.2188" y2="182.2188"/><text fill="#000000" font-family="Segoe UI" font-size="10" lengthAdjust="spacing" textLength="146.8701" x="164.3208" y="177.8604">Choisir prestation et reserver</text></g><g class="message" data-entity-1="part2" data-entity-2="part1" data-source-line="59" id="msg2"><polygon fill="#64B5F6" points="41.4751,203.8594,31.4751,207.8594,41.4751,211.8594,37.4751,207.8594" style="stroke:#64B5F6;stroke-width:1;"/><line style="stroke:#64B5F6;stroke-width:1;stroke-dasharray:2,2;" x1="35.4751" x2="444.0366" y1="207.8594" y2="207.8594"/><text fill="#000000" font-family="Segoe UI" font-size="10" lengthAdjust="spacing" textLength="145.1855" x="165.1631" y="203.501">Afficher options de paiement</text></g><g class="message" data-entity-1="part1" data-entity-2="part2" data-source-line="60" id="msg3"><polygon fill="#64B5F6" points="433.0366,229.5,443.0366,233.5,433.0366,237.5,437.0366,233.5" style="stroke:#64B5F6;stroke-width:1;"/><line style="stroke:#64B5F6;stroke-width:1;" x1="30.4751" x2="439.0366" y1="233.5" y2="233.5"/><text fill="#000000" font-family="Segoe UI" font-size="10" lengthAdjust="spacing" textLength="211.8945" x="131.8086" y="229.1416">Selectionner "Payer en especes sur place"</text></g><g class="message" data-entity-1="part2" data-entity-2="part5" data-source-line="61" id="msg4"><polygon fill="#64B5F6" points="939.4473,266.7813,949.4473,270.7813,939.4473,274.7813,943.4473,270.7813" style="stroke:#64B5F6;stroke-width:1;"/><line style="stroke:#64B5F6;stroke-width:1;" x1="445.0366" x2="945.4473" y1="270.7813" y2="270.7813"/><text fill="#000000" font-family="Segoe UI" font-size="10" lengthAdjust="spacing" textLength="144.5117" x="625.9861" y="254.7822">POST /api/client/reservations</text><text fill="#000000" font-family="Segoe UI" font-size="10" lengthAdjust="spacing" textLength="258.1396" x="569.1721" y="266.4229">{..., payment_type: ESPECES, statut: EN_ATTENTE}</text></g><g class="message" data-entity-1="part5" data-entity-2="part6" data-source-line="62" id="msg5"><polygon fill="#64B5F6" points="1363.5449,292.4219,1373.5449,296.4219,1363.5449,300.4219,1367.5449,296.4219" style="stroke:#64B5F6;stroke-width:1;"/><line style="stroke:#64B5F6;stroke-width:1;" x1="951.4473" x2="1369.5449" y1="296.4219" y2="296.4219"/><text fill="#000000" font-family="Segoe UI" font-size="10" lengthAdjust="spacing" textLength="400.0977" x="963.4473" y="292.0635">INSERT INTO reservation (statut='EN_ATTENTE', cash_flow_status='NON_PAYE')</text></g><g class="message" data-entity-1="part6" data-entity-2="part5" data-source-line="63" id="msg6"><polygon fill="#64B5F6" points="962.4473,318.0625,952.4473,322.0625,962.4473,326.0625,958.4473,322.0625" style="stroke:#64B5F6;stroke-width:1;"/><line style="stroke:#64B5F6;stroke-width:1;stroke-dasharray:2,2;" x1="956.4473" x2="1374.5449" y1="322.0625" y2="322.0625"/><text fill="#000000" font-family="Segoe UI" font-size="10" lengthAdjust="spacing" textLength="108.3057" x="1109.3433" y="317.7041">reservation reference</text></g><g class="message" data-entity-1="part5" data-entity-2="part2" data-source-line="64" id="msg7"><polygon fill="#64B5F6" points="456.0366,343.7031,446.0366,347.7031,456.0366,351.7031,452.0366,347.7031" style="stroke:#64B5F6;stroke-width:1;"/><line style="stroke:#64B5F6;stroke-width:1;stroke-dasharray:2,2;" x1="450.0366" x2="950.4473" y1="347.7031" y2="347.7031"/><text fill="#000000" font-family="Segoe UI" font-size="10" lengthAdjust="spacing" textLength="91.0205" x="652.7317" y="343.3447">Reservation creee</text></g><g class="message" data-entity-1="part2" data-entity-2="part1" data-source-line="65" id="msg8"><polygon fill="#64B5F6" points="41.4751,369.3438,31.4751,373.3438,41.4751,377.3438,37.4751,373.3438" style="stroke:#64B5F6;stroke-width:1;"/><line style="stroke:#64B5F6;stroke-width:1;stroke-dasharray:2,2;" x1="35.4751" x2="444.0366" y1="373.3438" y2="373.3438"/><text fill="#000000" font-family="Segoe UI" font-size="10" lengthAdjust="spacing" textLength="390.5615" x="42.4751" y="368.9854">"Reservation confirmee - Paiement prevu en especes a la fin de la prestation"</text></g><rect fill="#FFFFFF" height="3" style="stroke:#FFFFFF;stroke-width:1;" width="1967.1968" x="5" y="400.1641"/><line style="stroke:#000000;stroke-width:0.5;" x1="5" x2="1972.1968" y1="400.1641" y2="400.1641"/><line style="stroke:#000000;stroke-width:0.5;" x1="5" x2="1972.1968" y1="403.1641" y2="403.1641"/><rect fill="#FFFFFF" height="19.6406" style="stroke:#000000;stroke-width:1;" width="131.4902" x="922.8533" y="391.3438"/><text fill="#000000" font-family="Segoe UI" font-size="10" font-weight="700" lengthAdjust="spacing" textLength="114.0088" x="928.8533" y="404.626">Prestation effectuer</text><path d="M10,425.9844 L10,446.9844 L889,446.9844 L889,435.9844 L879,425.9844 L10,425.9844" fill="#E3F2FD" style="stroke:#42A5F5;stroke-width:1;"/><path d="M879,425.9844 L879,435.9844 L889,435.9844 L879,425.9844" fill="#E3F2FD" style="stroke:#42A5F5;stroke-width:1;"/><text fill="#01579B" font-family="Segoe UI" font-size="10" lengthAdjust="spacing" textLength="295.7324" x="297.2551" y="440.2666">Le prestataire se rend chez le client et realise la prestation</text><g class="message" data-entity-1="part4" data-entity-2="part3" data-source-line="71" id="msg9"><polygon fill="#64B5F6" points="571.5332,466.2656,561.5332,470.2656,571.5332,474.2656,567.5332,470.2656" style="stroke:#64B5F6;stroke-width:1;"/><line style="stroke:#64B5F6;stroke-width:1;" x1="565.5332" x2="865.9209" y1="470.2656" y2="470.2656"/><text fill="#000000" font-family="Segoe UI" font-size="10" lengthAdjust="spacing" textLength="200.3418" x="613.5562" y="465.9072">Marquer l'intervention comme terminee</text></g><g class="message" data-entity-1="part3" data-entity-2="part5" data-source-line="72" id="msg10"><polygon fill="#64B5F6" points="939.4473,503.5469,949.4473,507.5469,939.4473,511.5469,943.4473,507.5469" style="stroke:#64B5F6;stroke-width:1;"/><line style="stroke:#64B5F6;stroke-width:1;" x1="560.5332" x2="945.4473" y1="507.5469" y2="507.5469"/><text fill="#000000" font-family="Segoe UI" font-size="10" lengthAdjust="spacing" textLength="233.2568" x="639.3618" y="491.5479">POST /api/prestataire/requests/{ref}/complete</text><text fill="#000000" font-family="Segoe UI" font-size="10" lengthAdjust="spacing" textLength="93.4619" x="709.2593" y="503.1885">{statut: TERMINE}</text></g><g class="message" data-entity-1="part5" data-entity-2="part6" data-source-line="73" id="msg11"><polygon fill="#64B5F6" points="1363.5449,529.1875,1373.5449,533.1875,1363.5449,537.1875,1367.5449,533.1875" style="stroke:#64B5F6;stroke-width:1;"/><line style="stroke:#64B5F6;stroke-width:1;" x1="951.4473" x2="1369.5449" y1="533.1875" y2="533.1875"/><text fill="#000000" font-family="Segoe UI" font-size="10" lengthAdjust="spacing" textLength="213.6328" x="1056.6797" y="528.8291">UPDATE reservation SET statut='TERMINE'</text></g><g class="message" data-entity-1="part6" data-entity-2="part5" data-source-line="74" id="msg12"><polygon fill="#64B5F6" points="962.4473,554.8281,952.4473,558.8281,962.4473,562.8281,958.4473,558.8281" style="stroke:#64B5F6;stroke-width:1;"/><line style="stroke:#64B5F6;stroke-width:1;stroke-dasharray:2,2;" x1="956.4473" x2="1374.5449" y1="558.8281" y2="558.8281"/><text fill="#000000" font-family="Segoe UI" font-size="10" lengthAdjust="spacing" textLength="14.4287" x="1156.2817" y="554.4697">OK</text></g><g class="message" data-entity-1="part3" data-entity-2="part4" data-source-line="75" id="msg13"><polygon fill="#64B5F6" points="854.9209,580.4688,864.9209,584.4688,854.9209,588.4688,858.9209,584.4688" style="stroke:#64B5F6;stroke-width:1;"/><line style="stroke:#64B5F6;stroke-width:1;stroke-dasharray:2,2;" x1="560.5332" x2="860.9209" y1="584.4688" y2="584.4688"/><text fill="#000000" font-family="Segoe UI" font-size="10" lengthAdjust="spacing" textLength="108.4326" x="659.5107" y="580.1104">"Prestation terminee"</text></g><rect fill="#FFFFFF" height="3" style="stroke:#FFFFFF;stroke-width:1;" width="1967.1968" x="5" y="611.2891"/><line style="stroke:#000000;stroke-width:0.5;" x1="5" x2="1972.1968" y1="611.2891" y2="611.2891"/><line style="stroke:#000000;stroke-width:0.5;" x1="5" x2="1972.1968" y1="614.2891" y2="614.2891"/><rect fill="#FFFFFF" height="19.6406" style="stroke:#000000;stroke-width:1;" width="229.0342" x="874.0813" y="602.4688"/><text fill="#000000" font-family="Segoe UI" font-size="10" font-weight="700" lengthAdjust="spacing" textLength="211.5527" x="880.0813" y="615.751">Declaration de paiement par le Client</text><g class="message" data-entity-1="part1" data-entity-2="part2" data-source-line="79" id="msg14"><polygon fill="#64B5F6" points="433.0366,645.75,443.0366,649.75,433.0366,653.75,437.0366,649.75" style="stroke:#64B5F6;stroke-width:1;"/><line style="stroke:#64B5F6;stroke-width:1;" x1="30.4751" x2="439.0366" y1="649.75" y2="649.75"/><text fill="#000000" font-family="Segoe UI" font-size="10" lengthAdjust="spacing" textLength="151.8555" x="161.8281" y="645.3916">Ouvrir la reservation terminee</text></g><g class="message" data-entity-1="part1" data-entity-2="part2" data-source-line="80" id="msg15"><polygon fill="#64B5F6" points="433.0366,671.3906,443.0366,675.3906,433.0366,679.3906,437.0366,675.3906" style="stroke:#64B5F6;stroke-width:1;"/><line style="stroke:#64B5F6;stroke-width:1;" x1="30.4751" x2="439.0366" y1="675.3906" y2="675.3906"/><text fill="#000000" font-family="Segoe UI" font-size="10" lengthAdjust="spacing" textLength="149.7656" x="162.873" y="671.0322">Cliquer "J'ai paye en especes"</text></g><g class="message" data-entity-1="part2" data-entity-2="part5" data-source-line="81" id="msg16"><polygon fill="#64B5F6" points="939.4473,708.6719,949.4473,712.6719,939.4473,716.6719,943.4473,712.6719" style="stroke:#64B5F6;stroke-width:1;"/><line style="stroke:#64B5F6;stroke-width:1;" x1="445.0366" x2="945.4473" y1="712.6719" y2="712.6719"/><text fill="#000000" font-family="Segoe UI" font-size="10" lengthAdjust="spacing" textLength="241.709" x="577.3875" y="696.6729">POST /api/client/reservations/{ref}/cash-declare</text><text fill="#000000" font-family="Segoe UI" font-size="10" lengthAdjust="spacing" textLength="95.8545" x="650.3147" y="708.3135">{client_paie: True}</text></g><g class="message" data-entity-1="part5" data-entity-2="part6" data-source-line="82" id="msg17"><polygon fill="#64B5F6" points="1363.5449,734.3125,1373.5449,738.3125,1363.5449,742.3125,1367.5449,738.3125" style="stroke:#64B5F6;stroke-width:1;"/><line style="stroke:#64B5F6;stroke-width:1;" x1="951.4473" x2="1369.5449" y1="738.3125" y2="738.3125"/><text fill="#000000" font-family="Segoe UI" font-size="10" lengthAdjust="spacing" textLength="342.4072" x="992.2925" y="733.9541">UPDATE reservation SET cash_flow_status='PENDING_PRESTATAIRE'</text></g><g class="message" data-entity-1="part5" data-entity-2="part9" data-source-line="83" id="msg18"><polygon fill="#64B5F6" points="1912.5156,759.9531,1922.5156,763.9531,1912.5156,767.9531,1916.5156,763.9531" style="stroke:#64B5F6;stroke-width:1;"/><line style="stroke:#64B5F6;stroke-width:1;" x1="951.4473" x2="1918.5156" y1="763.9531" y2="763.9531"/><text fill="#000000" font-family="Segoe UI" font-size="10" lengthAdjust="spacing" textLength="372.5781" x="1251.6924" y="759.5947">PushNotification to prestataire "Le client a declare avoir paye en especes"</text></g><g class="message" data-entity-1="part2" data-entity-2="part1" data-source-line="84" id="msg19"><polygon fill="#64B5F6" points="41.4751,785.5938,31.4751,789.5938,41.4751,793.5938,37.4751,789.5938" style="stroke:#64B5F6;stroke-width:1;"/><line style="stroke:#64B5F6;stroke-width:1;stroke-dasharray:2,2;" x1="35.4751" x2="444.0366" y1="789.5938" y2="789.5938"/><text fill="#000000" font-family="Segoe UI" font-size="10" lengthAdjust="spacing" textLength="331.3818" x="72.0649" y="785.2354">"Paiement declare - En attente de confirmation par le prestataire"</text></g><rect fill="#FFFFFF" height="3" style="stroke:#FFFFFF;stroke-width:1;" width="1967.1968" x="5" y="816.4141"/><line style="stroke:#000000;stroke-width:0.5;" x1="5" x2="1972.1968" y1="816.4141" y2="816.4141"/><line style="stroke:#000000;stroke-width:0.5;" x1="5" x2="1972.1968" y1="819.4141" y2="819.4141"/><rect fill="#FFFFFF" height="19.6406" style="stroke:#000000;stroke-width:1;" width="268.2529" x="854.4719" y="807.5938"/><text fill="#000000" font-family="Segoe UI" font-size="10" font-weight="700" lengthAdjust="spacing" textLength="250.7715" x="860.4719" y="820.876">Confirmation de reception par le Prestataire</text><g class="message" data-entity-1="part4" data-entity-2="part3" data-source-line="88" id="msg20"><polygon fill="#64B5F6" points="571.5332,850.875,561.5332,854.875,571.5332,858.875,567.5332,854.875" style="stroke:#64B5F6;stroke-width:1;"/><line style="stroke:#64B5F6;stroke-width:1;" x1="565.5332" x2="865.9209" y1="854.875" y2="854.875"/><text fill="#000000" font-family="Segoe UI" font-size="10" lengthAdjust="spacing" textLength="130.5029" x="648.4756" y="850.5166">Recevoir notification push</text></g><g class="message" data-entity-1="part4" data-entity-2="part3" data-source-line="89" id="msg21"><polygon fill="#64B5F6" points="571.5332,876.5156,561.5332,880.5156,571.5332,884.5156,567.5332,880.5156" style="stroke:#64B5F6;stroke-width:1;"/><line style="stroke:#64B5F6;stroke-width:1;" x1="565.5332" x2="865.9209" y1="880.5156" y2="880.5156"/><text fill="#000000" font-family="Segoe UI" font-size="10" lengthAdjust="spacing" textLength="175.6885" x="625.8828" y="876.1572">Consulter la reservation concernee</text></g><g class="message" data-entity-1="part4" data-entity-2="part3" data-source-line="90" id="msg22"><polygon fill="#64B5F6" points="571.5332,902.1563,561.5332,906.1563,571.5332,910.1563,567.5332,906.1563" style="stroke:#64B5F6;stroke-width:1;"/><line style="stroke:#64B5F6;stroke-width:1;" x1="565.5332" x2="865.9209" y1="906.1563" y2="906.1563"/><text fill="#000000" font-family="Segoe UI" font-size="10" lengthAdjust="spacing" textLength="274.4873" x="576.4834" y="901.7979">Cliquer "Confirmer reception du paiement en especes"</text></g><g class="message" data-entity-1="part3" data-entity-2="part5" data-source-line="91" id="msg23"><polygon fill="#64B5F6" points="939.4473,939.4375,949.4473,943.4375,939.4473,947.4375,943.4473,943.4375" style="stroke:#64B5F6;stroke-width:1;"/><line style="stroke:#64B5F6;stroke-width:1;" x1="560.5332" x2="945.4473" y1="943.4375" y2="943.4375"/><text fill="#000000" font-family="Segoe UI" font-size="10" lengthAdjust="spacing" textLength="251.4355" x="630.2725" y="927.4385">POST /api/prestataire/requests/{ref}/cash-confirm</text><text fill="#000000" font-family="Segoe UI" font-size="10" lengthAdjust="spacing" textLength="146.2012" x="682.8896" y="939.0791">{prestataire_confirme: True}</text></g><g class="message" data-entity-1="part5" data-entity-2="part6" data-source-line="92" id="msg24"><polygon fill="#64B5F6" points="1363.5449,965.0781,1373.5449,969.0781,1363.5449,973.0781,1367.5449,969.0781" style="stroke:#64B5F6;stroke-width:1;"/><line style="stroke:#64B5F6;stroke-width:1;" x1="951.4473" x2="1369.5449" y1="969.0781" y2="969.0781"/><text fill="#000000" font-family="Segoe UI" font-size="10" lengthAdjust="spacing" textLength="308.2471" x="1009.3726" y="964.7197">UPDATE reservation SET cash_flow_status='PENDING_ADMIN'</text></g><g class="message" data-entity-1="part5" data-entity-2="part7" data-source-line="93" id="msg25"><polygon fill="#64B5F6" points="1465.9131,990.7188,1475.9131,994.7188,1465.9131,998.7188,1469.9131,994.7188" style="stroke:#64B5F6;stroke-width:1;"/><line style="stroke:#64B5F6;stroke-width:1;" x1="951.4473" x2="1471.9131" y1="994.7188" y2="994.7188"/><text fill="#000000" font-family="Segoe UI" font-size="10" lengthAdjust="spacing" textLength="307.2705" x="1061.0449" y="990.3604">[WebSocket/HTMX] Notification "Paiement especes a valider"</text></g><g class="message" data-entity-1="part3" data-entity-2="part4" data-source-line="94" id="msg26"><polygon fill="#64B5F6" points="854.9209,1016.3594,864.9209,1020.3594,854.9209,1024.3594,858.9209,1020.3594" style="stroke:#64B5F6;stroke-width:1;"/><line style="stroke:#64B5F6;stroke-width:1;stroke-dasharray:2,2;" x1="560.5332" x2="860.9209" y1="1020.3594" y2="1020.3594"/><text fill="#000000" font-family="Segoe UI" font-size="10" lengthAdjust="spacing" textLength="282.3877" x="572.5332" y="1016.001">"Paiement en attente de validation par l'administrateur"</text></g><rect fill="#FFFFFF" height="3" style="stroke:#FFFFFF;stroke-width:1;" width="1967.1968" x="5" y="1047.1797"/><line style="stroke:#000000;stroke-width:0.5;" x1="5" x2="1972.1968" y1="1047.1797" y2="1047.1797"/><line style="stroke:#000000;stroke-width:0.5;" x1="5" x2="1972.1968" y1="1050.1797" y2="1050.1797"/><rect fill="#FFFFFF" height="19.6406" style="stroke:#000000;stroke-width:1;" width="276.3633" x="850.4167" y="1038.3594"/><text fill="#000000" font-family="Segoe UI" font-size="10" font-weight="700" lengthAdjust="spacing" textLength="258.8818" x="856.4167" y="1051.6416">Validation finale par l'Admin (securite / litige)</text><g class="message" data-entity-1="part8" data-entity-2="part7" data-source-line="98" id="msg27"><polygon fill="#64B5F6" points="1488.9131,1081.6406,1478.9131,1085.6406,1488.9131,1089.6406,1484.9131,1085.6406" style="stroke:#64B5F6;stroke-width:1;"/><line style="stroke:#64B5F6;stroke-width:1;" x1="1482.9131" x2="1866.8115" y1="1085.6406" y2="1085.6406"/><text fill="#000000" font-family="Segoe UI" font-size="10" lengthAdjust="spacing" textLength="233.4717" x="1556.1265" y="1081.2822">Se connecter au panel admin (session Django)</text></g><g class="message" data-entity-1="part8" data-entity-2="part7" data-source-line="99" id="msg28"><polygon fill="#64B5F6" points="1488.9131,1107.2813,1478.9131,1111.2813,1488.9131,1115.2813,1484.9131,1111.2813" style="stroke:#64B5F6;stroke-width:1;"/><line style="stroke:#64B5F6;stroke-width:1;" x1="1482.9131" x2="1866.8115" y1="1111.2813" y2="1111.2813"/><text fill="#000000" font-family="Segoe UI" font-size="10" lengthAdjust="spacing" textLength="213.9746" x="1565.875" y="1106.9229">Aller dans "Paiements especes en attente"</text></g><g class="message" data-entity-1="part7" data-entity-2="part5" data-source-line="100" id="msg29"><polygon fill="#64B5F6" points="962.4473,1132.9219,952.4473,1136.9219,962.4473,1140.9219,958.4473,1136.9219" style="stroke:#64B5F6;stroke-width:1;"/><line style="stroke:#64B5F6;stroke-width:1;" x1="956.4473" x2="1476.9131" y1="1136.9219" y2="1136.9219"/><text fill="#000000" font-family="Segoe UI" font-size="10" lengthAdjust="spacing" textLength="285.3076" x="1072.0264" y="1132.5635">GET /api/admin/cash-payments?status=PENDING_ADMIN</text></g><g class="message" data-entity-1="part5" data-entity-2="part6" data-source-line="101" id="msg30"><polygon fill="#64B5F6" points="1363.5449,1158.5625,1373.5449,1162.5625,1363.5449,1166.5625,1367.5449,1162.5625" style="stroke:#64B5F6;stroke-width:1;"/><line style="stroke:#64B5F6;stroke-width:1;" x1="951.4473" x2="1369.5449" y1="1162.5625" y2="1162.5625"/><text fill="#000000" font-family="Segoe UI" font-size="10" lengthAdjust="spacing" textLength="364.3506" x="981.3208" y="1158.2041">SELECT * FROM reservation WHERE cash_flow_status='PENDING_ADMIN'</text></g><g class="message" data-entity-1="part6" data-entity-2="part5" data-source-line="102" id="msg31"><polygon fill="#64B5F6" points="962.4473,1184.2031,952.4473,1188.2031,962.4473,1192.2031,958.4473,1188.2031" style="stroke:#64B5F6;stroke-width:1;"/><line style="stroke:#64B5F6;stroke-width:1;stroke-dasharray:2,2;" x1="956.4473" x2="1374.5449" y1="1188.2031" y2="1188.2031"/><text fill="#000000" font-family="Segoe UI" font-size="10" lengthAdjust="spacing" textLength="170.5957" x="1078.1982" y="1183.8447">Liste des reservations concernees</text></g><g class="message" data-entity-1="part5" data-entity-2="part7" data-source-line="103" id="msg32"><polygon fill="#64B5F6" points="1465.9131,1209.8438,1475.9131,1213.8438,1465.9131,1217.8438,1469.9131,1213.8438" style="stroke:#64B5F6;stroke-width:1;"/><line style="stroke:#64B5F6;stroke-width:1;stroke-dasharray:2,2;" x1="951.4473" x2="1471.9131" y1="1213.8438" y2="1213.8438"/><text fill="#000000" font-family="Segoe UI" font-size="10" lengthAdjust="spacing" textLength="119.7021" x="1154.8291" y="1209.4854">HTML table avec details</text></g><g class="message" data-entity-1="part7" data-entity-2="part8" data-source-line="104" id="msg33"><polygon fill="#64B5F6" points="1855.8115,1235.4844,1865.8115,1239.4844,1855.8115,1243.4844,1859.8115,1239.4844" style="stroke:#64B5F6;stroke-width:1;"/><line style="stroke:#64B5F6;stroke-width:1;stroke-dasharray:2,2;" x1="1477.9131" x2="1861.8115" y1="1239.4844" y2="1239.4844"/><text fill="#000000" font-family="Segoe UI" font-size="10" lengthAdjust="spacing" textLength="318.6768" x="1513.5239" y="1235.126">Afficher details (montant, commission, client, prestataire, date)</text></g><g class="message" data-entity-1="part8" data-entity-2="part7" data-source-line="106" id="msg34"><polygon fill="#64B5F6" points="1488.9131,1261.125,1478.9131,1265.125,1488.9131,1269.125,1484.9131,1265.125" style="stroke:#64B5F6;stroke-width:1;"/><line style="stroke:#64B5F6;stroke-width:1;" x1="1482.9131" x2="1866.8115" y1="1265.125" y2="1265.125"/><text fill="#000000" font-family="Segoe UI" font-size="10" lengthAdjust="spacing" textLength="365.8984" x="1489.9131" y="1260.7666">Selectionner une reservation + Verifier (eventuels signalements / litiges)</text></g><g class="message" data-entity-1="part8" data-entity-2="part7" data-source-line="107" id="msg35"><polygon fill="#64B5F6" points="1488.9131,1286.7656,1478.9131,1290.7656,1488.9131,1294.7656,1484.9131,1290.7656" style="stroke:#64B5F6;stroke-width:1;"/><line style="stroke:#64B5F6;stroke-width:1;" x1="1482.9131" x2="1866.8115" y1="1290.7656" y2="1290.7656"/><text fill="#000000" font-family="Segoe UI" font-size="10" lengthAdjust="spacing" textLength="145.8496" x="1599.9375" y="1286.4072">Cliquer "Valider le paiement"</text></g><path d="M897.2427,1305.7656 L957.1987,1305.7656 L957.1987,1309.4063 L947.1987,1319.4063 L897.2427,1319.4063 L897.2427,1305.7656" fill="#E3F2FD" style="stroke:#42A5F5;stroke-width:1;"/><rect fill="none" height="281.3281" style="stroke:#42A5F5;stroke-width:1;" width="1064.9541" x="897.2427" y="1305.7656"/><text fill="#01579B" font-family="Segoe UI" font-size="10" font-weight="700" lengthAdjust="spacing" textLength="14.9561" x="912.2427" y="1316.0479">alt</text><text fill="#01579B" font-family="Segoe UI" font-size="10" font-weight="700" lengthAdjust="spacing" textLength="100.0732" x="972.1987" y="1317.0479">[Paiement valide]</text><g class="message" data-entity-1="part7" data-entity-2="part5" data-source-line="110" id="msg36"><polygon fill="#64B5F6" points="962.4473,1344.6875,952.4473,1348.6875,962.4473,1352.6875,958.4473,1348.6875" style="stroke:#64B5F6;stroke-width:1;"/><line style="stroke:#64B5F6;stroke-width:1;" x1="956.4473" x2="1476.9131" y1="1348.6875" y2="1348.6875"/><text fill="#000000" font-family="Segoe UI" font-size="10" lengthAdjust="spacing" textLength="248.5596" x="1090.4004" y="1332.6885">POST /api/admin/reservations/{ref}/cash-validate</text><text fill="#000000" font-family="Segoe UI" font-size="10" lengthAdjust="spacing" textLength="106.8701" x="1161.2451" y="1344.3291">{status: VALIDATED}</text></g><g class="message" data-entity-1="part5" data-entity-2="part6" data-source-line="111" id="msg37"><polygon fill="#64B5F6" points="1363.5449,1370.3281,1373.5449,1374.3281,1363.5449,1378.3281,1367.5449,1374.3281" style="stroke:#64B5F6;stroke-width:1;"/><line style="stroke:#64B5F6;stroke-width:1;" x1="951.4473" x2="1369.5449" y1="1374.3281" y2="1374.3281"/><text fill="#000000" font-family="Segoe UI" font-size="10" lengthAdjust="spacing" textLength="280.8105" x="1023.0908" y="1369.9697">UPDATE reservation SET cash_flow_status='VALIDATED'</text></g><g class="message" data-entity-1="part5" data-entity-2="part6" data-source-line="112" id="msg38"><polygon fill="#64B5F6" points="1363.5449,1395.9688,1373.5449,1399.9688,1363.5449,1403.9688,1367.5449,1399.9688" style="stroke:#64B5F6;stroke-width:1;"/><line style="stroke:#64B5F6;stroke-width:1;" x1="951.4473" x2="1369.5449" y1="1399.9688" y2="1399.9688"/><text fill="#000000" font-family="Segoe UI" font-size="10" lengthAdjust="spacing" textLength="342.915" x="992.0386" y="1395.6104">INSERT INTO payment (montant: ..., commission: ..., type: ESPECES)</text></g><g class="message" data-entity-1="part5" data-entity-2="part9" data-source-line="113" id="msg39"><polygon fill="#64B5F6" points="1912.5156,1421.6094,1922.5156,1425.6094,1912.5156,1429.6094,1916.5156,1425.6094" style="stroke:#64B5F6;stroke-width:1;"/><line style="stroke:#64B5F6;stroke-width:1;" x1="951.4473" x2="1918.5156" y1="1425.6094" y2="1425.6094"/><text fill="#000000" font-family="Segoe UI" font-size="10" lengthAdjust="spacing" textLength="318.8525" x="1278.5552" y="1421.251">Push "Paiement en especes valide - Vos gains sont disponibles"</text></g><g class="message" data-entity-1="part7" data-entity-2="part8" data-source-line="114" id="msg40"><polygon fill="#64B5F6" points="1855.8115,1447.25,1865.8115,1451.25,1855.8115,1455.25,1859.8115,1451.25" style="stroke:#64B5F6;stroke-width:1;"/><line style="stroke:#64B5F6;stroke-width:1;stroke-dasharray:2,2;" x1="1477.9131" x2="1861.8115" y1="1451.25" y2="1451.25"/><text fill="#000000" font-family="Segoe UI" font-size="10" lengthAdjust="spacing" textLength="153.6816" x="1596.0215" y="1446.8916">"Paiement valide avec succes"</text></g><line style="stroke:#42A5F5;stroke-width:1;stroke-dasharray:2,2;" x1="897.2427" x2="1962.1968" y1="1460.25" y2="1460.25"/><text fill="#01579B" font-family="Segoe UI" font-size="10" font-weight="700" lengthAdjust="spacing" textLength="127.1924" x="902.2427" y="1469.5322">[Litige ou refus (rare)]</text><g class="message" data-entity-1="part7" data-entity-2="part5" data-source-line="116" id="msg41"><polygon fill="#64B5F6" points="962.4473,1498.1719,952.4473,1502.1719,962.4473,1506.1719,958.4473,1502.1719" style="stroke:#64B5F6;stroke-width:1;"/><line style="stroke:#64B5F6;stroke-width:1;" x1="956.4473" x2="1476.9131" y1="1502.1719" y2="1502.1719"/><text fill="#000000" font-family="Segoe UI" font-size="10" lengthAdjust="spacing" textLength="248.5596" x="1090.4004" y="1486.1729">POST /api/admin/reservations/{ref}/cash-validate</text><text fill="#000000" font-family="Segoe UI" font-size="10" lengthAdjust="spacing" textLength="145.2246" x="1142.0679" y="1497.8135">{status: REFUSED, motif: ...}</text></g><g class="message" data-entity-1="part5" data-entity-2="part6" data-source-line="117" id="msg42"><polygon fill="#64B5F6" points="1363.5449,1523.8125,1373.5449,1527.8125,1363.5449,1531.8125,1367.5449,1527.8125" style="stroke:#64B5F6;stroke-width:1;"/><line style="stroke:#64B5F6;stroke-width:1;" x1="951.4473" x2="1369.5449" y1="1527.8125" y2="1527.8125"/><text fill="#000000" font-family="Segoe UI" font-size="10" lengthAdjust="spacing" textLength="270.6445" x="1028.1738" y="1523.4541">UPDATE reservation SET cash_flow_status='REFUSED'</text></g><g class="message" data-entity-1="part5" data-entity-2="part9" data-source-line="118" id="msg43"><polygon fill="#64B5F6" points="1912.5156,1549.4531,1922.5156,1553.4531,1912.5156,1557.4531,1916.5156,1553.4531" style="stroke:#64B5F6;stroke-width:1;"/><line style="stroke:#64B5F6;stroke-width:1;" x1="951.4473" x2="1918.5156" y1="1553.4531" y2="1553.4531"/><text fill="#000000" font-family="Segoe UI" font-size="10" lengthAdjust="spacing" textLength="256.2598" x="1309.8516" y="1549.0947">Push "Probleme signale avec le paiement especes"</text></g><g class="message" data-entity-1="part7" data-entity-2="part8" data-source-line="119" id="msg44"><polygon fill="#64B5F6" points="1855.8115,1575.0938,1865.8115,1579.0938,1855.8115,1583.0938,1859.8115,1579.0938" style="stroke:#64B5F6;stroke-width:1;"/><line style="stroke:#64B5F6;stroke-width:1;stroke-dasharray:2,2;" x1="1477.9131" x2="1861.8115" y1="1579.0938" y2="1579.0938"/><text fill="#000000" font-family="Segoe UI" font-size="10" lengthAdjust="spacing" textLength="91.1035" x="1627.3105" y="1574.7354">"Paiement refuse"</text></g><?plantuml-src hLTjSzD64FwkNx5rFpWE3W5AO9APq95j6TmwZckRGATqF1TvxHp8ahYJp02J_zwz5qadnoOjvGD4kTlRlNsUPtSlFsKtk4P88yPZpvCVU9momTPmpS8FAv7ayQARH8c0duDV-a_wFST2uiSSun0lK4gsGZ_YgnX2Z3CKZjK2booFiduIPoD6WQQuIX1U3tQRJFaNXCUFdCsCPn5MMqztRTaRFdfyyloquoP1_sSyv2cBC_Zg0NIsa-fqUa6_etOIiK1XLn-VFd_MUqAhTvtVkkvPcD7MJiUdZxf-__Hx7HVG-a8adtG0Q_piQUUa_sotyP0lwL-Cva9ksATF_9F-oQvhMb9t-dj9XkdkxEonVM7kPWVm2XbPxYV0xD-3Ivna-8DkH7wrVk3miEDt1lt1syD3E29vckJX3CQCKsMGSZ26GAOOeeI3AnRn1Sju4aCcU1fXo_EC31hTY9Dr0vW4y-cvycluQGesqhlum5Yqj3Njt7C0nY8fJEcpY3WMA3EMCIvGxpg_rrtrthDubO0_7b3eIJ2TsS3ZWKV9i6icaRmbCbi9dFunr9kzJjt7cCKOWRzOyvYSM8yFuDNiugtnfWsAgsax4qHzUTxvEKnGejWOyDW6GqXI_Ls0UtxkUGO8E7fHeK9KT6yIBhc0r2Ie3c46GlkZRbEP7j71yfI_NFBm1eMD8wdHK4SmfEu9DCK8GsKSeyANVQOVH3_Q6yfSg4uPOiED-K81gGHpEPt1CKlvSQXtZaMLi7mNVttuy66RBl1PnPzddrCyWs0w3hh1j0qghJoZXT7Sdys2qIouzPHNSjxhaE_1Q1fCPlHZTWcEMpWm1y-RrS5c6q8cR-RBAFaqrzlol3cw7Ct7_fz1i-MHlwFopgulWKiKIlmcyXOqBdkXGCHzi3Tgbacyv6ADIBLL5XJHkCbTN1b439OyLWpHLqLpGmjdxD2-N191ET6YrABxGK8IiD7RRWdGLOPO-D8Bf7BARm4aYYz0fMzeCbAYkfPRmJtFzMRWeEeZlnTCV5HtY9fSZRiDUJ79hcd2qG8ftk2Zp7VemxaKYOHSoKmUVoNyRu_91tML34alXIPcmUHYCDeInEjnpvy5DVwcmGmAETWppJhRbx-NbwArEbOD1-KY1GD_3yE8sg_USKf8JLU5eYL-V_LUvXj1nKlOkhSjOTfJyX7N43T-QpAkgWOTmVptyYlGfS8uMkXy5CB6SAuo8fX5ZlyAuxlLDGv6lS7evNoiUgi_ymSJGjvwwdSlrELoUJDACauToQQVrAJP69PoP60lI4qoKKtl6xdNwgwih-By4GJKQRDClSaKSxOOpGKiUyub3DjTrsYXAYR4r3tXoaQHlgz89dHG9n2xUQS4nDuZ55lIIn3lY8Lk7g9GQjbxjD2BlJzzLZTVv9Lgjv3yZWfL6h9GaeOSotdHxNw8cFmULN0f8pD-p-2lDtWzJS8Fc1shqVitr5HLQQ1ghHlrP47H-5RfE-0uUjbKZntDVPEfMSvbHiq0Ss7quho8g8Cp9Ibjg-S-pISCSy79tp54FEChR6dHc5qdhwcMPqpDdPXZYY-rpWedKge0vjNHkdlQZo8wjc0qvCjaP8b1bLN3CoTAnby6bd0ToN1hHxJyrJ9I8wJ6wJGO1jqP749_SdbHe_RDgs0It4zkhJiF2Lc5ktGzoKhxifpBHTgaW27G-or2yw1Q854QoI99vLaZvRo5h0aShEb9pDJ8L5EBQtpRjWMrtQxG9bWpzSpTGPdpMCfZh07m0AvGa31fwm3LWCoHeahw6v4aOkWf525t45gMyvLHhsvLbbZI7OkowZbX14wlV80jTgjwDlJkcmXMwENGbMTmvGy7gc1xjzhnTrLowQDvnuVxdhDwAoav0_rIh7Yn2xKdOyjrMSsOUYqN1M0GedbmbKXOqL_wn4IY1WMNQH9pqWyrGmS_HpYDBPYDq6GUwWPAd2BfLh48IQvUa3b9Iz3mQVrWFYP1__KqwBLXhVgTHkH_C6EzDVU2A99h9TD2i2PhHuFL3BaFDeq9DHvwUFu3?></g></svg>