<svg xmlns="http://www.w3.org/2000/svg" xmlns:xlink="http://www.w3.org/1999/xlink" contentStyleType="text/css" data-diagram-type="ACTIVITY" height="2252px" preserveAspectRatio="none" style="width:883px;height:2252px;background:#E3F2FD;" version="1.1" viewBox="0 0 883 2252" width="883px" zoomAndPan="magnify"><?plantuml 1.2026.3beta6?><defs/><g><rect fill="#E3F2FD" height="2252" style="stroke:none;stroke-width:1;" width="883" x="0" y="0"/><g class="title" data-source-line="39"><text fill="#01579B" font-family="Segoe UI" font-size="14" font-weight="700" lengthAdjust="spacing" textLength="94.6094" x="150.3625" y="27.9951">BABIFIX Pro</text><text fill="#01579B" font-family="Segoe UI" font-size="14" font-weight="700" lengthAdjust="spacing" textLength="481.1748" x="249.8459" y="27.9951">- Diagramme d'Activite : Inscription et Validation Prestataire</text></g><rect fill="#E3F2FD" height="163.4141" style="stroke:#42A5F5;stroke-width:1;" width="226.2427" x="309.0189" y="48.2969"/><path d="M368.4867,48.2969 L368.4867,54.1016 L358.4867,64.1016 L309.0189,64.1016" fill="none" style="stroke:#42A5F5;stroke-width:1;"/><text fill="#01579B" font-family="Segoe UI" font-size="11" lengthAdjust="spacing" textLength="49.4678" x="312.0189" y="59.5073">Candidat</text><ellipse cx="422.1403" cy="84.1016" fill="#FFFFFF" rx="10" ry="10" style="stroke:#000000;stroke-width:1;"/><rect fill="#BBDEFB" height="32.8047" rx="12.5" ry="12.5" style="stroke:#1976D2;stroke-width:1;" width="206.2427" x="319.0189" y="114.1016"/><text fill="#01579B" font-family="Segoe UI" font-size="11" lengthAdjust="spacing" textLength="186.2427" x="329.0189" y="134.312">Ouvrir ou telecharger BABIFIX Pro</text><rect fill="#BBDEFB" height="32.8047" rx="12.5" ry="12.5" style="stroke:#1976D2;stroke-width:1;" width="179.6719" x="332.3043" y="166.9063"/><text fill="#01579B" font-family="Segoe UI" font-size="11" lengthAdjust="spacing" textLength="159.6719" x="342.3043" y="187.1167">Cliquer "Devenir prestataire"</text><rect fill="#E3F2FD" height="341.6328" style="stroke:#42A5F5;stroke-width:1;" width="271.6016" x="286.3395" y="221.7109"/><path d="M355.7491,221.7109 L355.7491,227.5156 L345.7491,237.5156 L286.3395,237.5156" fill="none" style="stroke:#42A5F5;stroke-width:1;"/><text fill="#01579B" font-family="Segoe UI" font-size="11" lengthAdjust="spacing" textLength="59.4097" x="289.3395" y="232.9214">Formulaire</text><rect fill="#BBDEFB" height="32.8047" rx="12.5" ry="12.5" style="stroke:#1976D2;stroke-width:1;" width="140.3394" x="351.9706" y="254.5156"/><text fill="#01579B" font-family="Segoe UI" font-size="11" lengthAdjust="spacing" textLength="120.3394" x="361.9706" y="274.7261">Remplir nom, prenom</text><rect fill="#BBDEFB" height="32.8047" rx="12.5" ry="12.5" style="stroke:#1976D2;stroke-width:1;" width="96.5757" x="373.8524" y="307.3203"/><text fill="#01579B" font-family="Segoe UI" font-size="11" lengthAdjust="spacing" textLength="76.5757" x="383.8524" y="327.5308">Remplir email</text><rect fill="#BBDEFB" height="32.8047" rx="12.5" ry="12.5" style="stroke:#1976D2;stroke-width:1;" width="184.9893" x="329.6456" y="360.125"/><text fill="#01579B" font-family="Segoe UI" font-size="11" lengthAdjust="spacing" textLength="164.9893" x="339.6456" y="380.3354">Remplir numero de telephone</text><rect fill="#BBDEFB" height="32.8047" rx="12.5" ry="12.5" style="stroke:#1976D2;stroke-width:1;" width="202.6494" x="320.8156" y="412.9297"/><text fill="#01579B" font-family="Segoe UI" font-size="11" lengthAdjust="spacing" textLength="182.6494" x="330.8156" y="433.1401">Selectionner specialite principale</text><rect fill="#BBDEFB" height="32.8047" rx="12.5" ry="12.5" style="stroke:#1976D2;stroke-width:1;" width="214.9814" x="314.6495" y="465.7344"/><text fill="#01579B" font-family="Segoe UI" font-size="11" lengthAdjust="spacing" textLength="194.9814" x="324.6495" y="485.9448">Rediger description de ses services</text><rect fill="#BBDEFB" height="32.8047" rx="12.5" ry="12.5" style="stroke:#1976D2;stroke-width:1;" width="251.6016" x="296.3395" y="518.5391"/><text fill="#01579B" font-family="Segoe UI" font-size="11" lengthAdjust="spacing" textLength="231.6016" x="306.3395" y="538.7495">Choisir categories de services concernees</text><rect fill="#E3F2FD" height="183.2188" style="stroke:#42A5F5;stroke-width:1;" width="298.0059" x="273.1373" y="573.3438"/><path d="M332.6051,573.3438 L332.6051,579.1484 L322.6051,589.1484 L273.1373,589.1484" fill="none" style="stroke:#42A5F5;stroke-width:1;"/><text fill="#01579B" font-family="Segoe UI" font-size="11" lengthAdjust="spacing" textLength="49.4678" x="276.1373" y="584.5542">Candidat</text><rect fill="#BBDEFB" height="32.8047" rx="12.5" ry="12.5" style="stroke:#1976D2;stroke-width:1;" width="278.0059" x="283.1373" y="606.1484"/><text fill="#01579B" font-family="Segoe UI" font-size="11" lengthAdjust="spacing" textLength="258.0059" x="293.1373" y="626.3589">Photographier ou uploader la CNI (recto-verso)</text><rect fill="#BBDEFB" height="32.8047" rx="12.5" ry="12.5" style="stroke:#1976D2;stroke-width:1;" width="259.2124" x="292.5341" y="658.9531"/><text fill="#01579B" font-family="Segoe UI" font-size="11" lengthAdjust="spacing" textLength="239.2124" x="302.5341" y="679.1636">Cocher "J'accepte les conditions generales"</text><rect fill="#BBDEFB" height="32.8047" rx="12.5" ry="12.5" style="stroke:#1976D2;stroke-width:1;" width="203.3638" x="320.4584" y="711.7578"/><text fill="#01579B" font-family="Segoe UI" font-size="11" lengthAdjust="spacing" textLength="183.3638" x="330.4584" y="731.9683">Valider le formulaire d'inscription</text><rect fill="#E3F2FD" height="351.2656" style="stroke:#42A5F5;stroke-width:1;" width="361.75" x="241.2653" y="766.5625"/><path d="M299.0519,766.5625 L299.0519,772.3672 L289.0519,782.3672 L241.2653,782.3672" fill="none" style="stroke:#42A5F5;stroke-width:1;"/><text fill="#01579B" font-family="Segoe UI" font-size="11" lengthAdjust="spacing" textLength="47.7866" x="244.2653" y="777.7729">Systeme</text><rect fill="#BBDEFB" height="45.6094" rx="12.5" ry="12.5" style="stroke:#1976D2;stroke-width:1;" width="191.7837" x="326.2484" y="799.3672"/><text fill="#01579B" font-family="Segoe UI" font-size="11" lengthAdjust="spacing" textLength="171.7837" x="336.2484" y="819.5776">Creer le compte via API Django</text><text fill="#01579B" font-family="Segoe UI" font-size="11" lengthAdjust="spacing" textLength="136.6299" x="336.2484" y="832.3823">(POST /api/auth/register)</text><rect fill="#BBDEFB" height="32.8047" rx="12.5" ry="12.5" style="stroke:#1976D2;stroke-width:1;" width="244.3828" x="299.9489" y="864.9766"/><text fill="#01579B" font-family="Segoe UI" font-size="11" lengthAdjust="spacing" textLength="224.3828" x="309.9489" y="885.187">Uploader la photo CNI vers MEDIA_ROOT</text><rect fill="#BBDEFB" height="135.2422" rx="12.5" ry="12.5" style="stroke:#1976D2;stroke-width:1;" width="311.6504" x="266.3151" y="917.7813"/><text fill="#01579B" font-family="Segoe UI" font-size="11" lengthAdjust="spacing" textLength="291.6504" x="276.3151" y="937.9917">Creer entree dans provider table (role: "prestataire")</text><text fill="#01579B" font-family="Segoe UI" font-size="11" lengthAdjust="spacing" textLength="3.4966" x="276.3151" y="950.7964">&#160;</text><text fill="#01579B" font-family="Segoe UI" font-size="11" lengthAdjust="spacing" textLength="54.1245" x="276.3151" y="963.6011">note right</text><text fill="#01579B" font-family="Segoe UI" font-size="11" lengthAdjust="spacing" textLength="135.3516" x="283.3082" y="976.4058">user.role = "prestataire"</text><text fill="#01579B" font-family="Segoe UI" font-size="11" lengthAdjust="spacing" textLength="178.7715" x="283.3082" y="989.2104">provider.statut = "EN_ATTENTE"</text><text fill="#01579B" font-family="Segoe UI" font-size="11" lengthAdjust="spacing" textLength="184.8032" x="283.3082" y="1002.0151">provider.date_inscription = now()</text><text fill="#01579B" font-family="Segoe UI" font-size="11" lengthAdjust="spacing" textLength="49.0005" x="276.3151" y="1014.8198">end note</text><text fill="#01579B" font-family="Segoe UI" font-size="11" lengthAdjust="spacing" textLength="3.4966" x="276.3151" y="1027.6245">&#160;</text><text fill="#01579B" font-family="Segoe UI" font-size="11" lengthAdjust="spacing" textLength="275.2202" x="276.3151" y="1040.4292">:Creer entree dans provider (statut: EN_ATTENTE)</text><rect fill="#BBDEFB" height="32.8047" rx="12.5" ry="12.5" style="stroke:#1976D2;stroke-width:1;" width="341.75" x="251.2653" y="1073.0234"/><text fill="#01579B" font-family="Segoe UI" font-size="11" lengthAdjust="spacing" textLength="321.75" x="261.2653" y="1093.2339">Notifier les administrateurs (WebSocket/HTMX dashboard)</text><rect fill="#E3F2FD" height="130.4141" style="stroke:#42A5F5;stroke-width:1;" width="400.7979" x="221.7413" y="1127.8281"/><path d="M281.2091,1127.8281 L281.2091,1133.6328 L271.2091,1143.6328 L221.7413,1143.6328" fill="none" style="stroke:#42A5F5;stroke-width:1;"/><text fill="#01579B" font-family="Segoe UI" font-size="11" lengthAdjust="spacing" textLength="49.4678" x="224.7413" y="1139.0386">Candidat</text><rect fill="#BBDEFB" height="32.8047" rx="12.5" ry="12.5" style="stroke:#1976D2;stroke-width:1;" width="380.7979" x="231.7413" y="1160.6328"/><text fill="#01579B" font-family="Segoe UI" font-size="11" lengthAdjust="spacing" textLength="360.7979" x="241.7413" y="1180.8433">Afficher message "Inscription envoyee - En attente de validation"</text><rect fill="#BBDEFB" height="32.8047" rx="12.5" ry="12.5" style="stroke:#1976D2;stroke-width:1;" width="237.1318" x="303.5743" y="1213.4375"/><text fill="#01579B" font-family="Segoe UI" font-size="11" lengthAdjust="spacing" textLength="217.1318" x="313.5743" y="1233.6479">Peut consulter le statut de sa demande</text><rect fill="#E3F2FD" height="183.2188" style="stroke:#42A5F5;stroke-width:1;" width="357.5552" x="243.3627" y="1268.2422"/><path d="M288.6132,1268.2422 L288.6132,1274.0469 L278.6132,1284.0469 L243.3627,1284.0469" fill="none" style="stroke:#42A5F5;stroke-width:1;"/><text fill="#01579B" font-family="Segoe UI" font-size="11" lengthAdjust="spacing" textLength="35.2505" x="246.3627" y="1279.4526">Admin</text><rect fill="#BBDEFB" height="32.8047" rx="12.5" ry="12.5" style="stroke:#1976D2;stroke-width:1;" width="239.377" x="302.4518" y="1301.0469"/><text fill="#01579B" font-family="Segoe UI" font-size="11" lengthAdjust="spacing" textLength="219.377" x="312.4518" y="1321.2573">Recevoir notification (dashboard HTMX)</text><rect fill="#BBDEFB" height="32.8047" rx="12.5" ry="12.5" style="stroke:#1976D2;stroke-width:1;" width="277.2539" x="283.5133" y="1353.8516"/><text fill="#01579B" font-family="Segoe UI" font-size="11" lengthAdjust="spacing" textLength="257.2539" x="293.5133" y="1374.062">Se connecter au Panel Admin (session Django)</text><rect fill="#BBDEFB" height="32.8047" rx="12.5" ry="12.5" style="stroke:#1976D2;stroke-width:1;" width="337.5552" x="253.3627" y="1406.6563"/><text fill="#01579B" font-family="Segoe UI" font-size="11" lengthAdjust="spacing" textLength="317.5552" x="263.3627" y="1426.8667">Acceder a la liste "Prestataires en attente (EN_ATTENTE)"</text><rect fill="#E3F2FD" height="183.2188" style="stroke:#42A5F5;stroke-width:1;" width="276.9619" x="283.6593" y="1461.4609"/><path d="M328.9098,1461.4609 L328.9098,1467.2656 L318.9098,1477.2656 L283.6593,1477.2656" fill="none" style="stroke:#42A5F5;stroke-width:1;"/><text fill="#01579B" font-family="Segoe UI" font-size="11" lengthAdjust="spacing" textLength="35.2505" x="286.6593" y="1472.6714">Admin</text><rect fill="#BBDEFB" height="32.8047" rx="12.5" ry="12.5" style="stroke:#1976D2;stroke-width:1;" width="179.3604" x="332.4601" y="1494.2656"/><text fill="#01579B" font-family="Segoe UI" font-size="11" lengthAdjust="spacing" textLength="159.3604" x="342.4601" y="1514.4761">Ouvrir le dossier du candidat</text><rect fill="#BBDEFB" height="32.8047" rx="12.5" ry="12.5" style="stroke:#1976D2;stroke-width:1;" width="256.9619" x="293.6593" y="1547.0703"/><text fill="#01579B" font-family="Segoe UI" font-size="11" lengthAdjust="spacing" textLength="236.9619" x="303.6593" y="1567.2808">Visualiser photo CNI + informations saisies</text><rect fill="#BBDEFB" height="32.8047" rx="12.5" ry="12.5" style="stroke:#1976D2;stroke-width:1;" width="205.5444" x="319.368" y="1599.875"/><text fill="#01579B" font-family="Segoe UI" font-size="11" lengthAdjust="spacing" textLength="185.5444" x="329.368" y="1620.0854">Verifier coherence et authenticite</text><polygon fill="#E3F2FD" points="339.9437,1664.6797,504.3368,1664.6797,516.3368,1676.6797,504.3368,1688.6797,339.9437,1688.6797,327.9437,1676.6797,339.9437,1664.6797" style="stroke:#42A5F5;stroke-width:1;"/><text fill="#01579B" font-family="Segoe UI" font-size="11" lengthAdjust="spacing" textLength="164.3931" x="339.9437" y="1680.4878">Decision de l'administrateur ?</text><text fill="#000000" font-family="Segoe UI" font-size="11" lengthAdjust="spacing" textLength="38.6504" x="289.2933" y="1674.0854">Valider</text><text fill="#000000" font-family="Segoe UI" font-size="11" lengthAdjust="spacing" textLength="42.2759" x="516.3368" y="1674.0854">Refuser</text><rect fill="#E3F2FD" height="77.6094" style="stroke:#42A5F5;stroke-width:1;" width="131.3032" x="137.1428" y="1698.6797"/><path d="M182.3933,1698.6797 L182.3933,1704.4844 L172.3933,1714.4844 L137.1428,1714.4844" fill="none" style="stroke:#42A5F5;stroke-width:1;"/><text fill="#01579B" font-family="Segoe UI" font-size="11" lengthAdjust="spacing" textLength="35.2505" x="140.1428" y="1709.8901">Admin</text><rect fill="#BBDEFB" height="32.8047" rx="12.5" ry="12.5" style="stroke:#1976D2;stroke-width:1;" width="111.3032" x="147.1428" y="1731.4844"/><text fill="#01579B" font-family="Segoe UI" font-size="11" lengthAdjust="spacing" textLength="91.3032" x="157.1428" y="1751.6948">Cliquer "Valider"</text><rect fill="#E3F2FD" height="158.2188" style="stroke:#42A5F5;stroke-width:1;" width="383.5889" x="11" y="1811.2891"/><path d="M68.7866,1811.2891 L68.7866,1817.0938 L58.7866,1827.0938 L11,1827.0938" fill="none" style="stroke:#42A5F5;stroke-width:1;"/><text fill="#01579B" font-family="Segoe UI" font-size="11" lengthAdjust="spacing" textLength="47.7866" x="14" y="1822.4995">Systeme</text><rect fill="#BBDEFB" height="32.8047" rx="12.5" ry="12.5" style="stroke:#1976D2;stroke-width:1;" width="363.5889" x="21" y="1844.0938"/><text fill="#01579B" font-family="Segoe UI" font-size="11" lengthAdjust="spacing" textLength="343.5889" x="31" y="1864.3042">Mettre a jour provider SET is_approved=True, statut='VALIDE'</text><rect fill="#BBDEFB" height="45.6094" rx="12.5" ry="12.5" style="stroke:#1976D2;stroke-width:1;" width="239.5166" x="83.0361" y="1911.8984"/><text fill="#01579B" font-family="Segoe UI" font-size="11" lengthAdjust="spacing" textLength="218.4746" x="93.0361" y="1932.1089">Envoyer notification FCM au prestataire</text><text fill="#01579B" font-family="Segoe UI" font-size="11" lengthAdjust="spacing" textLength="219.5166" x="93.0361" y="1944.9136">"Felicitations ! Votre compte est valide"</text><rect fill="#E3F2FD" height="191.2188" style="stroke:#42A5F5;stroke-width:1;" width="329.9907" x="37.7991" y="1979.5078"/><path d="M97.2668,1979.5078 L97.2668,1985.3125 L87.2668,1995.3125 L37.7991,1995.3125" fill="none" style="stroke:#42A5F5;stroke-width:1;"/><text fill="#01579B" font-family="Segoe UI" font-size="11" lengthAdjust="spacing" textLength="49.4678" x="40.7991" y="1990.7183">Candidat</text><rect fill="#BBDEFB" height="32.8047" rx="12.5" ry="12.5" style="stroke:#1976D2;stroke-width:1;" width="163.5532" x="121.0178" y="2012.3125"/><text fill="#01579B" font-family="Segoe UI" font-size="11" lengthAdjust="spacing" textLength="143.5532" x="131.0178" y="2032.5229">Recevoir notification push</text><rect fill="#BBDEFB" height="32.8047" rx="12.5" ry="12.5" style="stroke:#1976D2;stroke-width:1;" width="170.4712" x="117.5588" y="2065.1172"/><text fill="#01579B" font-family="Segoe UI" font-size="11" lengthAdjust="spacing" textLength="150.4712" x="127.5588" y="2085.3276">Se connecter a BABIFIX Pro</text><rect fill="#BBDEFB" height="32.8047" rx="12.5" ry="12.5" style="stroke:#1976D2;stroke-width:1;" width="309.9907" x="47.7991" y="2117.9219"/><text fill="#01579B" font-family="Segoe UI" font-size="11" lengthAdjust="spacing" textLength="289.9907" x="57.7991" y="2138.1323">Acceder a l'ensemble des fonctionnalites prestataire</text><ellipse cx="202.7944" cy="2213.7266" fill="none" rx="11" ry="11" style="stroke:#000000;stroke-width:1;"/><ellipse cx="202.7944" cy="2213.7266" fill="#FFFFFF" rx="6" ry="6" style="stroke:#000000;stroke-width:1;"/><rect fill="#E3F2FD" height="145.4141" style="stroke:#42A5F5;stroke-width:1;" width="213.3145" x="534.8289" y="1698.6797"/><path d="M580.0793,1698.6797 L580.0793,1704.4844 L570.0793,1714.4844 L534.8289,1714.4844" fill="none" style="stroke:#42A5F5;stroke-width:1;"/><text fill="#01579B" font-family="Segoe UI" font-size="11" lengthAdjust="spacing" textLength="35.2505" x="537.8289" y="1709.8901">Admin</text><rect fill="#BBDEFB" height="32.8047" rx="12.5" ry="12.5" style="stroke:#1976D2;stroke-width:1;" width="193.3145" x="544.8289" y="1731.4844"/><text fill="#01579B" font-family="Segoe UI" font-size="11" lengthAdjust="spacing" textLength="173.3145" x="554.8289" y="1751.6948">Saisir motif de refus obligatoire</text><rect fill="#BBDEFB" height="32.8047" rx="12.5" ry="12.5" style="stroke:#1976D2;stroke-width:1;" width="114.9287" x="584.0217" y="1791.2891"/><text fill="#01579B" font-family="Segoe UI" font-size="11" lengthAdjust="spacing" textLength="94.9287" x="594.0217" y="1811.4995">Cliquer "Refuser"</text><rect fill="#E3F2FD" height="90.4141" style="stroke:#42A5F5;stroke-width:1;" width="453.7944" x="414.5889" y="1879.0938"/><path d="M472.3755,1879.0938 L472.3755,1884.8984 L462.3755,1894.8984 L414.5889,1894.8984" fill="none" style="stroke:#42A5F5;stroke-width:1;"/><text fill="#01579B" font-family="Segoe UI" font-size="11" lengthAdjust="spacing" textLength="47.7866" x="417.5889" y="1890.3042">Systeme</text><rect fill="#BBDEFB" height="45.6094" rx="12.5" ry="12.5" style="stroke:#1976D2;stroke-width:1;" width="433.7944" x="424.5889" y="1911.8984"/><text fill="#01579B" font-family="Segoe UI" font-size="11" lengthAdjust="spacing" textLength="346.2798" x="434.5889" y="1932.1089">Mettre a jour provider SET statut='REFUSE', refusal_reason=...</text><text fill="#01579B" font-family="Segoe UI" font-size="11" lengthAdjust="spacing" textLength="413.7944" x="434.5889" y="1944.9136">:Envoyer notification FCM au candidat\n"Demande refusee - Motif: [detail]"</text><rect fill="#E3F2FD" height="203.2188" style="stroke:#42A5F5;stroke-width:1;" width="295.3096" x="493.8313" y="1979.5078"/><path d="M553.2991,1979.5078 L553.2991,1985.3125 L543.2991,1995.3125 L493.8313,1995.3125" fill="none" style="stroke:#42A5F5;stroke-width:1;"/><text fill="#01579B" font-family="Segoe UI" font-size="11" lengthAdjust="spacing" textLength="49.4678" x="496.8313" y="1990.7183">Candidat</text><rect fill="#BBDEFB" height="32.8047" rx="12.5" ry="12.5" style="stroke:#1976D2;stroke-width:1;" width="163.5532" x="559.7095" y="2012.3125"/><text fill="#01579B" font-family="Segoe UI" font-size="11" lengthAdjust="spacing" textLength="143.5532" x="569.7095" y="2032.5229">Recevoir notification push</text><rect fill="#BBDEFB" height="32.8047" rx="12.5" ry="12.5" style="stroke:#1976D2;stroke-width:1;" width="267.0327" x="507.9697" y="2065.1172"/><text fill="#01579B" font-family="Segoe UI" font-size="11" lengthAdjust="spacing" textLength="247.0327" x="517.9697" y="2085.3276">Consulter le motif de refus dans l'application</text><rect fill="#BBDEFB" height="45.6094" rx="12.5" ry="12.5" style="stroke:#1976D2;stroke-width:1;" width="275.3096" x="503.8313" y="2117.9219"/><text fill="#01579B" font-family="Segoe UI" font-size="11" lengthAdjust="spacing" textLength="255.3096" x="513.8313" y="2138.1323">Possibilite de corriger et soumettre a nouveau</text><text fill="#01579B" font-family="Segoe UI" font-size="11" lengthAdjust="spacing" textLength="241.3447" x="513.8313" y="2150.937">(nouvelle inscription ou mise a jour dossier)</text><ellipse cx="641.4861" cy="2226.5313" fill="none" rx="11" ry="11" style="stroke:#000000;stroke-width:1;"/><ellipse cx="641.4861" cy="2226.5313" fill="#FFFFFF" rx="6" ry="6" style="stroke:#000000;stroke-width:1;"/><line style="stroke:#64B5F6;stroke-width:1;" x1="422.1403" x2="422.1403" y1="94.1016" y2="114.1016"/><polygon fill="#64B5F6" points="418.1403,104.1016,422.1403,114.1016,426.1403,104.1016,422.1403,108.1016" style="stroke:#64B5F6;stroke-width:1;"/><line style="stroke:#64B5F6;stroke-width:1;" x1="422.1403" x2="422.1403" y1="146.9063" y2="166.9063"/><polygon fill="#64B5F6" points="418.1403,156.9063,422.1403,166.9063,426.1403,156.9063,422.1403,160.9063" style="stroke:#64B5F6;stroke-width:1;"/><line style="stroke:#64B5F6;stroke-width:1;" x1="422.1403" x2="422.1403" y1="287.3203" y2="307.3203"/><polygon fill="#64B5F6" points="418.1403,297.3203,422.1403,307.3203,426.1403,297.3203,422.1403,301.3203" style="stroke:#64B5F6;stroke-width:1;"/><line style="stroke:#64B5F6;stroke-width:1;" x1="422.1403" x2="422.1403" y1="340.125" y2="360.125"/><polygon fill="#64B5F6" points="418.1403,350.125,422.1403,360.125,426.1403,350.125,422.1403,354.125" style="stroke:#64B5F6;stroke-width:1;"/><line style="stroke:#64B5F6;stroke-width:1;" x1="422.1403" x2="422.1403" y1="392.9297" y2="412.9297"/><polygon fill="#64B5F6" points="418.1403,402.9297,422.1403,412.9297,426.1403,402.9297,422.1403,406.9297" style="stroke:#64B5F6;stroke-width:1;"/><line style="stroke:#64B5F6;stroke-width:1;" x1="422.1403" x2="422.1403" y1="445.7344" y2="465.7344"/><polygon fill="#64B5F6" points="418.1403,455.7344,422.1403,465.7344,426.1403,455.7344,422.1403,459.7344" style="stroke:#64B5F6;stroke-width:1;"/><line style="stroke:#64B5F6;stroke-width:1;" x1="422.1403" x2="422.1403" y1="498.5391" y2="518.5391"/><polygon fill="#64B5F6" points="418.1403,508.5391,422.1403,518.5391,426.1403,508.5391,422.1403,512.5391" style="stroke:#64B5F6;stroke-width:1;"/><line style="stroke:#64B5F6;stroke-width:1;" x1="422.1403" x2="422.1403" y1="199.7109" y2="254.5156"/><polygon fill="#64B5F6" points="418.1403,244.5156,422.1403,254.5156,426.1403,244.5156,422.1403,248.5156" style="stroke:#64B5F6;stroke-width:1;"/><line style="stroke:#64B5F6;stroke-width:1;" x1="422.1403" x2="422.1403" y1="638.9531" y2="658.9531"/><polygon fill="#64B5F6" points="418.1403,648.9531,422.1403,658.9531,426.1403,648.9531,422.1403,652.9531" style="stroke:#64B5F6;stroke-width:1;"/><line style="stroke:#64B5F6;stroke-width:1;" x1="422.1403" x2="422.1403" y1="691.7578" y2="711.7578"/><polygon fill="#64B5F6" points="418.1403,701.7578,422.1403,711.7578,426.1403,701.7578,422.1403,705.7578" style="stroke:#64B5F6;stroke-width:1;"/><line style="stroke:#64B5F6;stroke-width:1;" x1="422.1403" x2="422.1403" y1="551.3438" y2="606.1484"/><polygon fill="#64B5F6" points="418.1403,596.1484,422.1403,606.1484,426.1403,596.1484,422.1403,600.1484" style="stroke:#64B5F6;stroke-width:1;"/><line style="stroke:#64B5F6;stroke-width:1;" x1="422.1403" x2="422.1403" y1="844.9766" y2="864.9766"/><polygon fill="#64B5F6" points="418.1403,854.9766,422.1403,864.9766,426.1403,854.9766,422.1403,858.9766" style="stroke:#64B5F6;stroke-width:1;"/><line style="stroke:#64B5F6;stroke-width:1;" x1="422.1403" x2="422.1403" y1="897.7813" y2="917.7813"/><polygon fill="#64B5F6" points="418.1403,907.7813,422.1403,917.7813,426.1403,907.7813,422.1403,911.7813" style="stroke:#64B5F6;stroke-width:1;"/><line style="stroke:#64B5F6;stroke-width:1;" x1="422.1403" x2="422.1403" y1="1053.0234" y2="1073.0234"/><polygon fill="#64B5F6" points="418.1403,1063.0234,422.1403,1073.0234,426.1403,1063.0234,422.1403,1067.0234" style="stroke:#64B5F6;stroke-width:1;"/><line style="stroke:#64B5F6;stroke-width:1;" x1="422.1403" x2="422.1403" y1="744.5625" y2="799.3672"/><polygon fill="#64B5F6" points="418.1403,789.3672,422.1403,799.3672,426.1403,789.3672,422.1403,793.3672" style="stroke:#64B5F6;stroke-width:1;"/><line style="stroke:#64B5F6;stroke-width:1;" x1="422.1403" x2="422.1403" y1="1193.4375" y2="1213.4375"/><polygon fill="#64B5F6" points="418.1403,1203.4375,422.1403,1213.4375,426.1403,1203.4375,422.1403,1207.4375" style="stroke:#64B5F6;stroke-width:1;"/><line style="stroke:#64B5F6;stroke-width:1;" x1="422.1403" x2="422.1403" y1="1105.8281" y2="1160.6328"/><polygon fill="#64B5F6" points="418.1403,1150.6328,422.1403,1160.6328,426.1403,1150.6328,422.1403,1154.6328" style="stroke:#64B5F6;stroke-width:1;"/><line style="stroke:#64B5F6;stroke-width:1;" x1="422.1403" x2="422.1403" y1="1333.8516" y2="1353.8516"/><polygon fill="#64B5F6" points="418.1403,1343.8516,422.1403,1353.8516,426.1403,1343.8516,422.1403,1347.8516" style="stroke:#64B5F6;stroke-width:1;"/><line style="stroke:#64B5F6;stroke-width:1;" x1="422.1403" x2="422.1403" y1="1386.6563" y2="1406.6563"/><polygon fill="#64B5F6" points="418.1403,1396.6563,422.1403,1406.6563,426.1403,1396.6563,422.1403,1400.6563" style="stroke:#64B5F6;stroke-width:1;"/><line style="stroke:#64B5F6;stroke-width:1;" x1="422.1403" x2="422.1403" y1="1246.2422" y2="1301.0469"/><polygon fill="#64B5F6" points="418.1403,1291.0469,422.1403,1301.0469,426.1403,1291.0469,422.1403,1295.0469" style="stroke:#64B5F6;stroke-width:1;"/><line style="stroke:#64B5F6;stroke-width:1;" x1="422.1403" x2="422.1403" y1="1527.0703" y2="1547.0703"/><polygon fill="#64B5F6" points="418.1403,1537.0703,422.1403,1547.0703,426.1403,1537.0703,422.1403,1541.0703" style="stroke:#64B5F6;stroke-width:1;"/><line style="stroke:#64B5F6;stroke-width:1;" x1="422.1403" x2="422.1403" y1="1579.875" y2="1599.875"/><polygon fill="#64B5F6" points="418.1403,1589.875,422.1403,1599.875,426.1403,1589.875,422.1403,1593.875" style="stroke:#64B5F6;stroke-width:1;"/><line style="stroke:#64B5F6;stroke-width:1;" x1="422.1403" x2="422.1403" y1="1439.4609" y2="1494.2656"/><polygon fill="#64B5F6" points="418.1403,1484.2656,422.1403,1494.2656,426.1403,1484.2656,422.1403,1488.2656" style="stroke:#64B5F6;stroke-width:1;"/><line style="stroke:#64B5F6;stroke-width:1;" x1="202.7944" x2="202.7944" y1="1876.8984" y2="1911.8984"/><polygon fill="#64B5F6" points="198.7944,1901.8984,202.7944,1911.8984,206.7944,1901.8984,202.7944,1905.8984" style="stroke:#64B5F6;stroke-width:1;"/><line style="stroke:#64B5F6;stroke-width:1;" x1="202.7944" x2="202.7944" y1="1764.2891" y2="1844.0938"/><polygon fill="#64B5F6" points="198.7944,1834.0938,202.7944,1844.0938,206.7944,1834.0938,202.7944,1838.0938" style="stroke:#64B5F6;stroke-width:1;"/><line style="stroke:#64B5F6;stroke-width:1;" x1="202.7944" x2="202.7944" y1="2045.1172" y2="2065.1172"/><polygon fill="#64B5F6" points="198.7944,2055.1172,202.7944,2065.1172,206.7944,2055.1172,202.7944,2059.1172" style="stroke:#64B5F6;stroke-width:1;"/><line style="stroke:#64B5F6;stroke-width:1;" x1="202.7944" x2="202.7944" y1="2097.9219" y2="2117.9219"/><polygon fill="#64B5F6" points="198.7944,2107.9219,202.7944,2117.9219,206.7944,2107.9219,202.7944,2111.9219" style="stroke:#64B5F6;stroke-width:1;"/><line style="stroke:#64B5F6;stroke-width:1;" x1="202.7944" x2="202.7944" y1="1957.5078" y2="2012.3125"/><polygon fill="#64B5F6" points="198.7944,2002.3125,202.7944,2012.3125,206.7944,2002.3125,202.7944,2006.3125" style="stroke:#64B5F6;stroke-width:1;"/><line style="stroke:#64B5F6;stroke-width:1;" x1="202.7944" x2="202.7944" y1="2150.7266" y2="2202.7266"/><polygon fill="#64B5F6" points="198.7944,2192.7266,202.7944,2202.7266,206.7944,2192.7266,202.7944,2196.7266" style="stroke:#64B5F6;stroke-width:1;"/><line style="stroke:#64B5F6;stroke-width:1;" x1="641.4861" x2="641.4861" y1="1764.2891" y2="1791.2891"/><polygon fill="#64B5F6" points="637.4861,1781.2891,641.4861,1791.2891,645.4861,1781.2891,641.4861,1785.2891" style="stroke:#64B5F6;stroke-width:1;"/><line style="stroke:#64B5F6;stroke-width:1;" x1="641.4861" x2="641.4861" y1="1824.0938" y2="1911.8984"/><polygon fill="#64B5F6" points="637.4861,1901.8984,641.4861,1911.8984,645.4861,1901.8984,641.4861,1905.8984" style="stroke:#64B5F6;stroke-width:1;"/><line style="stroke:#64B5F6;stroke-width:1;" x1="641.4861" x2="641.4861" y1="2045.1172" y2="2065.1172"/><polygon fill="#64B5F6" points="637.4861,2055.1172,641.4861,2065.1172,645.4861,2055.1172,641.4861,2059.1172" style="stroke:#64B5F6;stroke-width:1;"/><line style="stroke:#64B5F6;stroke-width:1;" x1="641.4861" x2="641.4861" y1="2097.9219" y2="2117.9219"/><polygon fill="#64B5F6" points="637.4861,2107.9219,641.4861,2117.9219,645.4861,2107.9219,641.4861,2111.9219" style="stroke:#64B5F6;stroke-width:1;"/><line style="stroke:#64B5F6;stroke-width:1;" x1="641.4861" x2="641.4861" y1="1957.5078" y2="2012.3125"/><polygon fill="#64B5F6" points="637.4861,2002.3125,641.4861,2012.3125,645.4861,2002.3125,641.4861,2006.3125" style="stroke:#64B5F6;stroke-width:1;"/><line style="stroke:#64B5F6;stroke-width:1;" x1="641.4861" x2="641.4861" y1="2163.5313" y2="2215.5313"/><polygon fill="#64B5F6" points="637.4861,2205.5313,641.4861,2215.5313,645.4861,2205.5313,641.4861,2209.5313" style="stroke:#64B5F6;stroke-width:1;"/><line style="stroke:#64B5F6;stroke-width:1;" x1="327.9437" x2="202.7944" y1="1676.6797" y2="1676.6797"/><line style="stroke:#64B5F6;stroke-width:1;" x1="202.7944" x2="202.7944" y1="1676.6797" y2="1731.4844"/><polygon fill="#64B5F6" points="198.7944,1721.4844,202.7944,1731.4844,206.7944,1721.4844,202.7944,1725.4844" style="stroke:#64B5F6;stroke-width:1;"/><line style="stroke:#64B5F6;stroke-width:1;" x1="516.3368" x2="641.4861" y1="1676.6797" y2="1676.6797"/><line style="stroke:#64B5F6;stroke-width:1;" x1="641.4861" x2="641.4861" y1="1676.6797" y2="1731.4844"/><polygon fill="#64B5F6" points="637.4861,1721.4844,641.4861,1731.4844,645.4861,1721.4844,641.4861,1725.4844" style="stroke:#64B5F6;stroke-width:1;"/><line style="stroke:#64B5F6;stroke-width:1;" x1="422.1403" x2="422.1403" y1="1632.6797" y2="1664.6797"/><polygon fill="#64B5F6" points="418.1403,1654.6797,422.1403,1664.6797,426.1403,1654.6797,422.1403,1658.6797" style="stroke:#64B5F6;stroke-width:1;"/><?plantuml-src jLPjJ-D64FwUNp6NVaX2UIaKE5qGglBYgAaAH2JGateLsjYJP0zxrzrTvqGh_djdTWsnevJxq9u4CQndvfbvvfdPl7Chp13oL4ZLQDX7gN9XH0Pp4JykZIvKCj2fDl1TzEFeP3IiceZOoRLqJ_1t0w2_RT_l3wDHdzzeaw0fJuy_l3yVdj3fI2jNdlrmVFR-Gxyycyg_48vF6i-xa7h6w2yUhdGzF-sVZSvt6m-boBHATcTNLhELtUb9xsnqjZEx6WHzEkcaLjyYkD8ElqLSoZZ53SMdkrxLtJS62Iv4aJeskHOaboakDSBTUBT903XkD7nSsDlhz_hZqVWZJ8pUsuC3eDOioOS29QrUQ1T25yRAnaRcdbXqS2zIcGZ_tyIWTS89QR3HsB3V70YLi4tJ4qOcnj6pUrEiZJIW2t2OOhmIPea6AbbSiDKWbNyMTDuSuXeLsUSRbEO5arT16ccJ5Qb_vR6wjvZbAJafdUsp9pqlgkUO2PdMJbIHeT54bCygNsc5_lsKSsGKHSdO76D9XHCXkP4gbhb8iGoJI2uZmGrB5CkYfL-pbZ7QKDPAIqjmiN3K9IFflJSB9X1h5QDHoDRFRv3PdQoqqzIcV2NHSrdagHQaEqW53Ax7q3QKjZvOex6w4w1rl692Vsc9ECQSQaW3Ok8XB2oHQgI2RDFR-mvpG8J5Ax-a2RaHmdQIqoVhQ66LEGuC1lTOPmotbW9wap4CFmkrr9zKUt8pdS6HoEMHADpgoE1Iahy9wTvL2igvMbyMrmDNqN3SUxYzkPbTR71GENf28gYItEYrpzs9EU6tZKwn2ysgX3haIJz-derShbYQ00Lruf2juR9kxj--X3tauyAnJNJzq9lDekjPj6L2hSA72bLahFINDiCYxJt63HcybNux07LX0nF8kTPEBgHdru98Cgc8EKEG1T7J_WtdKnq_eZlwUNRraMBQrLmBatI-8ghUOY6zHZAqLYmHchMXLslzH2aUGAH0E4SP8ujt_Re9WcucIDIGh2mjdD3_aYuMkg3FZ51nEvKU5_4wlJ6kjHzVBZCEQwRzMWTmMProF1bAaTO9IXGm4GfJyC68FIg3FOFWWaEFjC_K2jPLodg3PcM1MIhpjRXsXVRcMmcNAurAJJH1yXueQCG3kM6Of2s89v9NHSpVWrGyMYBCdnMq6iezSOycD3ZMr12ahS1BbyU4CfCnRI2VZrn0UqWxoPRx9ctLnG0_TO1Te5rEC-jlTn7LdLiQ-tu-rprg8qu-L-X8k4JdPrsOZNAdqGoaVH0vds1oEJC5xfT2k6pTztuT3wFMHGWHUM5jTNiqkE9-LcRmasgECENQIxxUmRrcx7Aza67G8kxAkoxrVnLPNjXLcLPTMjiNL5rABLGMCzurT07GkbJXol1NXQqMyPAPTJflD32rfB9RNF3UURCrK-6lZOnpvKORzW4zJ-LIE5q6hhQm3FeVM_ZIiDjeT3UDMli1LwGF1eNLwlBmyF3hFNmP16hWC0n_2EDtoHKxTE7t18cVz8__ftM3wlRPuinlM9gJdAxzu5awJNXqvzBVxWdttXX_fTFSMKtV3agIb2xMA0gwllnVAI5KrpnTnHcD-GkRvJxerFfE5u1S_0C0?></g></svg>