<svg xmlns="http://www.w3.org/2000/svg" xmlns:xlink="http://www.w3.org/1999/xlink" contentStyleType="text/css" data-diagram-type="ACTIVITY" height="1296px" preserveAspectRatio="none" style="width:3113px;height:1296px;background:#E3F2FD;" version="1.1" viewBox="0 0 3113 1296" width="3113px" zoomAndPan="magnify"><?plantuml 1.2026.3beta6?><defs/><g><rect fill="#E3F2FD" height="1296" style="stroke:none;stroke-width:1;" width="3113" x="0" y="0"/><g class="title" data-source-line="39"><text fill="#01579B" font-family="'Segoe UI'" font-size="14" font-weight="700" lengthAdjust="spacing" textLength="118.0361" x="1206.4409" y="27.9951">BABIFIX Admin</text><text fill="#01579B" font-family="'Segoe UI'" font-size="14" font-weight="700" lengthAdjust="spacing" textLength="575.2783" x="1329.3511" y="27.9951">- Diagramme d'Activit&#233; : Gestion Compl&#232;te du Systeme (Django + HTMX)</text></g><ellipse cx="1558.5352" cy="57.2969" fill="#FFFFFF" rx="10" ry="10" style="stroke:#000000;stroke-width:1;"/><rect fill="#BBDEFB" height="32.8047" rx="12.5" ry="12.5" style="stroke:#1976D2;stroke-width:1;" width="314.8301" x="1401.1201" y="87.2969"/><text fill="#01579B" font-family="'Segoe UI'" font-size="11" lengthAdjust="spacing" textLength="294.8301" x="1411.1201" y="107.5073">Acceder au Panel Admin (Django Templates + HTMX)</text><rect fill="#BBDEFB" height="32.8047" rx="12.5" ry="12.5" style="stroke:#1976D2;stroke-width:1;" width="250.6777" x="1433.1963" y="140.1016"/><text fill="#01579B" font-family="'Segoe UI'" font-size="11" lengthAdjust="spacing" textLength="230.6777" x="1443.1963" y="160.312">Se connecter via Sessions Django + CSRF</text><rect fill="#BBDEFB" height="32.8047" rx="12.5" ry="12.5" style="stroke:#1976D2;stroke-width:1;" width="169.6763" x="1473.697" y="192.9063"/><text fill="#01579B" font-family="'Segoe UI'" font-size="11" lengthAdjust="spacing" textLength="149.6763" x="1483.697" y="213.1167">Verifier que role = "admin"</text><polygon fill="#E3F2FD" points="1513.6436,245.7109,1603.4268,245.7109,1615.4268,257.7109,1603.4268,269.7109,1513.6436,269.7109,1501.6436,257.7109,1513.6436,245.7109" style="stroke:#42A5F5;stroke-width:1;"/><text fill="#01579B" font-family="'Segoe UI'" font-size="11" lengthAdjust="spacing" textLength="89.7832" x="1513.6436" y="261.519">Acces autorise ?</text><text fill="#000000" font-family="'Segoe UI'" font-size="11" lengthAdjust="spacing" textLength="16.7578" x="1484.8857" y="255.1167">oui</text><text fill="#000000" font-family="'Segoe UI'" font-size="11" lengthAdjust="spacing" textLength="20.6733" x="1615.4268" y="255.1167">non</text><rect fill="#BBDEFB" height="32.8047" rx="12.5" ry="12.5" style="stroke:#1976D2;stroke-width:1;" width="178.5439" x="1367.5286" y="279.7109"/><text fill="#01579B" font-family="'Segoe UI'" font-size="11" lengthAdjust="spacing" textLength="158.5439" x="1377.5286" y="299.9214">Acces accorde au dashboard</text><rect fill="#BBDEFB" height="32.8047" rx="12.5" ry="12.5" style="stroke:#1976D2;stroke-width:1;" width="188.3945" x="1566.0725" y="279.7109"/><text fill="#01579B" font-family="'Segoe UI'" font-size="11" lengthAdjust="spacing" textLength="168.3945" x="1576.0725" y="299.9214">Redirection vers page de login</text><ellipse cx="1660.2698" cy="343.5156" fill="none" rx="11" ry="11" style="stroke:#000000;stroke-width:1;"/><ellipse cx="1660.2698" cy="343.5156" fill="#FFFFFF" rx="6" ry="6" style="stroke:#000000;stroke-width:1;"/><rect fill="#BBDEFB" height="32.8047" rx="12.5" ry="12.5" style="stroke:#1976D2;stroke-width:1;" width="176.9165" x="1470.0769" y="374.5156"/><text fill="#01579B" font-family="'Segoe UI'" font-size="11" lengthAdjust="spacing" textLength="156.9165" x="1480.0769" y="394.7261">Afficher Dashboard principal</text><rect fill="#000000" height="6" rx="2.5" ry="2.5" style="stroke:#000000;stroke-width:1;" width="3087.0703" x="11" y="427.3203"/><rect fill="#BBDEFB" height="32.8047" rx="12.5" ry="12.5" style="stroke:#1976D2;stroke-width:1;" width="144.5073" x="228.0933" y="453.3203"/><text fill="#01579B" font-family="'Segoe UI'" font-size="11" lengthAdjust="spacing" textLength="124.5073" x="238.0933" y="473.5308">Validation Prestataires</text><rect fill="#BBDEFB" height="32.8047" rx="12.5" ry="12.5" style="stroke:#1976D2;stroke-width:1;" width="190.5752" x="205.0593" y="521.125"/><text fill="#01579B" font-family="'Segoe UI'" font-size="11" lengthAdjust="spacing" textLength="170.5752" x="215.0593" y="541.3354">Menu "Prestataires en attente"</text><rect fill="#BBDEFB" height="32.8047" rx="12.5" ry="12.5" style="stroke:#1976D2;stroke-width:1;" width="302.4873" x="149.1033" y="588.9297"/><text fill="#01579B" font-family="'Segoe UI'" font-size="11" lengthAdjust="spacing" textLength="282.4873" x="159.1033" y="609.1401">Charger liste des prestataires avec statut PENDING</text><rect fill="#BBDEFB" height="32.8047" rx="12.5" ry="12.5" style="stroke:#1976D2;stroke-width:1;" width="149.4111" x="225.6414" y="656.7344"/><text fill="#01579B" font-family="'Segoe UI'" font-size="11" lengthAdjust="spacing" textLength="129.4111" x="235.6414" y="676.9448">Selectionner un dossier</text><rect fill="#BBDEFB" height="32.8047" rx="12.5" ry="12.5" style="stroke:#1976D2;stroke-width:1;" width="256.0381" x="172.3279" y="724.5391"/><text fill="#01579B" font-family="'Segoe UI'" font-size="11" lengthAdjust="spacing" textLength="236.0381" x="182.3279" y="744.7495">Examiner photo CNI + informations saisies</text><polygon fill="#E3F2FD" points="272.2642,792.3438,328.4297,792.3438,340.4297,804.3438,328.4297,816.3438,272.2642,816.3438,260.2642,804.3438,272.2642,792.3438" style="stroke:#42A5F5;stroke-width:1;"/><text fill="#01579B" font-family="'Segoe UI'" font-size="11" lengthAdjust="spacing" textLength="56.1655" x="272.2642" y="808.1519">Decision ?</text><text fill="#000000" font-family="'Segoe UI'" font-size="11" lengthAdjust="spacing" textLength="38.6504" x="221.6138" y="801.7495">Valider</text><text fill="#000000" font-family="'Segoe UI'" font-size="11" lengthAdjust="spacing" textLength="42.2759" x="340.4297" y="801.7495">Refuser</text><rect fill="#BBDEFB" height="32.8047" rx="12.5" ry="12.5" style="stroke:#1976D2;stroke-width:1;" width="130.1665" x="83.2798" y="826.3438"/><text fill="#01579B" font-family="'Segoe UI'" font-size="11" lengthAdjust="spacing" textLength="110.1665" x="93.2798" y="846.5542">Cliquer "Approuver"</text><rect fill="#BBDEFB" height="32.8047" rx="12.5" ry="12.5" style="stroke:#1976D2;stroke-width:1;" width="242.8091" x="26.9585" y="894.1484"/><text fill="#01579B" font-family="'Segoe UI'" font-size="11" lengthAdjust="spacing" textLength="222.8091" x="36.9585" y="914.3589">Mettre a jour provider.statut = "VALIDE"</text><rect fill="#BBDEFB" height="32.8047" rx="12.5" ry="12.5" style="stroke:#1976D2;stroke-width:1;" width="249.5444" x="23.5908" y="961.9531"/><text fill="#01579B" font-family="'Segoe UI'" font-size="11" lengthAdjust="spacing" textLength="229.5444" x="33.5908" y="982.1636">Mettre a jour provider.is_approved = true</text><rect fill="#BBDEFB" height="32.8047" rx="12.5" ry="12.5" style="stroke:#1976D2;stroke-width:1;" width="250.7261" x="23" y="1029.7578"/><text fill="#01579B" font-family="'Segoe UI'" font-size="11" lengthAdjust="spacing" textLength="230.7261" x="33" y="1049.9683">Envoyer notification FCM "Compte valide"</text><rect fill="#BBDEFB" height="32.8047" rx="12.5" ry="12.5" style="stroke:#1976D2;stroke-width:1;" width="193.3145" x="355.6736" y="826.3438"/><text fill="#01579B" font-family="'Segoe UI'" font-size="11" lengthAdjust="spacing" textLength="173.3145" x="365.6736" y="846.5542">Saisir motif de refus obligatoire</text><rect fill="#BBDEFB" height="32.8047" rx="12.5" ry="12.5" style="stroke:#1976D2;stroke-width:1;" width="114.9287" x="394.8665" y="894.1484"/><text fill="#01579B" font-family="'Segoe UI'" font-size="11" lengthAdjust="spacing" textLength="94.9287" x="404.8665" y="914.3589">Cliquer "Refuser"</text><rect fill="#BBDEFB" height="32.8047" rx="12.5" ry="12.5" style="stroke:#1976D2;stroke-width:1;" width="245.8706" x="329.3955" y="961.9531"/><text fill="#01579B" font-family="'Segoe UI'" font-size="11" lengthAdjust="spacing" textLength="225.8706" x="339.3955" y="982.1636">Mettre a jour provider.statut = "REFUSE"</text><rect fill="#BBDEFB" height="32.8047" rx="12.5" ry="12.5" style="stroke:#1976D2;stroke-width:1;" width="165.229" x="369.7163" y="1029.7578"/><text fill="#01579B" font-family="'Segoe UI'" font-size="11" lengthAdjust="spacing" textLength="145.229" x="379.7163" y="1049.9683">Enregistrer refusal_reason</text><rect fill="#BBDEFB" height="32.8047" rx="12.5" ry="12.5" style="stroke:#1976D2;stroke-width:1;" width="317.2095" x="293.7261" y="1097.5625"/><text fill="#01579B" font-family="'Segoe UI'" font-size="11" lengthAdjust="spacing" textLength="297.2095" x="303.7261" y="1117.7729">Envoyer notification FCM "Demande refusee : [motif]"</text><polygon fill="#E3F2FD" points="300.3469,1136.3672,312.3469,1148.3672,300.3469,1160.3672,288.3469,1148.3672,300.3469,1136.3672" style="stroke:#42A5F5;stroke-width:1;"/><rect fill="#BBDEFB" height="32.8047" rx="12.5" ry="12.5" style="stroke:#1976D2;stroke-width:1;" width="124.8813" x="1045.9087" y="556.7285"/><text fill="#01579B" font-family="'Segoe UI'" font-size="11" lengthAdjust="spacing" textLength="104.8813" x="1055.9087" y="576.939">Gestion Categories</text><rect fill="#BBDEFB" height="32.8047" rx="12.5" ry="12.5" style="stroke:#1976D2;stroke-width:1;" width="123.1089" x="1046.7949" y="624.5332"/><text fill="#01579B" font-family="'Segoe UI'" font-size="11" lengthAdjust="spacing" textLength="103.1089" x="1056.7949" y="644.7437">Menu "Categories"</text><polygon fill="#E3F2FD" points="788.0615,717.3379,889.5859,717.3379,901.5859,729.3379,889.5859,741.3379,788.0615,741.3379,776.0615,729.3379,788.0615,717.3379" style="stroke:#42A5F5;stroke-width:1;"/><text fill="#000000" font-family="'Segoe UI'" font-size="11" lengthAdjust="spacing" textLength="80.5879" x="842.8237" y="751.5483">Creer nouvelle</text><text fill="#01579B" font-family="'Segoe UI'" font-size="11" lengthAdjust="spacing" textLength="101.5244" x="788.0615" y="733.146">Action souhaitee ?</text><rect fill="#BBDEFB" height="32.8047" rx="12.5" ry="12.5" style="stroke:#1976D2;stroke-width:1;" width="163.3384" x="757.1545" y="774.1426"/><text fill="#01579B" font-family="'Segoe UI'" font-size="11" lengthAdjust="spacing" textLength="143.3384" x="767.1545" y="794.353">Ouvrir formulaire creation</text><rect fill="#BBDEFB" height="32.8047" rx="12.5" ry="12.5" style="stroke:#1976D2;stroke-width:1;" width="296.4502" x="690.5986" y="841.9473"/><text fill="#01579B" font-family="'Segoe UI'" font-size="11" lengthAdjust="spacing" textLength="276.4502" x="700.5986" y="862.1577">Remplir nom, description, icone, ordre d'affichage</text><rect fill="#BBDEFB" height="32.8047" rx="12.5" ry="12.5" style="stroke:#1976D2;stroke-width:1;" width="435.7764" x="620.9355" y="909.752"/><text fill="#01579B" font-family="'Segoe UI'" font-size="11" lengthAdjust="spacing" textLength="415.7764" x="630.9355" y="929.9624">INSERT INTO category (nom, description, icone_slug, ordre_affichage, actif)</text><polygon fill="#E3F2FD" points="1149.5134,717.3379,1248.6584,717.3379,1260.6584,729.3379,1248.6584,741.3379,1149.5134,741.3379,1137.5134,729.3379,1149.5134,717.3379" style="stroke:#42A5F5;stroke-width:1;"/><text fill="#01579B" font-family="'Segoe UI'" font-size="11" lengthAdjust="spacing" textLength="99.145" x="1149.5134" y="733.146">Modifier existante</text><text fill="#000000" font-family="'Segoe UI'" font-size="11" lengthAdjust="spacing" textLength="58.9263" x="1260.6584" y="726.7437">Desactiver</text><rect fill="#BBDEFB" height="32.8047" rx="12.5" ry="12.5" style="stroke:#1976D2;stroke-width:1;" width="144.3784" x="1126.8967" y="761.3379"/><text fill="#01579B" font-family="'Segoe UI'" font-size="11" lengthAdjust="spacing" textLength="124.3784" x="1136.8967" y="781.5483">Selectionner categorie</text><rect fill="#BBDEFB" height="32.8047" rx="12.5" ry="12.5" style="stroke:#1976D2;stroke-width:1;" width="244.748" x="1076.7119" y="829.1426"/><text fill="#01579B" font-family="'Segoe UI'" font-size="11" lengthAdjust="spacing" textLength="224.748" x="1086.7119" y="849.353">Modifier nom / description / icone / ordre</text><rect fill="#BBDEFB" height="32.8047" rx="12.5" ry="12.5" style="stroke:#1976D2;stroke-width:1;" width="154.5942" x="1121.7888" y="896.9473"/><text fill="#01579B" font-family="'Segoe UI'" font-size="11" lengthAdjust="spacing" textLength="134.5942" x="1131.7888" y="917.1577">UPDATE category SET ...</text><rect fill="#BBDEFB" height="32.8047" rx="12.5" ry="12.5" style="stroke:#1976D2;stroke-width:1;" width="144.3784" x="1386.4224" y="756.5391"/><text fill="#01579B" font-family="'Segoe UI'" font-size="11" lengthAdjust="spacing" textLength="124.3784" x="1396.4224" y="776.7495">Selectionner categorie</text><rect fill="#BBDEFB" height="32.8047" rx="12.5" ry="12.5" style="stroke:#1976D2;stroke-width:1;" width="131.5791" x="1392.822" y="824.3438"/><text fill="#01579B" font-family="'Segoe UI'" font-size="11" lengthAdjust="spacing" textLength="111.5791" x="1402.822" y="844.5542">Cliquer "Desactiver"</text><rect fill="#BBDEFB" height="32.8047" rx="12.5" ry="12.5" style="stroke:#1976D2;stroke-width:1;" width="210.5127" x="1353.3552" y="892.1484"/><text fill="#01579B" font-family="'Segoe UI'" font-size="11" lengthAdjust="spacing" textLength="190.5127" x="1363.3552" y="912.3589">UPDATE category SET actif = false</text><rect fill="#BBDEFB" height="32.8047" rx="12.5" ry="12.5" style="stroke:#1976D2;stroke-width:1;" width="254.3032" x="1331.46" y="959.9531"/><text fill="#01579B" font-family="'Segoe UI'" font-size="11" lengthAdjust="spacing" textLength="234.3032" x="1341.46" y="980.1636">Categorie devient invisible pour les clients</text><rect fill="#BBDEFB" height="32.8047" rx="12.5" ry="12.5" style="stroke:#1976D2;stroke-width:1;" width="152.6768" x="1720.2612" y="553.125"/><text fill="#01579B" font-family="'Segoe UI'" font-size="11" lengthAdjust="spacing" textLength="132.6768" x="1730.2612" y="573.3354">Statistiques et Rapports</text><rect fill="#BBDEFB" height="32.8047" rx="12.5" ry="12.5" style="stroke:#1976D2;stroke-width:1;" width="128.7754" x="1732.2119" y="620.9297"/><text fill="#01579B" font-family="'Segoe UI'" font-size="11" lengthAdjust="spacing" textLength="108.7754" x="1742.2119" y="641.1401">Menu "Statistiques"</text><rect fill="#BBDEFB" height="32.8047" rx="12.5" ry="12.5" style="stroke:#1976D2;stroke-width:1;" width="365.6729" x="1613.7632" y="688.7344"/><text fill="#01579B" font-family="'Segoe UI'" font-size="11" lengthAdjust="spacing" textLength="345.6729" x="1623.7632" y="708.9448">Requetes SQL agregees (reservations, paiements, utilisateurs)</text><rect fill="#BBDEFB" height="32.8047" rx="12.5" ry="12.5" style="stroke:#1976D2;stroke-width:1;" width="298.5288" x="1647.3352" y="756.5391"/><text fill="#01579B" font-family="'Segoe UI'" font-size="11" lengthAdjust="spacing" textLength="278.5288" x="1657.3352" y="776.7495">Calculer revenus totaux, commissions BABIFIX, CA</text><rect fill="#BBDEFB" height="32.8047" rx="12.5" ry="12.5" style="stroke:#1976D2;stroke-width:1;" width="336.8838" x="1628.1577" y="824.3438"/><text fill="#01579B" font-family="'Segoe UI'" font-size="11" lengthAdjust="spacing" textLength="316.8838" x="1638.1577" y="844.5542">Calculer nombre de reservations (par statut, par periode)</text><rect fill="#BBDEFB" height="32.8047" rx="12.5" ry="12.5" style="stroke:#1976D2;stroke-width:1;" width="278.3496" x="1657.4248" y="892.1484"/><text fill="#01579B" font-family="'Segoe UI'" font-size="11" lengthAdjust="spacing" textLength="258.3496" x="1667.4248" y="912.3589">Calculer utilisateurs actifs, prestataires valides</text><rect fill="#BBDEFB" height="32.8047" rx="12.5" ry="12.5" style="stroke:#1976D2;stroke-width:1;" width="236.02" x="1678.5896" y="959.9531"/><text fill="#01579B" font-family="'Segoe UI'" font-size="11" lengthAdjust="spacing" textLength="216.02" x="1688.5896" y="980.1636">Generer graphiques et KPIs avec HTMX</text><rect fill="#BBDEFB" height="32.8047" rx="12.5" ry="12.5" style="stroke:#1976D2;stroke-width:1;" width="213.6387" x="1689.7803" y="1027.7578"/><text fill="#01579B" font-family="'Segoe UI'" font-size="11" lengthAdjust="spacing" textLength="193.6387" x="1699.7803" y="1047.9683">Consulter et exporter rapports CSV</text><rect fill="#BBDEFB" height="32.8047" rx="12.5" ry="12.5" style="stroke:#1976D2;stroke-width:1;" width="184.8389" x="2254.2585" y="487.2227"/><text fill="#01579B" font-family="'Segoe UI'" font-size="11" lengthAdjust="spacing" textLength="164.8389" x="2264.2585" y="507.4331">Validation Paiements Especes</text><rect fill="#BBDEFB" height="32.8047" rx="12.5" ry="12.5" style="stroke:#1976D2;stroke-width:1;" width="239.3071" x="2227.0244" y="555.0273"/><text fill="#01579B" font-family="'Segoe UI'" font-size="11" lengthAdjust="spacing" textLength="219.3071" x="2237.0244" y="575.2378">Menu "Paiements en attente (especes)"</text><rect fill="#BBDEFB" height="32.8047" rx="12.5" ry="12.5" style="stroke:#1976D2;stroke-width:1;" width="443.8975" x="2124.7292" y="622.832"/><text fill="#01579B" font-family="'Segoe UI'" font-size="11" lengthAdjust="spacing" textLength="423.8975" x="2134.7292" y="643.0425">Charger liste des reservations TERMINEE avec paiement ESPECES non valide</text><rect fill="#BBDEFB" height="32.8047" rx="12.5" ry="12.5" style="stroke:#1976D2;stroke-width:1;" width="360.7583" x="2166.2988" y="690.6367"/><text fill="#01579B" font-family="'Segoe UI'" font-size="11" lengthAdjust="spacing" textLength="340.7583" x="2176.2988" y="710.8472">Consulter details reservation + declarations client/prestataire</text><polygon fill="#E3F2FD" points="2294.7798,758.4414,2398.5762,758.4414,2410.5762,770.4414,2398.5762,782.4414,2294.7798,782.4414,2282.7798,770.4414,2294.7798,758.4414" style="stroke:#42A5F5;stroke-width:1;"/><text fill="#01579B" font-family="'Segoe UI'" font-size="11" lengthAdjust="spacing" textLength="103.7964" x="2294.7798" y="774.2495">Valider paiement ?</text><text fill="#000000" font-family="'Segoe UI'" font-size="11" lengthAdjust="spacing" textLength="16.7578" x="2266.022" y="767.8472">oui</text><text fill="#000000" font-family="'Segoe UI'" font-size="11" lengthAdjust="spacing" textLength="58.8672" x="2410.5762" y="767.8472">non - litige</text><rect fill="#BBDEFB" height="32.8047" rx="12.5" ry="12.5" style="stroke:#1976D2;stroke-width:1;" width="111.3032" x="2128.0693" y="792.4414"/><text fill="#01579B" font-family="'Segoe UI'" font-size="11" lengthAdjust="spacing" textLength="91.3032" x="2138.0693" y="812.6519">Cliquer "Valider"</text><rect fill="#BBDEFB" height="32.8047" rx="12.5" ry="12.5" style="stroke:#1976D2;stroke-width:1;" width="388.5698" x="1989.436" y="860.2461"/><text fill="#01579B" font-family="'Segoe UI'" font-size="11" lengthAdjust="spacing" textLength="368.5698" x="1999.436" y="880.4565">UPDATE payment SET etat = "Complete", valide_par_admin = true</text><rect fill="#BBDEFB" height="32.8047" rx="12.5" ry="12.5" style="stroke:#1976D2;stroke-width:1;" width="277.0068" x="2045.2175" y="928.0508"/><text fill="#01579B" font-family="'Segoe UI'" font-size="11" lengthAdjust="spacing" textLength="257.0068" x="2055.2175" y="948.2612">Enregistrer commission + montant prestataire</text><rect fill="#BBDEFB" height="32.8047" rx="12.5" ry="12.5" style="stroke:#1976D2;stroke-width:1;" width="231.3472" x="2068.0474" y="995.8555"/><text fill="#01579B" font-family="'Segoe UI'" font-size="11" lengthAdjust="spacing" textLength="211.3472" x="2078.0474" y="1016.0659">Creer enregistrement paiement valide</text><rect fill="#BBDEFB" height="32.8047" rx="12.5" ry="12.5" style="stroke:#1976D2;stroke-width:1;" width="334.2197" x="2016.6111" y="1063.6602"/><text fill="#01579B" font-family="'Segoe UI'" font-size="11" lengthAdjust="spacing" textLength="314.2197" x="2026.6111" y="1083.8706">Notifier prestataire "Paiement valide - Gains disponibles"</text><rect fill="#BBDEFB" height="32.8047" rx="12.5" ry="12.5" style="stroke:#1976D2;stroke-width:1;" width="212.7524" x="2403.2588" y="792.4414"/><text fill="#01579B" font-family="'Segoe UI'" font-size="11" lengthAdjust="spacing" textLength="192.7524" x="2413.2588" y="812.6519">Saisir motif et ouvrir ticket support</text><rect fill="#BBDEFB" height="32.8047" rx="12.5" ry="12.5" style="stroke:#1976D2;stroke-width:1;" width="223.2583" x="2398.0059" y="860.2461"/><text fill="#01579B" font-family="'Segoe UI'" font-size="11" lengthAdjust="spacing" textLength="203.2583" x="2408.0059" y="880.4565">UPDATE payment SET etat = "Litige"</text><rect fill="#BBDEFB" height="32.8047" rx="12.5" ry="12.5" style="stroke:#1976D2;stroke-width:1;" width="184.7153" x="2417.2773" y="928.0508"/><text fill="#01579B" font-family="'Segoe UI'" font-size="11" lengthAdjust="spacing" textLength="164.7153" x="2427.2773" y="948.2612">Creer enregistrement Dispute</text><rect fill="#BBDEFB" height="32.8047" rx="12.5" ry="12.5" style="stroke:#1976D2;stroke-width:1;" width="172.7861" x="2423.2419" y="995.8555"/><text fill="#01579B" font-family="'Segoe UI'" font-size="11" lengthAdjust="spacing" textLength="152.7861" x="2433.2419" y="1016.0659">Notifier client et prestataire</text><polygon fill="#E3F2FD" points="2346.678,1102.4648,2358.678,1114.4648,2346.678,1126.4648,2334.678,1114.4648,2346.678,1102.4648" style="stroke:#42A5F5;stroke-width:1;"/><rect fill="#BBDEFB" height="32.8047" rx="12.5" ry="12.5" style="stroke:#1976D2;stroke-width:1;" width="173.6455" x="2771.8445" y="587.0273"/><text fill="#01579B" font-family="'Segoe UI'" font-size="11" lengthAdjust="spacing" textLength="153.6455" x="2781.8445" y="607.2378">Envoi Notifications Globales</text><rect fill="#BBDEFB" height="32.8047" rx="12.5" ry="12.5" style="stroke:#1976D2;stroke-width:1;" width="216.0503" x="2750.6421" y="654.832"/><text fill="#01579B" font-family="'Segoe UI'" font-size="11" lengthAdjust="spacing" textLength="196.0503" x="2760.6421" y="675.0425">Menu "Notifications et Campagnes"</text><rect fill="#BBDEFB" height="32.8047" rx="12.5" ry="12.5" style="stroke:#1976D2;stroke-width:1;" width="218.9346" x="2749.2" y="722.6367"/><text fill="#01579B" font-family="'Segoe UI'" font-size="11" lengthAdjust="spacing" textLength="198.9346" x="2759.2" y="742.8472">Composer titre + corps du message</text><rect fill="#BBDEFB" height="32.8047" rx="12.5" ry="12.5" style="stroke:#1976D2;stroke-width:1;" width="454.8062" x="2631.2642" y="790.4414"/><text fill="#01579B" font-family="'Segoe UI'" font-size="11" lengthAdjust="spacing" textLength="434.8062" x="2641.2642" y="810.6519">Selectionner destinataires (tous clients, tous prestataires, segment specifique)</text><rect fill="#BBDEFB" height="32.8047" rx="12.5" ry="12.5" style="stroke:#1976D2;stroke-width:1;" width="302.8203" x="2707.2571" y="858.2461"/><text fill="#01579B" font-family="'Segoe UI'" font-size="11" lengthAdjust="spacing" textLength="282.8203" x="2717.2571" y="878.4565">Option : planifier envoi ou envoyer immediatement</text><rect fill="#BBDEFB" height="32.8047" rx="12.5" ry="12.5" style="stroke:#1976D2;stroke-width:1;" width="267.6021" x="2724.8662" y="926.0508"/><text fill="#01579B" font-family="'Segoe UI'" font-size="11" lengthAdjust="spacing" textLength="247.6021" x="2734.8662" y="946.2612">Envoyer via Firebase Cloud Messaging (FCM)</text><rect fill="#BBDEFB" height="32.8047" rx="12.5" ry="12.5" style="stroke:#1976D2;stroke-width:1;" width="240.8862" x="2738.2241" y="993.8555"/><text fill="#01579B" font-family="'Segoe UI'" font-size="11" lengthAdjust="spacing" textLength="220.8862" x="2748.2241" y="1014.0659">Enregistrer trace dans table Notification</text><rect fill="#000000" height="6" rx="2.5" ry="2.5" style="stroke:#000000;stroke-width:1;" width="3087.0703" x="11" y="1180.3672"/><rect fill="#BBDEFB" height="32.8047" rx="12.5" ry="12.5" style="stroke:#1976D2;stroke-width:1;" width="188.0508" x="1464.5098" y="1206.3672"/><text fill="#01579B" font-family="'Segoe UI'" font-size="11" lengthAdjust="spacing" textLength="168.0508" x="1474.5098" y="1226.5776">Deconnexion ou fin de session</text><ellipse cx="1558.5352" cy="1270.1719" fill="none" rx="11" ry="11" style="stroke:#000000;stroke-width:1;"/><ellipse cx="1558.5352" cy="1270.1719" fill="#FFFFFF" rx="6" ry="6" style="stroke:#000000;stroke-width:1;"/><line style="stroke:#64B5F6;stroke-width:1;" x1="1558.5352" x2="1558.5352" y1="67.2969" y2="87.2969"/><polygon fill="#64B5F6" points="1554.5352,77.2969,1558.5352,87.2969,1562.5352,77.2969,1558.5352,81.2969" style="stroke:#64B5F6;stroke-width:1;"/><line style="stroke:#64B5F6;stroke-width:1;" x1="1558.5352" x2="1558.5352" y1="120.1016" y2="140.1016"/><polygon fill="#64B5F6" points="1554.5352,130.1016,1558.5352,140.1016,1562.5352,130.1016,1558.5352,134.1016" style="stroke:#64B5F6;stroke-width:1;"/><line style="stroke:#64B5F6;stroke-width:1;" x1="1558.5352" x2="1558.5352" y1="172.9063" y2="192.9063"/><polygon fill="#64B5F6" points="1554.5352,182.9063,1558.5352,192.9063,1562.5352,182.9063,1558.5352,186.9063" style="stroke:#64B5F6;stroke-width:1;"/><line style="stroke:#64B5F6;stroke-width:1;" x1="1660.2698" x2="1660.2698" y1="312.5156" y2="332.5156"/><polygon fill="#64B5F6" points="1656.2698,322.5156,1660.2698,332.5156,1664.2698,322.5156,1660.2698,326.5156" style="stroke:#64B5F6;stroke-width:1;"/><line style="stroke:#64B5F6;stroke-width:1;" x1="1501.6436" x2="1456.8005" y1="257.7109" y2="257.7109"/><line style="stroke:#64B5F6;stroke-width:1;" x1="1456.8005" x2="1456.8005" y1="257.7109" y2="279.7109"/><polygon fill="#64B5F6" points="1452.8005,269.7109,1456.8005,279.7109,1460.8005,269.7109,1456.8005,273.7109" style="stroke:#64B5F6;stroke-width:1;"/><line style="stroke:#64B5F6;stroke-width:1;" x1="1615.4268" x2="1660.2698" y1="257.7109" y2="257.7109"/><line style="stroke:#64B5F6;stroke-width:1;" x1="1660.2698" x2="1660.2698" y1="257.7109" y2="279.7109"/><polygon fill="#64B5F6" points="1656.2698,269.7109,1660.2698,279.7109,1664.2698,269.7109,1660.2698,273.7109" style="stroke:#64B5F6;stroke-width:1;"/><line style="stroke:#64B5F6;stroke-width:1;" x1="1456.8005" x2="1456.8005" y1="312.5156" y2="359.5156"/><line style="stroke:#64B5F6;stroke-width:1;" x1="1456.8005" x2="1558.5352" y1="359.5156" y2="359.5156"/><line style="stroke:#64B5F6;stroke-width:1;" x1="1558.5352" x2="1558.5352" y1="359.5156" y2="374.5156"/><polygon fill="#64B5F6" points="1554.5352,364.5156,1558.5352,374.5156,1562.5352,364.5156,1558.5352,368.5156" style="stroke:#64B5F6;stroke-width:1;"/><line style="stroke:#64B5F6;stroke-width:1;" x1="1558.5352" x2="1558.5352" y1="225.7109" y2="245.7109"/><polygon fill="#64B5F6" points="1554.5352,235.7109,1558.5352,245.7109,1562.5352,235.7109,1558.5352,239.7109" style="stroke:#64B5F6;stroke-width:1;"/><line style="stroke:#64B5F6;stroke-width:1;" x1="300.3469" x2="300.3469" y1="486.125" y2="521.125"/><polygon fill="#64B5F6" points="296.3469,511.125,300.3469,521.125,304.3469,511.125,300.3469,515.125" style="stroke:#64B5F6;stroke-width:1;"/><line style="stroke:#64B5F6;stroke-width:1;" x1="300.3469" x2="300.3469" y1="553.9297" y2="588.9297"/><polygon fill="#64B5F6" points="296.3469,578.9297,300.3469,588.9297,304.3469,578.9297,300.3469,582.9297" style="stroke:#64B5F6;stroke-width:1;"/><line style="stroke:#64B5F6;stroke-width:1;" x1="300.3469" x2="300.3469" y1="621.7344" y2="656.7344"/><polygon fill="#64B5F6" points="296.3469,646.7344,300.3469,656.7344,304.3469,646.7344,300.3469,650.7344" style="stroke:#64B5F6;stroke-width:1;"/><line style="stroke:#64B5F6;stroke-width:1;" x1="300.3469" x2="300.3469" y1="689.5391" y2="724.5391"/><polygon fill="#64B5F6" points="296.3469,714.5391,300.3469,724.5391,304.3469,714.5391,300.3469,718.5391" style="stroke:#64B5F6;stroke-width:1;"/><line style="stroke:#64B5F6;stroke-width:1;" x1="148.363" x2="148.363" y1="859.1484" y2="894.1484"/><polygon fill="#64B5F6" points="144.363,884.1484,148.363,894.1484,152.363,884.1484,148.363,888.1484" style="stroke:#64B5F6;stroke-width:1;"/><line style="stroke:#64B5F6;stroke-width:1;" x1="148.363" x2="148.363" y1="926.9531" y2="961.9531"/><polygon fill="#64B5F6" points="144.363,951.9531,148.363,961.9531,152.363,951.9531,148.363,955.9531" style="stroke:#64B5F6;stroke-width:1;"/><line style="stroke:#64B5F6;stroke-width:1;" x1="148.363" x2="148.363" y1="994.7578" y2="1029.7578"/><polygon fill="#64B5F6" points="144.363,1019.7578,148.363,1029.7578,152.363,1019.7578,148.363,1023.7578" style="stroke:#64B5F6;stroke-width:1;"/><line style="stroke:#64B5F6;stroke-width:1;" x1="452.3308" x2="452.3308" y1="859.1484" y2="894.1484"/><polygon fill="#64B5F6" points="448.3308,884.1484,452.3308,894.1484,456.3308,884.1484,452.3308,888.1484" style="stroke:#64B5F6;stroke-width:1;"/><line style="stroke:#64B5F6;stroke-width:1;" x1="452.3308" x2="452.3308" y1="926.9531" y2="961.9531"/><polygon fill="#64B5F6" points="448.3308,951.9531,452.3308,961.9531,456.3308,951.9531,452.3308,955.9531" style="stroke:#64B5F6;stroke-width:1;"/><line style="stroke:#64B5F6;stroke-width:1;" x1="452.3308" x2="452.3308" y1="994.7578" y2="1029.7578"/><polygon fill="#64B5F6" points="448.3308,1019.7578,452.3308,1029.7578,456.3308,1019.7578,452.3308,1023.7578" style="stroke:#64B5F6;stroke-width:1;"/><line style="stroke:#64B5F6;stroke-width:1;" x1="452.3308" x2="452.3308" y1="1062.5625" y2="1097.5625"/><polygon fill="#64B5F6" points="448.3308,1087.5625,452.3308,1097.5625,456.3308,1087.5625,452.3308,1091.5625" style="stroke:#64B5F6;stroke-width:1;"/><line style="stroke:#64B5F6;stroke-width:1;" x1="260.2642" x2="148.363" y1="804.3438" y2="804.3438"/><line style="stroke:#64B5F6;stroke-width:1;" x1="148.363" x2="148.363" y1="804.3438" y2="826.3438"/><polygon fill="#64B5F6" points="144.363,816.3438,148.363,826.3438,152.363,816.3438,148.363,820.3438" style="stroke:#64B5F6;stroke-width:1;"/><line style="stroke:#64B5F6;stroke-width:1;" x1="340.4297" x2="452.3308" y1="804.3438" y2="804.3438"/><line style="stroke:#64B5F6;stroke-width:1;" x1="452.3308" x2="452.3308" y1="804.3438" y2="826.3438"/><polygon fill="#64B5F6" points="448.3308,816.3438,452.3308,826.3438,456.3308,816.3438,452.3308,820.3438" style="stroke:#64B5F6;stroke-width:1;"/><line style="stroke:#64B5F6;stroke-width:1;" x1="148.363" x2="148.363" y1="1062.5625" y2="1148.3672"/><line style="stroke:#64B5F6;stroke-width:1;" x1="148.363" x2="288.3469" y1="1148.3672" y2="1148.3672"/><polygon fill="#64B5F6" points="278.3469,1144.3672,288.3469,1148.3672,278.3469,1152.3672,282.3469,1148.3672" style="stroke:#64B5F6;stroke-width:1;"/><line style="stroke:#64B5F6;stroke-width:1;" x1="452.3308" x2="452.3308" y1="1130.3672" y2="1148.3672"/><line style="stroke:#64B5F6;stroke-width:1;" x1="452.3308" x2="312.3469" y1="1148.3672" y2="1148.3672"/><polygon fill="#64B5F6" points="322.3469,1144.3672,312.3469,1148.3672,322.3469,1152.3672,318.3469,1148.3672" style="stroke:#64B5F6;stroke-width:1;"/><line style="stroke:#64B5F6;stroke-width:1;" x1="300.3469" x2="300.3469" y1="757.3438" y2="792.3438"/><polygon fill="#64B5F6" points="296.3469,782.3438,300.3469,792.3438,304.3469,782.3438,300.3469,786.3438" style="stroke:#64B5F6;stroke-width:1;"/><line style="stroke:#64B5F6;stroke-width:1;" x1="1108.3494" x2="1108.3494" y1="589.5332" y2="624.5332"/><polygon fill="#64B5F6" points="1104.3494,614.5332,1108.3494,624.5332,1112.3494,614.5332,1108.3494,618.5332" style="stroke:#64B5F6;stroke-width:1;"/><line style="stroke:#64B5F6;stroke-width:1;" x1="838.8237" x2="838.8237" y1="806.9473" y2="841.9473"/><polygon fill="#64B5F6" points="834.8237,831.9473,838.8237,841.9473,842.8237,831.9473,838.8237,835.9473" style="stroke:#64B5F6;stroke-width:1;"/><line style="stroke:#64B5F6;stroke-width:1;" x1="838.8237" x2="838.8237" y1="874.752" y2="909.752"/><polygon fill="#64B5F6" points="834.8237,899.752,838.8237,909.752,842.8237,899.752,838.8237,903.752" style="stroke:#64B5F6;stroke-width:1;"/><line style="stroke:#64B5F6;stroke-width:1;" x1="1199.0859" x2="1199.0859" y1="794.1426" y2="829.1426"/><polygon fill="#64B5F6" points="1195.0859,819.1426,1199.0859,829.1426,1203.0859,819.1426,1199.0859,823.1426" style="stroke:#64B5F6;stroke-width:1;"/><line style="stroke:#64B5F6;stroke-width:1;" x1="1199.0859" x2="1199.0859" y1="861.9473" y2="896.9473"/><polygon fill="#64B5F6" points="1195.0859,886.9473,1199.0859,896.9473,1203.0859,886.9473,1199.0859,890.9473" style="stroke:#64B5F6;stroke-width:1;"/><line style="stroke:#64B5F6;stroke-width:1;" x1="1458.6116" x2="1458.6116" y1="789.3438" y2="824.3438"/><polygon fill="#64B5F6" points="1454.6116,814.3438,1458.6116,824.3438,1462.6116,814.3438,1458.6116,818.3438" style="stroke:#64B5F6;stroke-width:1;"/><line style="stroke:#64B5F6;stroke-width:1;" x1="1458.6116" x2="1458.6116" y1="857.1484" y2="892.1484"/><polygon fill="#64B5F6" points="1454.6116,882.1484,1458.6116,892.1484,1462.6116,882.1484,1458.6116,886.1484" style="stroke:#64B5F6;stroke-width:1;"/><line style="stroke:#64B5F6;stroke-width:1;" x1="1458.6116" x2="1458.6116" y1="924.9531" y2="959.9531"/><polygon fill="#64B5F6" points="1454.6116,949.9531,1458.6116,959.9531,1462.6116,949.9531,1458.6116,953.9531" style="stroke:#64B5F6;stroke-width:1;"/><line style="stroke:#64B5F6;stroke-width:1;" x1="838.8237" x2="838.8237" y1="741.3379" y2="774.1426"/><polygon fill="#64B5F6" points="834.8237,764.1426,838.8237,774.1426,842.8237,764.1426,838.8237,768.1426" style="stroke:#64B5F6;stroke-width:1;"/><line style="stroke:#64B5F6;stroke-width:1;" x1="838.8237" x2="838.8237" y1="942.5566" y2="1056.959"/><polygon fill="#64B5F6" points="834.8237,1046.959,838.8237,1056.959,842.8237,1046.959,838.8237,1050.959" style="stroke:#64B5F6;stroke-width:1;"/><line style="stroke:#64B5F6;stroke-width:1;" x1="1199.0859" x2="1199.0859" y1="741.3379" y2="761.3379"/><polygon fill="#64B5F6" points="1195.0859,751.3379,1199.0859,761.3379,1203.0859,751.3379,1199.0859,755.3379" style="stroke:#64B5F6;stroke-width:1;"/><line style="stroke:#64B5F6;stroke-width:1;" x1="1199.0859" x2="1199.0859" y1="929.752" y2="1056.959"/><polygon fill="#64B5F6" points="1195.0859,1046.959,1199.0859,1056.959,1203.0859,1046.959,1199.0859,1050.959" style="stroke:#64B5F6;stroke-width:1;"/><line style="stroke:#64B5F6;stroke-width:1;" x1="901.5859" x2="1137.5134" y1="729.3379" y2="729.3379"/><polygon fill="#64B5F6" points="1127.5134,725.3379,1137.5134,729.3379,1127.5134,733.3379,1131.5134,729.3379" style="stroke:#64B5F6;stroke-width:1;"/><line style="stroke:#64B5F6;stroke-width:1;" x1="1108.3494" x2="1108.3494" y1="657.3379" y2="692.3379"/><line style="stroke:#64B5F6;stroke-width:1;" x1="1108.3494" x2="838.8237" y1="692.3379" y2="692.3379"/><line style="stroke:#64B5F6;stroke-width:1;" x1="838.8237" x2="838.8237" y1="692.3379" y2="717.3379"/><polygon fill="#64B5F6" points="834.8237,707.3379,838.8237,717.3379,842.8237,707.3379,838.8237,711.3379" style="stroke:#64B5F6;stroke-width:1;"/><line style="stroke:#64B5F6;stroke-width:1;" x1="1260.6584" x2="1458.6116" y1="729.3379" y2="729.3379"/><line style="stroke:#64B5F6;stroke-width:1;" x1="1458.6116" x2="1458.6116" y1="729.3379" y2="756.5391"/><polygon fill="#64B5F6" points="1454.6116,746.5391,1458.6116,756.5391,1462.6116,746.5391,1458.6116,750.5391" style="stroke:#64B5F6;stroke-width:1;"/><line style="stroke:#64B5F6;stroke-width:1;" x1="1458.6116" x2="1458.6116" y1="992.7578" y2="1056.959"/><polygon fill="#64B5F6" points="1454.6116,1046.959,1458.6116,1056.959,1462.6116,1046.959,1458.6116,1050.959" style="stroke:#64B5F6;stroke-width:1;"/><line style="stroke:#64B5F6;stroke-width:1;" x1="838.8237" x2="1458.6116" y1="1056.959" y2="1056.959"/><line style="stroke:#64B5F6;stroke-width:1;" x1="1796.5996" x2="1796.5996" y1="585.9297" y2="620.9297"/><polygon fill="#64B5F6" points="1792.5996,610.9297,1796.5996,620.9297,1800.5996,610.9297,1796.5996,614.9297" style="stroke:#64B5F6;stroke-width:1;"/><line style="stroke:#64B5F6;stroke-width:1;" x1="1796.5996" x2="1796.5996" y1="653.7344" y2="688.7344"/><polygon fill="#64B5F6" points="1792.5996,678.7344,1796.5996,688.7344,1800.5996,678.7344,1796.5996,682.7344" style="stroke:#64B5F6;stroke-width:1;"/><line style="stroke:#64B5F6;stroke-width:1;" x1="1796.5996" x2="1796.5996" y1="721.5391" y2="756.5391"/><polygon fill="#64B5F6" points="1792.5996,746.5391,1796.5996,756.5391,1800.5996,746.5391,1796.5996,750.5391" style="stroke:#64B5F6;stroke-width:1;"/><line style="stroke:#64B5F6;stroke-width:1;" x1="1796.5996" x2="1796.5996" y1="789.3438" y2="824.3438"/><polygon fill="#64B5F6" points="1792.5996,814.3438,1796.5996,824.3438,1800.5996,814.3438,1796.5996,818.3438" style="stroke:#64B5F6;stroke-width:1;"/><line style="stroke:#64B5F6;stroke-width:1;" x1="1796.5996" x2="1796.5996" y1="857.1484" y2="892.1484"/><polygon fill="#64B5F6" points="1792.5996,882.1484,1796.5996,892.1484,1800.5996,882.1484,1796.5996,886.1484" style="stroke:#64B5F6;stroke-width:1;"/><line style="stroke:#64B5F6;stroke-width:1;" x1="1796.5996" x2="1796.5996" y1="924.9531" y2="959.9531"/><polygon fill="#64B5F6" points="1792.5996,949.9531,1796.5996,959.9531,1800.5996,949.9531,1796.5996,953.9531" style="stroke:#64B5F6;stroke-width:1;"/><line style="stroke:#64B5F6;stroke-width:1;" x1="1796.5996" x2="1796.5996" y1="992.7578" y2="1027.7578"/><polygon fill="#64B5F6" points="1792.5996,1017.7578,1796.5996,1027.7578,1800.5996,1017.7578,1796.5996,1021.7578" style="stroke:#64B5F6;stroke-width:1;"/><line style="stroke:#64B5F6;stroke-width:1;" x1="2346.678" x2="2346.678" y1="520.0273" y2="555.0273"/><polygon fill="#64B5F6" points="2342.678,545.0273,2346.678,555.0273,2350.678,545.0273,2346.678,549.0273" style="stroke:#64B5F6;stroke-width:1;"/><line style="stroke:#64B5F6;stroke-width:1;" x1="2346.678" x2="2346.678" y1="587.832" y2="622.832"/><polygon fill="#64B5F6" points="2342.678,612.832,2346.678,622.832,2350.678,612.832,2346.678,616.832" style="stroke:#64B5F6;stroke-width:1;"/><line style="stroke:#64B5F6;stroke-width:1;" x1="2346.678" x2="2346.678" y1="655.6367" y2="690.6367"/><polygon fill="#64B5F6" points="2342.678,680.6367,2346.678,690.6367,2350.678,680.6367,2346.678,684.6367" style="stroke:#64B5F6;stroke-width:1;"/><line style="stroke:#64B5F6;stroke-width:1;" x1="2183.7209" x2="2183.7209" y1="825.2461" y2="860.2461"/><polygon fill="#64B5F6" points="2179.7209,850.2461,2183.7209,860.2461,2187.7209,850.2461,2183.7209,854.2461" style="stroke:#64B5F6;stroke-width:1;"/><line style="stroke:#64B5F6;stroke-width:1;" x1="2183.7209" x2="2183.7209" y1="893.0508" y2="928.0508"/><polygon fill="#64B5F6" points="2179.7209,918.0508,2183.7209,928.0508,2187.7209,918.0508,2183.7209,922.0508" style="stroke:#64B5F6;stroke-width:1;"/><line style="stroke:#64B5F6;stroke-width:1;" x1="2183.7209" x2="2183.7209" y1="960.8555" y2="995.8555"/><polygon fill="#64B5F6" points="2179.7209,985.8555,2183.7209,995.8555,2187.7209,985.8555,2183.7209,989.8555" style="stroke:#64B5F6;stroke-width:1;"/><line style="stroke:#64B5F6;stroke-width:1;" x1="2183.7209" x2="2183.7209" y1="1028.6602" y2="1063.6602"/><polygon fill="#64B5F6" points="2179.7209,1053.6602,2183.7209,1063.6602,2187.7209,1053.6602,2183.7209,1057.6602" style="stroke:#64B5F6;stroke-width:1;"/><line style="stroke:#64B5F6;stroke-width:1;" x1="2509.635" x2="2509.635" y1="825.2461" y2="860.2461"/><polygon fill="#64B5F6" points="2505.635,850.2461,2509.635,860.2461,2513.635,850.2461,2509.635,854.2461" style="stroke:#64B5F6;stroke-width:1;"/><line style="stroke:#64B5F6;stroke-width:1;" x1="2509.635" x2="2509.635" y1="893.0508" y2="928.0508"/><polygon fill="#64B5F6" points="2505.635,918.0508,2509.635,928.0508,2513.635,918.0508,2509.635,922.0508" style="stroke:#64B5F6;stroke-width:1;"/><line style="stroke:#64B5F6;stroke-width:1;" x1="2509.635" x2="2509.635" y1="960.8555" y2="995.8555"/><polygon fill="#64B5F6" points="2505.635,985.8555,2509.635,995.8555,2513.635,985.8555,2509.635,989.8555" style="stroke:#64B5F6;stroke-width:1;"/><line style="stroke:#64B5F6;stroke-width:1;" x1="2282.7798" x2="2183.7209" y1="770.4414" y2="770.4414"/><line style="stroke:#64B5F6;stroke-width:1;" x1="2183.7209" x2="2183.7209" y1="770.4414" y2="792.4414"/><polygon fill="#64B5F6" points="2179.7209,782.4414,2183.7209,792.4414,2187.7209,782.4414,2183.7209,786.4414" style="stroke:#64B5F6;stroke-width:1;"/><line style="stroke:#64B5F6;stroke-width:1;" x1="2410.5762" x2="2509.635" y1="770.4414" y2="770.4414"/><line style="stroke:#64B5F6;stroke-width:1;" x1="2509.635" x2="2509.635" y1="770.4414" y2="792.4414"/><polygon fill="#64B5F6" points="2505.635,782.4414,2509.635,792.4414,2513.635,782.4414,2509.635,786.4414" style="stroke:#64B5F6;stroke-width:1;"/><line style="stroke:#64B5F6;stroke-width:1;" x1="2183.7209" x2="2183.7209" y1="1096.4648" y2="1114.4648"/><line style="stroke:#64B5F6;stroke-width:1;" x1="2183.7209" x2="2334.678" y1="1114.4648" y2="1114.4648"/><polygon fill="#64B5F6" points="2324.678,1110.4648,2334.678,1114.4648,2324.678,1118.4648,2328.678,1114.4648" style="stroke:#64B5F6;stroke-width:1;"/><line style="stroke:#64B5F6;stroke-width:1;" x1="2509.635" x2="2509.635" y1="1028.6602" y2="1114.4648"/><line style="stroke:#64B5F6;stroke-width:1;" x1="2509.635" x2="2358.678" y1="1114.4648" y2="1114.4648"/><polygon fill="#64B5F6" points="2368.678,1110.4648,2358.678,1114.4648,2368.678,1118.4648,2364.678,1114.4648" style="stroke:#64B5F6;stroke-width:1;"/><line style="stroke:#64B5F6;stroke-width:1;" x1="2346.678" x2="2346.678" y1="723.4414" y2="758.4414"/><polygon fill="#64B5F6" points="2342.678,748.4414,2346.678,758.4414,2350.678,748.4414,2346.678,752.4414" style="stroke:#64B5F6;stroke-width:1;"/><line style="stroke:#64B5F6;stroke-width:1;" x1="2858.6672" x2="2858.6672" y1="619.832" y2="654.832"/><polygon fill="#64B5F6" points="2854.6672,644.832,2858.6672,654.832,2862.6672,644.832,2858.6672,648.832" style="stroke:#64B5F6;stroke-width:1;"/><line style="stroke:#64B5F6;stroke-width:1;" x1="2858.6672" x2="2858.6672" y1="687.6367" y2="722.6367"/><polygon fill="#64B5F6" points="2854.6672,712.6367,2858.6672,722.6367,2862.6672,712.6367,2858.6672,716.6367" style="stroke:#64B5F6;stroke-width:1;"/><line style="stroke:#64B5F6;stroke-width:1;" x1="2858.6672" x2="2858.6672" y1="755.4414" y2="790.4414"/><polygon fill="#64B5F6" points="2854.6672,780.4414,2858.6672,790.4414,2862.6672,780.4414,2858.6672,784.4414" style="stroke:#64B5F6;stroke-width:1;"/><line style="stroke:#64B5F6;stroke-width:1;" x1="2858.6672" x2="2858.6672" y1="823.2461" y2="858.2461"/><polygon fill="#64B5F6" points="2854.6672,848.2461,2858.6672,858.2461,2862.6672,848.2461,2858.6672,852.2461" style="stroke:#64B5F6;stroke-width:1;"/><line style="stroke:#64B5F6;stroke-width:1;" x1="2858.6672" x2="2858.6672" y1="891.0508" y2="926.0508"/><polygon fill="#64B5F6" points="2854.6672,916.0508,2858.6672,926.0508,2862.6672,916.0508,2858.6672,920.0508" style="stroke:#64B5F6;stroke-width:1;"/><line style="stroke:#64B5F6;stroke-width:1;" x1="2858.6672" x2="2858.6672" y1="958.8555" y2="993.8555"/><polygon fill="#64B5F6" points="2854.6672,983.8555,2858.6672,993.8555,2862.6672,983.8555,2858.6672,987.8555" style="stroke:#64B5F6;stroke-width:1;"/><line style="stroke:#64B5F6;stroke-width:1;" x1="300.3469" x2="300.3469" y1="433.3203" y2="453.3203"/><polygon fill="#64B5F6" points="296.3469,443.3203,300.3469,453.3203,304.3469,443.3203,300.3469,447.3203" style="stroke:#64B5F6;stroke-width:1;"/><line style="stroke:#64B5F6;stroke-width:1;" x1="1108.3494" x2="1108.3494" y1="433.3203" y2="556.7285"/><polygon fill="#64B5F6" points="1104.3494,546.7285,1108.3494,556.7285,1112.3494,546.7285,1108.3494,550.7285" style="stroke:#64B5F6;stroke-width:1;"/><line style="stroke:#64B5F6;stroke-width:1;" x1="1796.5996" x2="1796.5996" y1="433.3203" y2="553.125"/><polygon fill="#64B5F6" points="1792.5996,543.125,1796.5996,553.125,1800.5996,543.125,1796.5996,547.125" style="stroke:#64B5F6;stroke-width:1;"/><line style="stroke:#64B5F6;stroke-width:1;" x1="2346.678" x2="2346.678" y1="433.3203" y2="487.2227"/><polygon fill="#64B5F6" points="2342.678,477.2227,2346.678,487.2227,2350.678,477.2227,2346.678,481.2227" style="stroke:#64B5F6;stroke-width:1;"/><line style="stroke:#64B5F6;stroke-width:1;" x1="2858.6672" x2="2858.6672" y1="433.3203" y2="587.0273"/><polygon fill="#64B5F6" points="2854.6672,577.0273,2858.6672,587.0273,2862.6672,577.0273,2858.6672,581.0273" style="stroke:#64B5F6;stroke-width:1;"/><line style="stroke:#64B5F6;stroke-width:1;" x1="300.3469" x2="300.3469" y1="1160.3672" y2="1180.3672"/><polygon fill="#64B5F6" points="296.3469,1170.3672,300.3469,1180.3672,304.3469,1170.3672,300.3469,1174.3672" style="stroke:#64B5F6;stroke-width:1;"/><line style="stroke:#64B5F6;stroke-width:1;" x1="1108.3494" x2="1108.3494" y1="1056.959" y2="1180.3672"/><polygon fill="#64B5F6" points="1104.3494,1170.3672,1108.3494,1180.3672,1112.3494,1170.3672,1108.3494,1174.3672" style="stroke:#64B5F6;stroke-width:1;"/><line style="stroke:#64B5F6;stroke-width:1;" x1="1796.5996" x2="1796.5996" y1="1060.5625" y2="1180.3672"/><polygon fill="#64B5F6" points="1792.5996,1170.3672,1796.5996,1180.3672,1800.5996,1170.3672,1796.5996,1174.3672" style="stroke:#64B5F6;stroke-width:1;"/><line style="stroke:#64B5F6;stroke-width:1;" x1="2346.678" x2="2346.678" y1="1126.4648" y2="1180.3672"/><polygon fill="#64B5F6" points="2342.678,1170.3672,2346.678,1180.3672,2350.678,1170.3672,2346.678,1174.3672" style="stroke:#64B5F6;stroke-width:1;"/><line style="stroke:#64B5F6;stroke-width:1;" x1="2858.6672" x2="2858.6672" y1="1026.6602" y2="1180.3672"/><polygon fill="#64B5F6" points="2854.6672,1170.3672,2858.6672,1180.3672,2862.6672,1170.3672,2858.6672,1174.3672" style="stroke:#64B5F6;stroke-width:1;"/><line style="stroke:#64B5F6;stroke-width:1;" x1="1558.5352" x2="1558.5352" y1="407.3203" y2="427.3203"/><polygon fill="#64B5F6" points="1554.5352,417.3203,1558.5352,427.3203,1562.5352,417.3203,1558.5352,421.3203" style="stroke:#64B5F6;stroke-width:1;"/><line style="stroke:#64B5F6;stroke-width:1;" x1="1558.5352" x2="1558.5352" y1="1186.3672" y2="1206.3672"/><polygon fill="#64B5F6" points="1554.5352,1196.3672,1558.5352,1206.3672,1562.5352,1196.3672,1558.5352,1200.3672" style="stroke:#64B5F6;stroke-width:1;"/><line style="stroke:#64B5F6;stroke-width:1;" x1="1558.5352" x2="1558.5352" y1="1239.1719" y2="1259.1719"/><polygon fill="#64B5F6" points="1554.5352,1249.1719,1558.5352,1259.1719,1562.5352,1249.1719,1558.5352,1253.1719" style="stroke:#64B5F6;stroke-width:1;"/><?plantuml-src jLVhRjis5FxlfpZpVin9tNJ9cXQDCGo-o9cnnitiD2Wm304ZqGeNcTH8oaisx7ssv-YBxJkKRCcks-vFWQ29o7FvpdTkx5V-JYubvPbGkjLozqhdmeebtOhuFhMcqCdGPCRIrz5tuvFng2aYOgzMoZ_INosYmQxyO32AnWE-CJQHjZezVlNonUW4fsEZVNNsxV7forU3wcok_fHqVDBwUv-dlhNcZ-2kKdtnV70wVh5VUAJ4qkXaFxegcXrqpq_wf-FJlUYsNE1Vhxmo-aiOryRBBs4NY3DPK_nytzMsUYsGo8KeCiyYKu5oQSzbQYIzdRJt2vKkZbkjO9aE3mVzmMGyUKVzPAdquI4z9QGdXHQC9T_qovIz_vVEw5owmEpGBFFi_J_W8Ybe_kWybsbdz9lGgQ4dzEFLnRi3XEUHYbRhh1_74fIGAEXIQ9cLZZRoLnB6X9TkhTbhdSqbnKPh6NlehPIWkNGEdXrjd0pdit4Frg-bLGi5iTyBITOWek-fBTX36zTgGHtsx-3T6wkSf1yE27q5_wPG1qZDMNKVnvmvHfa8TtThX4rwBPb1ewED3f8pcIWBKCp1Ibg7Oal1WQJCf4ht8EAyoLjI9sh1WIyMAhu3jD7Q8ELMwLZb8WEsXR7tBJPxBJALY63rqe9YuGNSEBPtTY5rGUtcCG6xy5vgBzj1P7WdR0elcNAS4KZaJN6naZ7nP-7fCfgE9jFpe3QNMHcAXcwXAJ6WMDfm5pq848Zp_CvuGyFf18mh3SJBWDEH4mhI0ID-cEQHZ1Ndg2Oun2KjKySmCuKKMMhtynoT0_u2_12ZznRCqs-cW4jhLgnsL656Eg_xhoUZw3FYojq8jhoI2NIyBMGb7-cLUOHZD2yg9Iw97WylgCrr3CfM0MSmN-Px9XU5sm2VSwYMbgpEoRPyI-OsKwdm1XptTWAirFztUBDe_7Q-2I_ILgP8fOMfu4faDrOAP_Hdund9fT1hX5AYOty9g7yjOolBaikEH1fs2gnjUXejcA93jkgkFcmtCjqlEy2PuaueBnijDRGo04DsiqnM_BqfLXRySV4K6TSanOY7JLG1pNW2ADPRThb-OwjolkwImXIGNK9ZMfv58ZGKUgvId4pdqUoA9jEhDnINK1-vM_UQkN5PaLQsRZQMkc4dBGxMoUVuBanIZXJvW3m8DDgw4fej4w-vMQTvhGN_zAm905y10Nu7xvN2syjH_oggWS-ZApewEghBS2HTM9Xr9NxA_wRyQhNs9po5i55z2m5VQnDhaq2_KfWmwFaLYlyMKpNduiqmJ-ACRzp7AsgEmWPlZ0R3ojCCRMciRzPLKwGSOZE9lta9p7z-3Lje0OcF3WQOjAjovdGnRXKs3PntgV0Aymvu2-iEoZ4eihZ8GjEiuCIHDruK3rriakLILUkZsdLT6lQtbP2qMolBzgvTKWVhingUx1xjYtLZ4hdZieccP9RHDgTmEMDA3iubyWSjxDZyRaFJJvUJQbZp5Ypj0mAsDbUYHp4oYnnVnITMu7Nl0_QRosHD5qKkb_7sHjdSrUk4EhAKE_ZOOjdYvYgQNKocKLI2NkU6elbbD8pcO5HNKU_4aaXmacqPmtP9P9pXgLAQBcliMOF1nlYfrahjSNUZDvkX4jxfX5my1ark1A09KpWyQb22xMu5-mRvlWalYTrzKW_ekhOG0fwqF2re1pR32NDHRXI3ymt-cYM8JiDKv_1gAtMwAbcyqSwHS4U9ShdHtA2kiR-O-gT8crUftBV4K4sc7CfUnVVuSaKegS-Jz3hOR7ygh14W5Vw3SCgKikiTUlOF4LvoYgQD5UVeF3Et8jigusq161-A9HvbUZrMEAa6PSRFQF3u10cpkUDdwn8locgJRC_LX1UYNlTjnvjYC_Ew5BwQZTqb9zCGDxSEiA3iok7mffpzP_p_Drtjan2KAS8VlC8LtjY94ZumrsirbZi_UiTmS2kGq65cYeGk0cAbK-fWsnzKudKjUYjYjAa04Lxmo6wIWq41egbySvxXhSR1FZ10m5cWn55KhdnazrhyYlqF?></g></svg>