<svg xmlns="http://www.w3.org/2000/svg" xmlns:xlink="http://www.w3.org/1999/xlink" contentStyleType="text/css" data-diagram-type="ACTIVITY" height="3323px" preserveAspectRatio="none" style="width:809px;height:3323px;background:#E3F2FD;" version="1.1" viewBox="0 0 809 3323" width="809px" zoomAndPan="magnify"><?plantuml 1.2026.3beta6?><defs/><g><rect fill="#E3F2FD" height="3323" style="stroke:none;stroke-width:1;" width="809" x="0" y="0"/><g class="title" data-source-line="33"><text fill="#01579B" font-family="Segoe UI" font-size="14" font-weight="700" lengthAdjust="spacing" textLength="62.9521" x="74.7864" y="27.9951">BABIFIX</text><text fill="#01579B" font-family="Segoe UI" font-size="14" font-weight="700" lengthAdjust="spacing" textLength="590.5156" x="142.6125" y="27.9951">- Diagramme d'Activite : Flux Reservation Client (Nouveau Parcours Devis)</text></g><rect fill="#E3F2FD" height="163.4141" style="stroke:#42A5F5;stroke-width:1;" width="238.8271" x="397.176" y="48.2969"/><path d="M439.0212,48.2969 L439.0212,54.1016 L429.0212,64.1016 L397.176,64.1016" fill="none" style="stroke:#42A5F5;stroke-width:1;"/><text fill="#01579B" font-family="Segoe UI" font-size="11" lengthAdjust="spacing" textLength="31.8452" x="400.176" y="59.5073">Client</text><ellipse cx="516.5895" cy="84.1016" fill="#FFFFFF" rx="10" ry="10" style="stroke:#000000;stroke-width:1;"/><rect fill="#BBDEFB" height="32.8047" rx="12.5" ry="12.5" style="stroke:#1976D2;stroke-width:1;" width="170.96" x="431.1096" y="114.1016"/><text fill="#01579B" font-family="Segoe UI" font-size="11" lengthAdjust="spacing" textLength="150.96" x="441.1096" y="134.312">Ouvrir l'application BABIFIX</text><rect fill="#BBDEFB" height="32.8047" rx="12.5" ry="12.5" style="stroke:#1976D2;stroke-width:1;" width="218.8271" x="407.176" y="166.9063"/><text fill="#01579B" font-family="Segoe UI" font-size="11" lengthAdjust="spacing" textLength="198.8271" x="417.176" y="187.1167">Consulter les categories de services</text><rect fill="#E3F2FD" height="339.6328" style="stroke:#42A5F5;stroke-width:1;" width="386.0486" x="345.4479" y="221.7109"/><path d="M403.2346,221.7109 L403.2346,227.5156 L393.2346,237.5156 L345.4479,237.5156" fill="none" style="stroke:#42A5F5;stroke-width:1;"/><text fill="#01579B" font-family="Segoe UI" font-size="11" lengthAdjust="spacing" textLength="47.7866" x="348.4479" y="232.9214">Systeme</text><polygon fill="#E3F2FD" points="443.0539,254.5156,590.1252,254.5156,602.1252,266.5156,590.1252,278.5156,443.0539,278.5156,431.0539,266.5156,443.0539,254.5156" style="stroke:#42A5F5;stroke-width:1;"/><text fill="#01579B" font-family="Segoe UI" font-size="11" lengthAdjust="spacing" textLength="147.0713" x="443.0539" y="270.3237">Utilisateur deja connecte ?</text><text fill="#000000" font-family="Segoe UI" font-size="11" lengthAdjust="spacing" textLength="16.7578" x="414.2961" y="263.9214">oui</text><text fill="#000000" font-family="Segoe UI" font-size="11" lengthAdjust="spacing" textLength="20.6733" x="602.1252" y="263.9214">non</text><rect fill="#BBDEFB" height="32.8047" rx="12.5" ry="12.5" style="stroke:#1976D2;stroke-width:1;" width="111.2119" x="365.4479" y="288.5156"/><text fill="#01579B" font-family="Segoe UI" font-size="11" lengthAdjust="spacing" textLength="91.2119" x="375.4479" y="308.7261">Continuer le flux</text><rect fill="#E3F2FD" height="143.2188" style="stroke:#42A5F5;stroke-width:1;" width="194.4619" x="514.8942" y="288.5156"/><path d="M556.7394,288.5156 L556.7394,294.3203 L546.7394,304.3203 L514.8942,304.3203" fill="none" style="stroke:#42A5F5;stroke-width:1;"/><text fill="#01579B" font-family="Segoe UI" font-size="11" lengthAdjust="spacing" textLength="31.8452" x="517.8942" y="299.7261">Client</text><rect fill="#BBDEFB" height="32.8047" rx="12.5" ry="12.5" style="stroke:#1976D2;stroke-width:1;" width="162.5112" x="530.8696" y="321.3203"/><text fill="#01579B" font-family="Segoe UI" font-size="11" lengthAdjust="spacing" textLength="142.5112" x="540.8696" y="341.5308">S'inscrire ou se connecter</text><rect fill="#BBDEFB" height="45.6094" rx="12.5" ry="12.5" style="stroke:#1976D2;stroke-width:1;" width="174.4619" x="524.8942" y="374.125"/><text fill="#01579B" font-family="Segoe UI" font-size="11" lengthAdjust="spacing" textLength="154.4619" x="534.8942" y="394.3354">Authentification JWT Django</text><text fill="#01579B" font-family="Segoe UI" font-size="11" lengthAdjust="spacing" textLength="124.4697" x="534.8942" y="407.1401">(POST /api/auth/login/)</text><rect fill="#E3F2FD" height="77.6094" style="stroke:#42A5F5;stroke-width:1;" width="198.7427" x="512.7538" y="441.7344"/><path d="M570.5405,441.7344 L570.5405,447.5391 L560.5405,457.5391 L512.7538,457.5391" fill="none" style="stroke:#42A5F5;stroke-width:1;"/><text fill="#01579B" font-family="Segoe UI" font-size="11" lengthAdjust="spacing" textLength="47.7866" x="515.7538" y="452.9448">Systeme</text><rect fill="#BBDEFB" height="32.8047" rx="12.5" ry="12.5" style="stroke:#1976D2;stroke-width:1;" width="178.7427" x="522.7538" y="474.5391"/><text fill="#01579B" font-family="Segoe UI" font-size="11" lengthAdjust="spacing" textLength="158.7427" x="532.7538" y="494.7495">Verifier que le role = "client"</text><polygon fill="#E3F2FD" points="516.5895,525.3438,528.5895,537.3438,516.5895,549.3438,504.5895,537.3438,516.5895,525.3438" style="stroke:#42A5F5;stroke-width:1;"/><rect fill="#E3F2FD" height="77.6094" style="stroke:#42A5F5;stroke-width:1;" width="188.5859" x="422.2966" y="571.3438"/><path d="M464.1418,571.3438 L464.1418,577.1484 L454.1418,587.1484 L422.2966,587.1484" fill="none" style="stroke:#42A5F5;stroke-width:1;"/><text fill="#01579B" font-family="Segoe UI" font-size="11" lengthAdjust="spacing" textLength="31.8452" x="425.2966" y="582.5542">Client</text><rect fill="#BBDEFB" height="32.8047" rx="12.5" ry="12.5" style="stroke:#1976D2;stroke-width:1;" width="168.5859" x="432.2966" y="604.1484"/><text fill="#01579B" font-family="Segoe UI" font-size="11" lengthAdjust="spacing" textLength="148.5859" x="442.2966" y="624.3589">Selectionner une categorie</text><rect fill="#E3F2FD" height="130.4141" style="stroke:#42A5F5;stroke-width:1;" width="381.666" x="325.7565" y="658.9531"/><path d="M383.5432,658.9531 L383.5432,664.7578 L373.5432,674.7578 L325.7565,674.7578" fill="none" style="stroke:#42A5F5;stroke-width:1;"/><text fill="#01579B" font-family="Segoe UI" font-size="11" lengthAdjust="spacing" textLength="47.7866" x="328.7565" y="670.1636">Systeme</text><rect fill="#BBDEFB" height="32.8047" rx="12.5" ry="12.5" style="stroke:#1976D2;stroke-width:1;" width="302.8096" x="365.1848" y="691.7578"/><text fill="#01579B" font-family="Segoe UI" font-size="11" lengthAdjust="spacing" textLength="282.8096" x="375.1848" y="711.9683">Charger la liste des prestataires disponibles via API</text><rect fill="#BBDEFB" height="32.8047" rx="12.5" ry="12.5" style="stroke:#1976D2;stroke-width:1;" width="361.666" x="335.7565" y="744.5625"/><text fill="#01579B" font-family="Segoe UI" font-size="11" lengthAdjust="spacing" textLength="341.666" x="345.7565" y="764.7729">Appliquer les filtres (note moyenne, tarif, disponibilite, ville...)</text><rect fill="#E3F2FD" height="183.2188" style="stroke:#42A5F5;stroke-width:1;" width="222.123" x="405.528" y="799.3672"/><path d="M447.3732,799.3672 L447.3732,805.1719 L437.3732,815.1719 L405.528,815.1719" fill="none" style="stroke:#42A5F5;stroke-width:1;"/><text fill="#01579B" font-family="Segoe UI" font-size="11" lengthAdjust="spacing" textLength="31.8452" x="408.528" y="810.5776">Client</text><rect fill="#BBDEFB" height="32.8047" rx="12.5" ry="12.5" style="stroke:#1976D2;stroke-width:1;" width="202.123" x="415.528" y="832.1719"/><text fill="#01579B" font-family="Segoe UI" font-size="11" lengthAdjust="spacing" textLength="182.123" x="425.528" y="852.3823">Parcourir la liste des prestataires</text><rect fill="#BBDEFB" height="32.8047" rx="12.5" ry="12.5" style="stroke:#1976D2;stroke-width:1;" width="200.2646" x="416.4572" y="884.9766"/><text fill="#01579B" font-family="Segoe UI" font-size="11" lengthAdjust="spacing" textLength="180.2646" x="426.4572" y="905.187">Consulter le profil detaille + avis</text><rect fill="#BBDEFB" height="32.8047" rx="12.5" ry="12.5" style="stroke:#1976D2;stroke-width:1;" width="139.1416" x="447.0187" y="937.7813"/><text fill="#01579B" font-family="Segoe UI" font-size="11" lengthAdjust="spacing" textLength="119.1416" x="457.0187" y="957.9917">Choisir un prestataire</text><rect fill="#E3F2FD" height="90.4141" style="stroke:#42A5F5;stroke-width:1;" width="245.0254" x="394.0768" y="992.5859"/><path d="M451.8635,992.5859 L451.8635,998.3906 L441.8635,1008.3906 L394.0768,1008.3906" fill="none" style="stroke:#42A5F5;stroke-width:1;"/><text fill="#01579B" font-family="Segoe UI" font-size="11" lengthAdjust="spacing" textLength="47.7866" x="397.0768" y="1003.7964">Systeme</text><rect fill="#BBDEFB" height="45.6094" rx="12.5" ry="12.5" style="stroke:#1976D2;stroke-width:1;" width="225.0254" x="404.0768" y="1025.3906"/><text fill="#01579B" font-family="Segoe UI" font-size="11" lengthAdjust="spacing" textLength="205.0254" x="414.0768" y="1045.6011">Verifier la disponibilite du prestataire</text><text fill="#01579B" font-family="Segoe UI" font-size="11" lengthAdjust="spacing" textLength="175.5166" x="414.0768" y="1058.4058">(API check-provider-availability)</text><rect fill="#E3F2FD" height="341.6328" style="stroke:#42A5F5;stroke-width:1;" width="276.4033" x="378.3879" y="1093"/><path d="M420.2331,1093 L420.2331,1098.8047 L410.2331,1108.8047 L378.3879,1108.8047" fill="none" style="stroke:#42A5F5;stroke-width:1;"/><text fill="#01579B" font-family="Segoe UI" font-size="11" lengthAdjust="spacing" textLength="31.8452" x="381.3879" y="1104.2104">Client</text><rect fill="#BBDEFB" height="32.8047" rx="12.5" ry="12.5" style="stroke:#1976D2;stroke-width:1;" width="256.4033" x="388.3879" y="1125.8047"/><text fill="#01579B" font-family="Segoe UI" font-size="11" lengthAdjust="spacing" textLength="236.4033" x="398.3879" y="1146.0151">Decrire le probleme (description + photos)</text><rect fill="#BBDEFB" height="32.8047" rx="12.5" ry="12.5" style="stroke:#1976D2;stroke-width:1;" width="167.3291" x="432.925" y="1178.6094"/><text fill="#01579B" font-family="Segoe UI" font-size="11" lengthAdjust="spacing" textLength="147.3291" x="442.925" y="1198.8198">Selectionner date et heure</text><rect fill="#BBDEFB" height="32.8047" rx="12.5" ry="12.5" style="stroke:#1976D2;stroke-width:1;" width="183.3618" x="424.9086" y="1231.4141"/><text fill="#01579B" font-family="Segoe UI" font-size="11" lengthAdjust="spacing" textLength="163.3618" x="434.9086" y="1251.6245">Saisir l'adresse d'intervention</text><rect fill="#BBDEFB" height="32.8047" rx="12.5" ry="12.5" style="stroke:#1976D2;stroke-width:1;" width="191.3218" x="420.9286" y="1284.2188"/><text fill="#01579B" font-family="Segoe UI" font-size="11" lengthAdjust="spacing" textLength="171.3218" x="430.9286" y="1304.4292">Ajouter un message (facultatif)</text><rect fill="#BBDEFB" height="32.8047" rx="12.5" ry="12.5" style="stroke:#1976D2;stroke-width:1;" width="156.415" x="438.382" y="1337.0234"/><text fill="#01579B" font-family="Segoe UI" font-size="11" lengthAdjust="spacing" textLength="136.415" x="448.382" y="1357.2339">Visualiser le recapitulatif</text><rect fill="#BBDEFB" height="32.8047" rx="12.5" ry="12.5" style="stroke:#1976D2;stroke-width:1;" width="133.6792" x="449.7499" y="1389.8281"/><text fill="#01579B" font-family="Segoe UI" font-size="11" lengthAdjust="spacing" textLength="113.6792" x="459.7499" y="1410.0386">Envoyer la demande</text><rect fill="#E3F2FD" height="196.0234" style="stroke:#42A5F5;stroke-width:1;" width="297.2109" x="367.9841" y="1444.6328"/><path d="M425.7707,1444.6328 L425.7707,1450.4375 L415.7707,1460.4375 L367.9841,1460.4375" fill="none" style="stroke:#42A5F5;stroke-width:1;"/><text fill="#01579B" font-family="Segoe UI" font-size="11" lengthAdjust="spacing" textLength="47.7866" x="370.9841" y="1455.8433">Systeme</text><rect fill="#BBDEFB" height="45.6094" rx="12.5" ry="12.5" style="stroke:#1976D2;stroke-width:1;" width="202.1768" x="415.5012" y="1477.4375"/><text fill="#01579B" font-family="Segoe UI" font-size="11" lengthAdjust="spacing" textLength="182.1768" x="425.5012" y="1497.6479">Creer la reservation via API REST</text><text fill="#01579B" font-family="Segoe UI" font-size="11" lengthAdjust="spacing" textLength="167.5459" x="425.5012" y="1510.4526">(POST /api/client/reservations)</text><rect fill="#BBDEFB" height="32.8047" rx="12.5" ry="12.5" style="stroke:#1976D2;stroke-width:1;" width="222.3721" x="405.4035" y="1543.0469"/><text fill="#01579B" font-family="Segoe UI" font-size="11" lengthAdjust="spacing" textLength="202.3721" x="415.4035" y="1563.2573">Definir statut = DEMANDE_ENVOYEE</text><rect fill="#BBDEFB" height="32.8047" rx="12.5" ry="12.5" style="stroke:#1976D2;stroke-width:1;" width="277.2109" x="377.9841" y="1595.8516"/><text fill="#01579B" font-family="Segoe UI" font-size="11" lengthAdjust="spacing" textLength="257.2109" x="387.9841" y="1616.062">Envoyer notification push au prestataire (FCM)</text><rect fill="#E3F2FD" height="183.2188" style="stroke:#42A5F5;stroke-width:1;" width="157.165" x="438.007" y="1650.6563"/><path d="M508.1149,1650.6563 L508.1149,1656.4609 L498.1149,1666.4609 L438.007,1666.4609" fill="none" style="stroke:#42A5F5;stroke-width:1;"/><text fill="#01579B" font-family="Segoe UI" font-size="11" lengthAdjust="spacing" textLength="60.1079" x="441.007" y="1661.8667">Prestataire</text><rect fill="#BBDEFB" height="32.8047" rx="12.5" ry="12.5" style="stroke:#1976D2;stroke-width:1;" width="136.7622" x="448.2084" y="1683.4609"/><text fill="#01579B" font-family="Segoe UI" font-size="11" lengthAdjust="spacing" textLength="116.7622" x="458.2084" y="1703.6714">Recevoir la demande</text><rect fill="#BBDEFB" height="32.8047" rx="12.5" ry="12.5" style="stroke:#1976D2;stroke-width:1;" width="137.165" x="448.007" y="1736.2656"/><text fill="#01579B" font-family="Segoe UI" font-size="11" lengthAdjust="spacing" textLength="117.165" x="458.007" y="1756.4761">Analyser le probleme</text><rect fill="#BBDEFB" height="32.8047" rx="12.5" ry="12.5" style="stroke:#1976D2;stroke-width:1;" width="113.3228" x="459.9282" y="1789.0703"/><text fill="#01579B" font-family="Segoe UI" font-size="11" lengthAdjust="spacing" textLength="93.3228" x="469.9282" y="1809.2808">Preparer le devis</text><rect fill="#E3F2FD" height="196.0234" style="stroke:#42A5F5;stroke-width:1;" width="282.8325" x="375.1733" y="1843.875"/><path d="M432.9599,1843.875 L432.9599,1849.6797 L422.9599,1859.6797 L375.1733,1859.6797" fill="none" style="stroke:#42A5F5;stroke-width:1;"/><text fill="#01579B" font-family="Segoe UI" font-size="11" lengthAdjust="spacing" textLength="47.7866" x="378.1733" y="1855.0854">Systeme</text><rect fill="#BBDEFB" height="45.6094" rx="12.5" ry="12.5" style="stroke:#1976D2;stroke-width:1;" width="262.8325" x="385.1733" y="1876.6797"/><text fill="#01579B" font-family="Segoe UI" font-size="11" lengthAdjust="spacing" textLength="146.271" x="395.1733" y="1896.8901">Prestataire envoie le devis</text><text fill="#01579B" font-family="Segoe UI" font-size="11" lengthAdjust="spacing" textLength="242.8325" x="395.1733" y="1909.6948">(POST /api/prestataire/requests/{ref}/devis)</text><rect fill="#BBDEFB" height="32.8047" rx="12.5" ry="12.5" style="stroke:#1976D2;stroke-width:1;" width="251.7197" x="390.7297" y="1942.2891"/><text fill="#01579B" font-family="Segoe UI" font-size="11" lengthAdjust="spacing" textLength="231.7197" x="400.7297" y="1962.4995">Mettre a jour reservation : DEVIS_ENVOYE</text><rect fill="#BBDEFB" height="32.8047" rx="12.5" ry="12.5" style="stroke:#1976D2;stroke-width:1;" width="143.1538" x="445.0126" y="1995.0938"/><text fill="#01579B" font-family="Segoe UI" font-size="11" lengthAdjust="spacing" textLength="123.1538" x="455.0126" y="2015.3042">Notifier le client (FCM)</text><rect fill="#E3F2FD" height="391.6328" style="stroke:#42A5F5;stroke-width:1;" width="783.9146" x="11" y="2049.8984"/><path d="M52.8452,2049.8984 L52.8452,2055.7031 L42.8452,2065.7031 L11,2065.7031" fill="none" style="stroke:#42A5F5;stroke-width:1;"/><text fill="#01579B" font-family="Segoe UI" font-size="11" lengthAdjust="spacing" textLength="31.8452" x="14" y="2061.1089">Client</text><polygon fill="#E3F2FD" points="482.7516,2082.7031,550.4274,2082.7031,562.4274,2094.7031,550.4274,2106.7031,482.7516,2106.7031,470.7516,2094.7031,482.7516,2082.7031" style="stroke:#42A5F5;stroke-width:1;"/><text fill="#01579B" font-family="Segoe UI" font-size="11" lengthAdjust="spacing" textLength="67.6758" x="482.7516" y="2098.5112">Devis recu ?</text><text fill="#000000" font-family="Segoe UI" font-size="11" lengthAdjust="spacing" textLength="16.7578" x="453.9938" y="2092.1089">oui</text><text fill="#000000" font-family="Segoe UI" font-size="11" lengthAdjust="spacing" textLength="74.5024" x="562.4274" y="2092.1089">non - timeout</text><rect fill="#BBDEFB" height="32.8047" rx="12.5" ry="12.5" style="stroke:#1976D2;stroke-width:1;" width="162.8442" x="234.5944" y="2116.7031"/><text fill="#01579B" font-family="Segoe UI" font-size="11" lengthAdjust="spacing" textLength="142.8442" x="244.5944" y="2136.9136">Consulter le devis detaille</text><polygon fill="#E3F2FD" points="263.9303,2169.5078,368.1027,2169.5078,380.1027,2181.5078,368.1027,2193.5078,263.9303,2193.5078,251.9303,2181.5078,263.9303,2169.5078" style="stroke:#42A5F5;stroke-width:1;"/><text fill="#01579B" font-family="Segoe UI" font-size="11" lengthAdjust="spacing" textLength="104.1724" x="263.9303" y="2185.3159">Accepter le devis ?</text><text fill="#000000" font-family="Segoe UI" font-size="11" lengthAdjust="spacing" textLength="16.7578" x="235.1725" y="2178.9136">oui</text><text fill="#000000" font-family="Segoe UI" font-size="11" lengthAdjust="spacing" textLength="20.6733" x="380.1027" y="2178.9136">non</text><rect fill="#BBDEFB" height="32.8047" rx="12.5" ry="12.5" style="stroke:#1976D2;stroke-width:1;" width="114.8374" x="103.9951" y="2203.5078"/><text fill="#01579B" font-family="Segoe UI" font-size="11" lengthAdjust="spacing" textLength="94.8374" x="113.9951" y="2223.7183">Accepter le devis</text><rect fill="#E3F2FD" height="130.4141" style="stroke:#42A5F5;stroke-width:1;" width="276.8276" x="23" y="2246.3125"/><path d="M80.7866,2246.3125 L80.7866,2252.1172 L70.7866,2262.1172 L23,2262.1172" fill="none" style="stroke:#42A5F5;stroke-width:1;"/><text fill="#01579B" font-family="Segoe UI" font-size="11" lengthAdjust="spacing" textLength="47.7866" x="26" y="2257.5229">Systeme</text><rect fill="#BBDEFB" height="32.8047" rx="12.5" ry="12.5" style="stroke:#1976D2;stroke-width:1;" width="256.8276" x="33" y="2279.1172"/><text fill="#01579B" font-family="Segoe UI" font-size="11" lengthAdjust="spacing" textLength="236.8276" x="43" y="2299.3276">Mettre a jour reservation : DEVIS_ACCEPTE</text><rect fill="#BBDEFB" height="32.8047" rx="12.5" ry="12.5" style="stroke:#1976D2;stroke-width:1;" width="137.8203" x="92.5037" y="2331.9219"/><text fill="#01579B" font-family="Segoe UI" font-size="11" lengthAdjust="spacing" textLength="117.8203" x="102.5037" y="2352.1323">Notifier le prestataire</text><rect fill="#BBDEFB" height="32.8047" rx="12.5" ry="12.5" style="stroke:#1976D2;stroke-width:1;" width="138.6099" x="92.1089" y="2396.7266"/><text fill="#01579B" font-family="Segoe UI" font-size="11" lengthAdjust="spacing" textLength="118.6099" x="102.1089" y="2416.937">Attendre intervention</text><rect fill="#BBDEFB" height="32.8047" rx="12.5" ry="12.5" style="stroke:#1976D2;stroke-width:1;" width="108.1396" x="416.5493" y="2203.5078"/><text fill="#01579B" font-family="Segoe UI" font-size="11" lengthAdjust="spacing" textLength="88.1396" x="426.5493" y="2223.7183">Refuser le devis</text><rect fill="#E3F2FD" height="130.4141" style="stroke:#42A5F5;stroke-width:1;" width="301.583" x="319.8276" y="2246.3125"/><path d="M377.6143,2246.3125 L377.6143,2252.1172 L367.6143,2262.1172 L319.8276,2262.1172" fill="none" style="stroke:#42A5F5;stroke-width:1;"/><text fill="#01579B" font-family="Segoe UI" font-size="11" lengthAdjust="spacing" textLength="47.7866" x="322.8276" y="2257.5229">Systeme</text><rect fill="#BBDEFB" height="32.8047" rx="12.5" ry="12.5" style="stroke:#1976D2;stroke-width:1;" width="281.583" x="329.8276" y="2279.1172"/><text fill="#01579B" font-family="Segoe UI" font-size="11" lengthAdjust="spacing" textLength="261.583" x="339.8276" y="2299.3276">Mettre a jour reservation : DEMANDE_ENVOYEE</text><rect fill="#BBDEFB" height="32.8047" rx="12.5" ry="12.5" style="stroke:#1976D2;stroke-width:1;" width="137.8203" x="401.709" y="2331.9219"/><text fill="#01579B" font-family="Segoe UI" font-size="11" lengthAdjust="spacing" textLength="117.8203" x="411.709" y="2352.1323">Notifier le prestataire</text><ellipse cx="470.6191" cy="2407.7266" fill="none" rx="11" ry="11" style="stroke:#000000;stroke-width:1;"/><ellipse cx="470.6191" cy="2407.7266" fill="#FFFFFF" rx="6" ry="6" style="stroke:#000000;stroke-width:1;"/><rect fill="#BBDEFB" height="32.8047" rx="12.5" ry="12.5" style="stroke:#1976D2;stroke-width:1;" width="131.5039" x="651.4106" y="2116.7031"/><text fill="#01579B" font-family="Segoe UI" font-size="11" lengthAdjust="spacing" textLength="111.5039" x="661.4106" y="2136.9136">Annuler la demande</text><ellipse cx="717.1626" cy="2180.5078" fill="none" rx="11" ry="11" style="stroke:#000000;stroke-width:1;"/><ellipse cx="717.1626" cy="2180.5078" fill="#FFFFFF" rx="6" ry="6" style="stroke:#000000;stroke-width:1;"/><rect fill="#E3F2FD" height="77.6094" style="stroke:#42A5F5;stroke-width:1;" width="160.9517" x="436.1137" y="2451.5313"/><path d="M506.2216,2451.5313 L506.2216,2457.3359 L496.2216,2467.3359 L436.1137,2467.3359" fill="none" style="stroke:#42A5F5;stroke-width:1;"/><text fill="#01579B" font-family="Segoe UI" font-size="11" lengthAdjust="spacing" textLength="60.1079" x="439.1137" y="2462.7417">Prestataire</text><rect fill="#BBDEFB" height="32.8047" rx="12.5" ry="12.5" style="stroke:#1976D2;stroke-width:1;" width="140.9517" x="446.1137" y="2484.3359"/><text fill="#01579B" font-family="Segoe UI" font-size="11" lengthAdjust="spacing" textLength="120.9517" x="456.1137" y="2504.5464">Intervention sur place</text><rect fill="#E3F2FD" height="130.4141" style="stroke:#42A5F5;stroke-width:1;" width="335.5498" x="348.8146" y="2539.1406"/><path d="M406.6013,2539.1406 L406.6013,2544.9453 L396.6013,2554.9453 L348.8146,2554.9453" fill="none" style="stroke:#42A5F5;stroke-width:1;"/><text fill="#01579B" font-family="Segoe UI" font-size="11" lengthAdjust="spacing" textLength="47.7866" x="351.8146" y="2550.3511">Systeme</text><rect fill="#BBDEFB" height="32.8047" rx="12.5" ry="12.5" style="stroke:#1976D2;stroke-width:1;" width="315.5498" x="358.8146" y="2571.9453"/><text fill="#01579B" font-family="Segoe UI" font-size="11" lengthAdjust="spacing" textLength="295.5498" x="368.8146" y="2592.1558">Mettre a jour reservation : INTERVENTION_EN_COURS</text><rect fill="#BBDEFB" height="32.8047" rx="12.5" ry="12.5" style="stroke:#1976D2;stroke-width:1;" width="245.6128" x="393.7831" y="2624.75"/><text fill="#01579B" font-family="Segoe UI" font-size="11" lengthAdjust="spacing" textLength="225.6128" x="403.7831" y="2644.9604">Notifier le client "Intervention demarree"</text><rect fill="#E3F2FD" height="77.6094" style="stroke:#42A5F5;stroke-width:1;" width="166.5698" x="433.3046" y="2679.5547"/><path d="M503.4125,2679.5547 L503.4125,2685.3594 L493.4125,2695.3594 L433.3046,2695.3594" fill="none" style="stroke:#42A5F5;stroke-width:1;"/><text fill="#01579B" font-family="Segoe UI" font-size="11" lengthAdjust="spacing" textLength="60.1079" x="436.3046" y="2690.7651">Prestataire</text><rect fill="#BBDEFB" height="32.8047" rx="12.5" ry="12.5" style="stroke:#1976D2;stroke-width:1;" width="146.5698" x="443.3046" y="2712.3594"/><text fill="#01579B" font-family="Segoe UI" font-size="11" lengthAdjust="spacing" textLength="126.5698" x="453.3046" y="2732.5698">Terminer l'intervention</text><rect fill="#E3F2FD" height="130.4141" style="stroke:#42A5F5;stroke-width:1;" width="349.5737" x="341.8027" y="2767.1641"/><path d="M399.5893,2767.1641 L399.5893,2772.9688 L389.5893,2782.9688 L341.8027,2782.9688" fill="none" style="stroke:#42A5F5;stroke-width:1;"/><text fill="#01579B" font-family="Segoe UI" font-size="11" lengthAdjust="spacing" textLength="47.7866" x="344.8027" y="2778.3745">Systeme</text><rect fill="#BBDEFB" height="32.8047" rx="12.5" ry="12.5" style="stroke:#1976D2;stroke-width:1;" width="282.958" x="375.1105" y="2799.9688"/><text fill="#01579B" font-family="Segoe UI" font-size="11" lengthAdjust="spacing" textLength="262.958" x="385.1105" y="2820.1792">Mettre a jour reservation : EN_ATTENTE_CLIENT</text><rect fill="#BBDEFB" height="32.8047" rx="12.5" ry="12.5" style="stroke:#1976D2;stroke-width:1;" width="329.5737" x="351.8027" y="2852.7734"/><text fill="#01579B" font-family="Segoe UI" font-size="11" lengthAdjust="spacing" textLength="309.5737" x="361.8027" y="2872.9839">Notifier le client "Prestation terminee - Merci de valider"</text><rect fill="#E3F2FD" height="77.6094" style="stroke:#42A5F5;stroke-width:1;" width="263.8779" x="384.6506" y="2907.5781"/><path d="M426.4958,2907.5781 L426.4958,2913.3828 L416.4958,2923.3828 L384.6506,2923.3828" fill="none" style="stroke:#42A5F5;stroke-width:1;"/><text fill="#01579B" font-family="Segoe UI" font-size="11" lengthAdjust="spacing" textLength="31.8452" x="387.6506" y="2918.7886">Client</text><rect fill="#BBDEFB" height="32.8047" rx="12.5" ry="12.5" style="stroke:#1976D2;stroke-width:1;" width="243.8779" x="394.6506" y="2940.3828"/><text fill="#01579B" font-family="Segoe UI" font-size="11" lengthAdjust="spacing" textLength="223.8779" x="404.6506" y="2960.5933">Confirmer la reception / valider le travail</text><rect fill="#E3F2FD" height="183.2188" style="stroke:#42A5F5;stroke-width:1;" width="290.0996" x="371.5397" y="2995.1875"/><path d="M429.3264,2995.1875 L429.3264,3000.9922 L419.3264,3010.9922 L371.5397,3010.9922" fill="none" style="stroke:#42A5F5;stroke-width:1;"/><text fill="#01579B" font-family="Segoe UI" font-size="11" lengthAdjust="spacing" textLength="47.7866" x="374.5397" y="3006.3979">Systeme</text><rect fill="#BBDEFB" height="32.8047" rx="12.5" ry="12.5" style="stroke:#1976D2;stroke-width:1;" width="224.1929" x="404.4931" y="3027.9922"/><text fill="#01579B" font-family="Segoe UI" font-size="11" lengthAdjust="spacing" textLength="204.1929" x="414.4931" y="3048.2026">Mettre a jour reservation : TERMINEE</text><rect fill="#BBDEFB" height="32.8047" rx="12.5" ry="12.5" style="stroke:#1976D2;stroke-width:1;" width="270.0996" x="381.5397" y="3080.7969"/><text fill="#01579B" font-family="Segoe UI" font-size="11" lengthAdjust="spacing" textLength="250.0996" x="391.5397" y="3101.0073">Paiement effectif (especes ou mobile money)</text><rect fill="#BBDEFB" height="32.8047" rx="12.5" ry="12.5" style="stroke:#1976D2;stroke-width:1;" width="226.1157" x="403.5317" y="3133.6016"/><text fill="#01579B" font-family="Segoe UI" font-size="11" lengthAdjust="spacing" textLength="206.1157" x="413.5317" y="3153.812">Calculer et enregistrer la commission</text><rect fill="#E3F2FD" height="77.6094" style="stroke:#42A5F5;stroke-width:1;" width="147.8354" x="442.6718" y="3188.4063"/><path d="M484.517,3188.4063 L484.517,3194.2109 L474.517,3204.2109 L442.6718,3204.2109" fill="none" style="stroke:#42A5F5;stroke-width:1;"/><text fill="#01579B" font-family="Segoe UI" font-size="11" lengthAdjust="spacing" textLength="31.8452" x="445.6718" y="3199.6167">Client</text><rect fill="#BBDEFB" height="32.8047" rx="12.5" ry="12.5" style="stroke:#1976D2;stroke-width:1;" width="127.8354" x="452.6718" y="3221.2109"/><text fill="#01579B" font-family="Segoe UI" font-size="11" lengthAdjust="spacing" textLength="107.8354" x="462.6718" y="3241.4214">Noter le prestataire</text><ellipse cx="516.5895" cy="3297.0156" fill="none" rx="11" ry="11" style="stroke:#000000;stroke-width:1;"/><ellipse cx="516.5895" cy="3297.0156" fill="#FFFFFF" rx="6" ry="6" style="stroke:#000000;stroke-width:1;"/><line style="stroke:#64B5F6;stroke-width:1;" x1="516.5895" x2="516.5895" y1="94.1016" y2="114.1016"/><polygon fill="#64B5F6" points="512.5895,104.1016,516.5895,114.1016,520.5895,104.1016,516.5895,108.1016" style="stroke:#64B5F6;stroke-width:1;"/><line style="stroke:#64B5F6;stroke-width:1;" x1="516.5895" x2="516.5895" y1="146.9063" y2="166.9063"/><polygon fill="#64B5F6" points="512.5895,156.9063,516.5895,166.9063,520.5895,156.9063,516.5895,160.9063" style="stroke:#64B5F6;stroke-width:1;"/><line style="stroke:#64B5F6;stroke-width:1;" x1="612.1252" x2="612.1252" y1="354.125" y2="374.125"/><polygon fill="#64B5F6" points="608.1252,364.125,612.1252,374.125,616.1252,364.125,612.1252,368.125" style="stroke:#64B5F6;stroke-width:1;"/><line style="stroke:#64B5F6;stroke-width:1;" x1="612.1252" x2="612.1252" y1="419.7344" y2="474.5391"/><polygon fill="#64B5F6" points="608.1252,464.5391,612.1252,474.5391,616.1252,464.5391,612.1252,468.5391" style="stroke:#64B5F6;stroke-width:1;"/><line style="stroke:#64B5F6;stroke-width:1;" x1="431.0539" x2="421.0539" y1="266.5156" y2="266.5156"/><line style="stroke:#64B5F6;stroke-width:1;" x1="421.0539" x2="421.0539" y1="266.5156" y2="288.5156"/><polygon fill="#64B5F6" points="417.0539,278.5156,421.0539,288.5156,425.0539,278.5156,421.0539,282.5156" style="stroke:#64B5F6;stroke-width:1;"/><line style="stroke:#64B5F6;stroke-width:1;" x1="602.1252" x2="612.1252" y1="266.5156" y2="266.5156"/><line style="stroke:#64B5F6;stroke-width:1;" x1="612.1252" x2="612.1252" y1="266.5156" y2="321.3203"/><polygon fill="#64B5F6" points="608.1252,311.3203,612.1252,321.3203,616.1252,311.3203,612.1252,315.3203" style="stroke:#64B5F6;stroke-width:1;"/><line style="stroke:#64B5F6;stroke-width:1;" x1="421.0539" x2="421.0539" y1="321.3203" y2="537.3438"/><line style="stroke:#64B5F6;stroke-width:1;" x1="421.0539" x2="504.5895" y1="537.3438" y2="537.3438"/><polygon fill="#64B5F6" points="494.5895,533.3438,504.5895,537.3438,494.5895,541.3438,498.5895,537.3438" style="stroke:#64B5F6;stroke-width:1;"/><line style="stroke:#64B5F6;stroke-width:1;" x1="612.1252" x2="612.1252" y1="507.3438" y2="537.3438"/><line style="stroke:#64B5F6;stroke-width:1;" x1="612.1252" x2="528.5895" y1="537.3438" y2="537.3438"/><polygon fill="#64B5F6" points="538.5895,533.3438,528.5895,537.3438,538.5895,541.3438,534.5895,537.3438" style="stroke:#64B5F6;stroke-width:1;"/><line style="stroke:#64B5F6;stroke-width:1;" x1="516.5895" x2="516.5895" y1="199.7109" y2="254.5156"/><polygon fill="#64B5F6" points="512.5895,244.5156,516.5895,254.5156,520.5895,244.5156,516.5895,248.5156" style="stroke:#64B5F6;stroke-width:1;"/><line style="stroke:#64B5F6;stroke-width:1;" x1="516.5895" x2="516.5895" y1="549.3438" y2="604.1484"/><polygon fill="#64B5F6" points="512.5895,594.1484,516.5895,604.1484,520.5895,594.1484,516.5895,598.1484" style="stroke:#64B5F6;stroke-width:1;"/><line style="stroke:#64B5F6;stroke-width:1;" x1="516.5895" x2="516.5895" y1="724.5625" y2="744.5625"/><polygon fill="#64B5F6" points="512.5895,734.5625,516.5895,744.5625,520.5895,734.5625,516.5895,738.5625" style="stroke:#64B5F6;stroke-width:1;"/><line style="stroke:#64B5F6;stroke-width:1;" x1="516.5895" x2="516.5895" y1="636.9531" y2="691.7578"/><polygon fill="#64B5F6" points="512.5895,681.7578,516.5895,691.7578,520.5895,681.7578,516.5895,685.7578" style="stroke:#64B5F6;stroke-width:1;"/><line style="stroke:#64B5F6;stroke-width:1;" x1="516.5895" x2="516.5895" y1="864.9766" y2="884.9766"/><polygon fill="#64B5F6" points="512.5895,874.9766,516.5895,884.9766,520.5895,874.9766,516.5895,878.9766" style="stroke:#64B5F6;stroke-width:1;"/><line style="stroke:#64B5F6;stroke-width:1;" x1="516.5895" x2="516.5895" y1="917.7813" y2="937.7813"/><polygon fill="#64B5F6" points="512.5895,927.7813,516.5895,937.7813,520.5895,927.7813,516.5895,931.7813" style="stroke:#64B5F6;stroke-width:1;"/><line style="stroke:#64B5F6;stroke-width:1;" x1="516.5895" x2="516.5895" y1="777.3672" y2="832.1719"/><polygon fill="#64B5F6" points="512.5895,822.1719,516.5895,832.1719,520.5895,822.1719,516.5895,826.1719" style="stroke:#64B5F6;stroke-width:1;"/><line style="stroke:#64B5F6;stroke-width:1;" x1="516.5895" x2="516.5895" y1="970.5859" y2="1025.3906"/><polygon fill="#64B5F6" points="512.5895,1015.3906,516.5895,1025.3906,520.5895,1015.3906,516.5895,1019.3906" style="stroke:#64B5F6;stroke-width:1;"/><line style="stroke:#64B5F6;stroke-width:1;" x1="516.5895" x2="516.5895" y1="1158.6094" y2="1178.6094"/><polygon fill="#64B5F6" points="512.5895,1168.6094,516.5895,1178.6094,520.5895,1168.6094,516.5895,1172.6094" style="stroke:#64B5F6;stroke-width:1;"/><line style="stroke:#64B5F6;stroke-width:1;" x1="516.5895" x2="516.5895" y1="1211.4141" y2="1231.4141"/><polygon fill="#64B5F6" points="512.5895,1221.4141,516.5895,1231.4141,520.5895,1221.4141,516.5895,1225.4141" style="stroke:#64B5F6;stroke-width:1;"/><line style="stroke:#64B5F6;stroke-width:1;" x1="516.5895" x2="516.5895" y1="1264.2188" y2="1284.2188"/><polygon fill="#64B5F6" points="512.5895,1274.2188,516.5895,1284.2188,520.5895,1274.2188,516.5895,1278.2188" style="stroke:#64B5F6;stroke-width:1;"/><line style="stroke:#64B5F6;stroke-width:1;" x1="516.5895" x2="516.5895" y1="1317.0234" y2="1337.0234"/><polygon fill="#64B5F6" points="512.5895,1327.0234,516.5895,1337.0234,520.5895,1327.0234,516.5895,1331.0234" style="stroke:#64B5F6;stroke-width:1;"/><line style="stroke:#64B5F6;stroke-width:1;" x1="516.5895" x2="516.5895" y1="1369.8281" y2="1389.8281"/><polygon fill="#64B5F6" points="512.5895,1379.8281,516.5895,1389.8281,520.5895,1379.8281,516.5895,1383.8281" style="stroke:#64B5F6;stroke-width:1;"/><line style="stroke:#64B5F6;stroke-width:1;" x1="516.5895" x2="516.5895" y1="1071" y2="1125.8047"/><polygon fill="#64B5F6" points="512.5895,1115.8047,516.5895,1125.8047,520.5895,1115.8047,516.5895,1119.8047" style="stroke:#64B5F6;stroke-width:1;"/><line style="stroke:#64B5F6;stroke-width:1;" x1="516.5895" x2="516.5895" y1="1523.0469" y2="1543.0469"/><polygon fill="#64B5F6" points="512.5895,1533.0469,516.5895,1543.0469,520.5895,1533.0469,516.5895,1537.0469" style="stroke:#64B5F6;stroke-width:1;"/><line style="stroke:#64B5F6;stroke-width:1;" x1="516.5895" x2="516.5895" y1="1575.8516" y2="1595.8516"/><polygon fill="#64B5F6" points="512.5895,1585.8516,516.5895,1595.8516,520.5895,1585.8516,516.5895,1589.8516" style="stroke:#64B5F6;stroke-width:1;"/><line style="stroke:#64B5F6;stroke-width:1;" x1="516.5895" x2="516.5895" y1="1422.6328" y2="1477.4375"/><polygon fill="#64B5F6" points="512.5895,1467.4375,516.5895,1477.4375,520.5895,1467.4375,516.5895,1471.4375" style="stroke:#64B5F6;stroke-width:1;"/><line style="stroke:#64B5F6;stroke-width:1;" x1="516.5895" x2="516.5895" y1="1716.2656" y2="1736.2656"/><polygon fill="#64B5F6" points="512.5895,1726.2656,516.5895,1736.2656,520.5895,1726.2656,516.5895,1730.2656" style="stroke:#64B5F6;stroke-width:1;"/><line style="stroke:#64B5F6;stroke-width:1;" x1="516.5895" x2="516.5895" y1="1769.0703" y2="1789.0703"/><polygon fill="#64B5F6" points="512.5895,1779.0703,516.5895,1789.0703,520.5895,1779.0703,516.5895,1783.0703" style="stroke:#64B5F6;stroke-width:1;"/><line style="stroke:#64B5F6;stroke-width:1;" x1="516.5895" x2="516.5895" y1="1628.6563" y2="1683.4609"/><polygon fill="#64B5F6" points="512.5895,1673.4609,516.5895,1683.4609,520.5895,1673.4609,516.5895,1677.4609" style="stroke:#64B5F6;stroke-width:1;"/><line style="stroke:#64B5F6;stroke-width:1;" x1="516.5895" x2="516.5895" y1="1922.2891" y2="1942.2891"/><polygon fill="#64B5F6" points="512.5895,1932.2891,516.5895,1942.2891,520.5895,1932.2891,516.5895,1936.2891" style="stroke:#64B5F6;stroke-width:1;"/><line style="stroke:#64B5F6;stroke-width:1;" x1="516.5895" x2="516.5895" y1="1975.0938" y2="1995.0938"/><polygon fill="#64B5F6" points="512.5895,1985.0938,516.5895,1995.0938,520.5895,1985.0938,516.5895,1989.0938" style="stroke:#64B5F6;stroke-width:1;"/><line style="stroke:#64B5F6;stroke-width:1;" x1="516.5895" x2="516.5895" y1="1821.875" y2="1876.6797"/><polygon fill="#64B5F6" points="512.5895,1866.6797,516.5895,1876.6797,520.5895,1866.6797,516.5895,1870.6797" style="stroke:#64B5F6;stroke-width:1;"/><line style="stroke:#64B5F6;stroke-width:1;" x1="161.4138" x2="161.4138" y1="2311.9219" y2="2331.9219"/><polygon fill="#64B5F6" points="157.4138,2321.9219,161.4138,2331.9219,165.4138,2321.9219,161.4138,2325.9219" style="stroke:#64B5F6;stroke-width:1;"/><line style="stroke:#64B5F6;stroke-width:1;" x1="161.4138" x2="161.4138" y1="2236.3125" y2="2279.1172"/><polygon fill="#64B5F6" points="157.4138,2269.1172,161.4138,2279.1172,165.4138,2269.1172,161.4138,2273.1172" style="stroke:#64B5F6;stroke-width:1;"/><line style="stroke:#64B5F6;stroke-width:1;" x1="161.4138" x2="161.4138" y1="2364.7266" y2="2396.7266"/><polygon fill="#64B5F6" points="157.4138,2386.7266,161.4138,2396.7266,165.4138,2386.7266,161.4138,2390.7266" style="stroke:#64B5F6;stroke-width:1;"/><line style="stroke:#64B5F6;stroke-width:1;" x1="470.6191" x2="470.6191" y1="2311.9219" y2="2331.9219"/><polygon fill="#64B5F6" points="466.6191,2321.9219,470.6191,2331.9219,474.6191,2321.9219,470.6191,2325.9219" style="stroke:#64B5F6;stroke-width:1;"/><line style="stroke:#64B5F6;stroke-width:1;" x1="470.6191" x2="470.6191" y1="2236.3125" y2="2279.1172"/><polygon fill="#64B5F6" points="466.6191,2269.1172,470.6191,2279.1172,474.6191,2269.1172,470.6191,2273.1172" style="stroke:#64B5F6;stroke-width:1;"/><line style="stroke:#64B5F6;stroke-width:1;" x1="470.6191" x2="470.6191" y1="2364.7266" y2="2396.7266"/><polygon fill="#64B5F6" points="466.6191,2386.7266,470.6191,2396.7266,474.6191,2386.7266,470.6191,2390.7266" style="stroke:#64B5F6;stroke-width:1;"/><line style="stroke:#64B5F6;stroke-width:1;" x1="251.9303" x2="161.4138" y1="2181.5078" y2="2181.5078"/><line style="stroke:#64B5F6;stroke-width:1;" x1="161.4138" x2="161.4138" y1="2181.5078" y2="2203.5078"/><polygon fill="#64B5F6" points="157.4138,2193.5078,161.4138,2203.5078,165.4138,2193.5078,161.4138,2197.5078" style="stroke:#64B5F6;stroke-width:1;"/><line style="stroke:#64B5F6;stroke-width:1;" x1="380.1027" x2="470.6191" y1="2181.5078" y2="2181.5078"/><line style="stroke:#64B5F6;stroke-width:1;" x1="470.6191" x2="470.6191" y1="2181.5078" y2="2203.5078"/><polygon fill="#64B5F6" points="466.6191,2193.5078,470.6191,2203.5078,474.6191,2193.5078,470.6191,2197.5078" style="stroke:#64B5F6;stroke-width:1;"/><line style="stroke:#64B5F6;stroke-width:1;" x1="161.4138" x2="161.4138" y1="2429.5313" y2="2434.5313"/><line style="stroke:#64B5F6;stroke-width:1;" x1="161.4138" x2="516.5895" y1="2434.5313" y2="2434.5313"/><line style="stroke:#64B5F6;stroke-width:1;" x1="516.5895" x2="516.5895" y1="2434.5313" y2="2484.3359"/><polygon fill="#64B5F6" points="512.5895,2474.3359,516.5895,2484.3359,520.5895,2474.3359,516.5895,2478.3359" style="stroke:#64B5F6;stroke-width:1;"/><line style="stroke:#64B5F6;stroke-width:1;" x1="316.0165" x2="316.0165" y1="2149.5078" y2="2169.5078"/><polygon fill="#64B5F6" points="312.0165,2159.5078,316.0165,2169.5078,320.0165,2159.5078,316.0165,2163.5078" style="stroke:#64B5F6;stroke-width:1;"/><line style="stroke:#64B5F6;stroke-width:1;" x1="717.1626" x2="717.1626" y1="2149.5078" y2="2169.5078"/><polygon fill="#64B5F6" points="713.1626,2159.5078,717.1626,2169.5078,721.1626,2159.5078,717.1626,2163.5078" style="stroke:#64B5F6;stroke-width:1;"/><line style="stroke:#64B5F6;stroke-width:1;" x1="470.7516" x2="316.0165" y1="2094.7031" y2="2094.7031"/><line style="stroke:#64B5F6;stroke-width:1;" x1="316.0165" x2="316.0165" y1="2094.7031" y2="2116.7031"/><polygon fill="#64B5F6" points="312.0165,2106.7031,316.0165,2116.7031,320.0165,2106.7031,316.0165,2110.7031" style="stroke:#64B5F6;stroke-width:1;"/><line style="stroke:#64B5F6;stroke-width:1;" x1="562.4274" x2="717.1626" y1="2094.7031" y2="2094.7031"/><line style="stroke:#64B5F6;stroke-width:1;" x1="717.1626" x2="717.1626" y1="2094.7031" y2="2116.7031"/><polygon fill="#64B5F6" points="713.1626,2106.7031,717.1626,2116.7031,721.1626,2106.7031,717.1626,2110.7031" style="stroke:#64B5F6;stroke-width:1;"/><line style="stroke:#64B5F6;stroke-width:1;" x1="516.5895" x2="516.5895" y1="2027.8984" y2="2082.7031"/><polygon fill="#64B5F6" points="512.5895,2072.7031,516.5895,2082.7031,520.5895,2072.7031,516.5895,2076.7031" style="stroke:#64B5F6;stroke-width:1;"/><line style="stroke:#64B5F6;stroke-width:1;" x1="516.5895" x2="516.5895" y1="2604.75" y2="2624.75"/><polygon fill="#64B5F6" points="512.5895,2614.75,516.5895,2624.75,520.5895,2614.75,516.5895,2618.75" style="stroke:#64B5F6;stroke-width:1;"/><line style="stroke:#64B5F6;stroke-width:1;" x1="516.5895" x2="516.5895" y1="2517.1406" y2="2571.9453"/><polygon fill="#64B5F6" points="512.5895,2561.9453,516.5895,2571.9453,520.5895,2561.9453,516.5895,2565.9453" style="stroke:#64B5F6;stroke-width:1;"/><line style="stroke:#64B5F6;stroke-width:1;" x1="516.5895" x2="516.5895" y1="2657.5547" y2="2712.3594"/><polygon fill="#64B5F6" points="512.5895,2702.3594,516.5895,2712.3594,520.5895,2702.3594,516.5895,2706.3594" style="stroke:#64B5F6;stroke-width:1;"/><line style="stroke:#64B5F6;stroke-width:1;" x1="516.5895" x2="516.5895" y1="2832.7734" y2="2852.7734"/><polygon fill="#64B5F6" points="512.5895,2842.7734,516.5895,2852.7734,520.5895,2842.7734,516.5895,2846.7734" style="stroke:#64B5F6;stroke-width:1;"/><line style="stroke:#64B5F6;stroke-width:1;" x1="516.5895" x2="516.5895" y1="2745.1641" y2="2799.9688"/><polygon fill="#64B5F6" points="512.5895,2789.9688,516.5895,2799.9688,520.5895,2789.9688,516.5895,2793.9688" style="stroke:#64B5F6;stroke-width:1;"/><line style="stroke:#64B5F6;stroke-width:1;" x1="516.5895" x2="516.5895" y1="2885.5781" y2="2940.3828"/><polygon fill="#64B5F6" points="512.5895,2930.3828,516.5895,2940.3828,520.5895,2930.3828,516.5895,2934.3828" style="stroke:#64B5F6;stroke-width:1;"/><line style="stroke:#64B5F6;stroke-width:1;" x1="516.5895" x2="516.5895" y1="3060.7969" y2="3080.7969"/><polygon fill="#64B5F6" points="512.5895,3070.7969,516.5895,3080.7969,520.5895,3070.7969,516.5895,3074.7969" style="stroke:#64B5F6;stroke-width:1;"/><line style="stroke:#64B5F6;stroke-width:1;" x1="516.5895" x2="516.5895" y1="3113.6016" y2="3133.6016"/><polygon fill="#64B5F6" points="512.5895,3123.6016,516.5895,3133.6016,520.5895,3123.6016,516.5895,3127.6016" style="stroke:#64B5F6;stroke-width:1;"/><line style="stroke:#64B5F6;stroke-width:1;" x1="516.5895" x2="516.5895" y1="2973.1875" y2="3027.9922"/><polygon fill="#64B5F6" points="512.5895,3017.9922,516.5895,3027.9922,520.5895,3017.9922,516.5895,3021.9922" style="stroke:#64B5F6;stroke-width:1;"/><line style="stroke:#64B5F6;stroke-width:1;" x1="516.5895" x2="516.5895" y1="3166.4063" y2="3221.2109"/><polygon fill="#64B5F6" points="512.5895,3211.2109,516.5895,3221.2109,520.5895,3211.2109,516.5895,3215.2109" style="stroke:#64B5F6;stroke-width:1;"/><line style="stroke:#64B5F6;stroke-width:1;" x1="516.5895" x2="516.5895" y1="3254.0156" y2="3286.0156"/><polygon fill="#64B5F6" points="512.5895,3276.0156,516.5895,3286.0156,520.5895,3276.0156,516.5895,3280.0156" style="stroke:#64B5F6;stroke-width:1;"/><?plantuml-src jLPTRzis57tth-2oXpffKozPqw89Xi4VCk1XSOpOoJPWGC1ALpPRcLH9IfjNvB_la5HioN6ShTXUue0ylFVSSx_qZLtGabYUSI5RBVD9o9nhlcGVUFnfhbKXaxxAb6RVHjyFJuU3EeJ7LfJ2hjYN5cEzRNolDuY6FNUZT4AwEZrv_-xju1IdGoLjTVRToTcxzxtgR2h-8dPoshhVvQchjVh3kwkUldtJEnk-tGqU2BvKCjdDhefcYzsRq-xPy6mdkuOB_BN22YN_3-EmdD56YZUxhfhFDu24Kbvara7676cTqbmHkndjXWG79wsMjykEZdhTtcWu-lNeY1qpo3S77aQI5zqWAR5pDioAFzar6T8bzmhqCq7IilPO5INnWasuZbMX3HjGASnXgxKHwo1W3xngnk8Sl-TNHQc5PjaBdkUPY8FLYic50_ILD61Cm91X020eBV1lGipn436P2wTXpTDqPIpgEhWIAMlVM949WxU5nhkFdCLAIeeHqu-733qWMLiLuX3euD4AMNYFB4N4ZWTbXbXRAXb0JuJbtqzV26bYH4LC5U2uTgOl7Y3TmZcr8ds8-ATVPcpmaSkv-bss9rVJ6UlmN7GuS9rCpONi78R7zzlk6x5wuxUaOHZqFnVaGj0AVtvW1t4Wkh53CX7fbdJrQCwdb86tSFGrAoHjvD-h-7b_mVNSwSSPP8VA2VALQqBMBOSkI9umkPBYWyjfAJZhJaO-srrN1P-BAjkfoAn3GtSOMQeLWSahXjeHwQkr3QJMuhGKMKQlNxy-lDWNKbMWOW-vHsM7MmKg00809-mbuwZkW5ieOOHJfsvZlpph18528mYM57KhA0Nemk85nP-EmQ4Kc2V7l0G9xX-iziSwe5258G9eZNPk8rgSvXx-akKBPPNnjTNCTe9CCx9iWPQXSCrzeEZK11IDcmn2Gg3I5RAI8NqVLM5zhR0bC7mEXocF8IJAF0rkReKfE9GFqcgAKUYso1p0tqUoHAA3EBJaCdcks3G5jAxDfQgcs7KqdJKwAZH1fuQjeXzGAYJYS-8N5lqoY2wxuq5q5urlhtwBeWOtrEEcT_F2B1XlP8wrX_tBHycPR00LzskAgLIY6QpJKV9iPTR5vrFdBs021iD5Ghu8zsbJyuXkXoTQFsoeKgCEQT1_nfhE5qtfVSU3WqINPD6EZ3DaMJVaFeTQjwDffPK7Zxr4WMbSRObTejGhrerglpXSMHHFpEPDMtfgwwuCSysPwCOnvGtCOqjEv6tOmtZUDrt_aGpTVZ-QpAABpPkw6eqv4UxlrvoinLI6zUtMUhI1VFMaXVcl-Jyg-dyNWR4g3tJzSgdHnbU55Kl2WAXosPMoo6YxzjScTcsdnnqqgkd43EB1jspypCJO9y1eF8kkRwFnR7GrXWft_QkRw-bJ1NtGyEw2q1X61y_t_OpqKhWncstDqA-b3QRTsGoqexl-poFyFacv8kEUsS22a9bBqh5mdrGbHZEspC7UnO8kJ8LUFenTrqOEr7buxVnPxHVLruU4F5oEnjNWdN21L-1FQUgM5BgSJ0xFndrZBHNMeVj0aBGAewhFizWN5rOOIKrpR7eT-CPgkHJ6x92x4IEqsr7izorNdNy3?></g></svg>