<svg xmlns="http://www.w3.org/2000/svg" xmlns:xlink="http://www.w3.org/1999/xlink" contentStyleType="text/css" data-diagram-type="DESCRIPTION" height="1336px" preserveAspectRatio="none" style="width:1995px;height:1336px;background:#E3F2FD;" version="1.1" viewBox="0 0 1995 1336" width="1995px" zoomAndPan="magnify"><?plantuml 1.2026.3beta6?><defs/><g><rect fill="#E3F2FD" height="1336" style="stroke:none;stroke-width:1;" width="1995" x="0" y="0"/><g class="title" data-source-line="29"><text fill="#000000" font-family="Verdana" font-size="22" font-weight="700" lengthAdjust="spacing" textLength="98.9248" x="764.2593" y="35.4209">BABIFIX</text><text fill="#000000" font-family="Verdana" font-size="22" font-weight="700" lengthAdjust="spacing" textLength="357.8975" x="870.8433" y="35.4209">- Diagramme de Composants</text><text fill="#000000" font-family="Verdana" font-size="22" font-weight="700" lengthAdjust="spacing" textLength="474.665" x="759.1675" y="61.0303">Architecture Monolithique en Couches</text></g><!--cluster Frontend Layer--><g class="cluster" data-qualified-name="Frontend Layer" data-source-line="31" id="ent0002"><rect fill="#BBDEFB" height="246.04" rx="2.5" ry="2.5" style="stroke:#1976D2;stroke-width:1;" width="801" x="12" y="84.2188"/><text fill="#01579B" font-family="Verdana" font-size="14" font-weight="700" lengthAdjust="spacing" textLength="120.9961" x="352.002" y="99.2139">Frontend Layer</text></g><!--cluster API Gateway / Load Balancer--><g class="cluster" data-qualified-name="API Gateway . Load Balancer" data-source-line="44" id="ent0010"><rect fill="#BBDEFB" height="200.89" rx="2.5" ry="2.5" style="stroke:#1976D2;stroke-width:1;" width="242" x="837" y="234.8088"/><text fill="#01579B" font-family="Verdana" font-size="14" font-weight="700" lengthAdjust="spacing" textLength="226.584" x="844.708" y="249.8039">API Gateway / Load Balancer</text></g><!--cluster Backend (Monolithe Django)--><g class="cluster" data-qualified-name="Backend .Monolithe Django." data-source-line="49" id="ent0013"><rect fill="#BBDEFB" height="557.78" rx="2.5" ry="2.5" style="stroke:#1976D2;stroke-width:1;" width="1286" x="112" y="484.6988"/><text fill="#01579B" font-family="Verdana" font-size="14" font-weight="700" lengthAdjust="spacing" textLength="224.1162" x="642.9419" y="499.6939">Backend (Monolithe Django)</text></g><!--cluster BABIFIX Admin Django (API REST)--><g class="cluster" data-qualified-name="Backend .Monolithe Django..BABIFIX Admin Django .API REST." data-source-line="51" id="ent0014"><rect fill="#BBDEFB" height="490.78" rx="2.5" ry="2.5" style="stroke:#1976D2;stroke-width:1;" width="993" x="136" y="527.6988"/><text fill="#01579B" font-family="Verdana" font-size="14" font-weight="700" lengthAdjust="spacing" textLength="267.21" x="498.895" y="542.6939">BABIFIX Admin Django (API REST)</text></g><!--cluster adminpanel/--><g class="cluster" data-qualified-name="Backend .Monolithe Django..BABIFIX Admin Django .API REST..adminpanel." data-source-line="59" id="ent0020"><rect fill="#BBDEFB" height="308.03" rx="2.5" ry="2.5" style="stroke:#1976D2;stroke-width:1;" width="444" x="160" y="686.4488"/><text fill="#01579B" font-family="Verdana" font-size="14" font-weight="700" lengthAdjust="spacing" textLength="97.665" x="333.1675" y="701.4439">adminpanel/</text></g><!--cluster BABIFIX Vitrine Django--><g class="cluster" data-qualified-name="Backend .Monolithe Django..BABIFIX Vitrine Django" data-source-line="68" id="ent0026"><rect fill="#BBDEFB" height="87.3" rx="2.5" ry="2.5" style="stroke:#1976D2;stroke-width:1;" width="221" x="1153" y="535.8488"/><text fill="#01579B" font-family="Verdana" font-size="14" font-weight="700" lengthAdjust="spacing" textLength="181.665" x="1172.6675" y="550.8439">BABIFIX Vitrine Django</text></g><!--cluster Data Layer--><g class="cluster" data-qualified-name="Data Layer" data-source-line="74" id="ent0029"><rect fill="#BBDEFB" height="112.6" rx="2.5" ry="2.5" style="stroke:#1976D2;stroke-width:1;" width="554" x="423" y="1091.4788"/><text fill="#01579B" font-family="Verdana" font-size="14" font-weight="700" lengthAdjust="spacing" textLength="85.9756" x="657.0122" y="1106.4739">Data Layer</text></g><!--cluster External Services--><g class="cluster" data-qualified-name="External Services" data-source-line="80" id="ent0033"><rect fill="#BBDEFB" height="103.59" rx="2.5" ry="2.5" style="stroke:#1976D2;stroke-width:1;" width="559" x="1422" y="678.2988"/><text fill="#01579B" font-family="Verdana" font-size="14" font-weight="700" lengthAdjust="spacing" textLength="137.3066" x="1632.8467" y="693.2939">External Services</text></g><!--entity ClientApp--><g class="entity" data-qualified-name="Frontend Layer.ClientApp" data-source-line="33" id="ent0003"><rect fill="#C8E6C9" height="52.5938" rx="2.5" ry="2.5" style="stroke:#2E7D32;stroke-width:1;" width="153.5605" x="28.22" y="119.2188"/><text fill="#1B5E20" font-family="Verdana" font-size="14" lengthAdjust="spacing" textLength="131.4688" x="38.22" y="142.2139">BABIFIX Client App</text><text fill="#1B5E20" font-family="Verdana" font-size="14" lengthAdjust="spacing" textLength="133.5605" x="38.22" y="158.5107">Flutter iOS/Android</text></g><!--entity ProApp--><g class="entity" data-qualified-name="Frontend Layer.ProApp" data-source-line="34" id="ent0004"><rect fill="#C8E6C9" height="52.5938" rx="2.5" ry="2.5" style="stroke:#2E7D32;stroke-width:1;" width="153.5605" x="217.22" y="119.2188"/><text fill="#1B5E20" font-family="Verdana" font-size="14" lengthAdjust="spacing" textLength="113.7021" x="227.22" y="142.2139">BABIFIX Pro App</text><text fill="#1B5E20" font-family="Verdana" font-size="14" lengthAdjust="spacing" textLength="133.5605" x="227.22" y="158.5107">Flutter iOS/Android</text></g><!--entity AdminPanel--><g class="entity" data-qualified-name="Frontend Layer.AdminPanel" data-source-line="35" id="ent0005"><rect fill="#C8E6C9" height="52.5938" rx="2.5" ry="2.5" style="stroke:#2E7D32;stroke-width:1;" width="208.959" x="405.52" y="119.2188"/><text fill="#1B5E20" font-family="Verdana" font-size="14" lengthAdjust="spacing" textLength="146.8496" x="415.52" y="142.2139">BABIFIX Admin Panel</text><text fill="#1B5E20" font-family="Verdana" font-size="14" lengthAdjust="spacing" textLength="188.959" x="415.52" y="158.5107">Django Templates + HTMX</text></g><!--entity VitrineWeb--><g class="entity" data-qualified-name="Frontend Layer.VitrineWeb" data-source-line="36" id="ent0006"><rect fill="#C8E6C9" height="52.5938" rx="2.5" ry="2.5" style="stroke:#2E7D32;stroke-width:1;" width="147.5791" x="649.21" y="119.2188"/><text fill="#1B5E20" font-family="Verdana" font-size="14" lengthAdjust="spacing" textLength="105.2256" x="659.21" y="142.2139">BABIFIX Vitrine</text><text fill="#1B5E20" font-family="Verdana" font-size="14" lengthAdjust="spacing" textLength="127.5791" x="659.21" y="158.5107">Django Templates</text></g><!--entity FCM--><g class="entity" data-qualified-name="Frontend Layer.FCM" data-source-line="38" id="ent0007"><rect fill="#C8E6C9" height="36.2969" rx="2.5" ry="2.5" style="stroke:#2E7D32;stroke-width:1;" width="202.9707" x="41.51" y="277.9588"/><text fill="#1B5E20" font-family="Verdana" font-size="14" lengthAdjust="spacing" textLength="182.9707" x="51.51" y="300.9539">Firebase Cloud Messaging</text></g><!--entity Nginx--><g class="entity" data-qualified-name="API Gateway . Load Balancer.Nginx" data-source-line="45" id="ent0011"><rect fill="#C8E6C9" height="52.5938" rx="2.5" ry="2.5" style="stroke:#2E7D32;stroke-width:1;" width="120.6865" x="852.66" y="269.8088"/><text fill="#1B5E20" font-family="Verdana" font-size="14" lengthAdjust="spacing" textLength="40.4072" x="862.66" y="292.8039">Nginx</text><text fill="#1B5E20" font-family="Verdana" font-size="14" lengthAdjust="spacing" textLength="100.6865" x="862.66" y="309.1007">Reverse Proxy</text></g><!--entity SSL--><g class="entity" data-qualified-name="API Gateway . Load Balancer.SSL" data-source-line="46" id="ent0012"><rect fill="#C8E6C9" height="36.2969" rx="2.5" ry="2.5" style="stroke:#2E7D32;stroke-width:1;" width="164.6963" x="852.65" y="383.4088"/><text fill="#1B5E20" font-family="Verdana" font-size="14" lengthAdjust="spacing" textLength="144.6963" x="862.65" y="406.4039">SSL/TLS Termination</text></g><!--entity RESTAPI--><g class="entity" data-qualified-name="Backend .Monolithe Django..BABIFIX Admin Django .API REST..RESTAPI" data-source-line="52" id="ent0015"><rect fill="#C8E6C9" height="52.5938" rx="2.5" ry="2.5" style="stroke:#2E7D32;stroke-width:1;" width="193.0039" x="697.5" y="562.6988"/><text fill="#1B5E20" font-family="Verdana" font-size="14" lengthAdjust="spacing" textLength="62.6104" x="707.5" y="585.6939">REST API</text><text fill="#1B5E20" font-family="Verdana" font-size="14" lengthAdjust="spacing" textLength="173.0039" x="707.5" y="601.9907">Django REST Framework</text></g><!--entity WebSocket--><g class="entity" data-qualified-name="Backend .Monolithe Django..BABIFIX Admin Django .API REST..WebSocket" data-source-line="53" id="ent0016"><rect fill="#C8E6C9" height="52.5938" rx="2.5" ry="2.5" style="stroke:#2E7D32;stroke-width:1;" width="187.6104" x="925.19" y="562.6988"/><text fill="#1B5E20" font-family="Verdana" font-size="14" lengthAdjust="spacing" textLength="78.7021" x="935.19" y="585.6939">WebSocket</text><text fill="#1B5E20" font-family="Verdana" font-size="14" lengthAdjust="spacing" textLength="167.6104" x="935.19" y="601.9907">Django Channels (ASGI)</text></g><!--entity JWTAuth--><g class="entity" data-qualified-name="Backend .Monolithe Django..BABIFIX Admin Django .API REST..JWTAuth" data-source-line="54" id="ent0017"><rect fill="#C8E6C9" height="52.5938" rx="2.5" ry="2.5" style="stroke:#2E7D32;stroke-width:1;" width="140.3672" x="775.82" y="713.2988"/><text fill="#1B5E20" font-family="Verdana" font-size="14" lengthAdjust="spacing" textLength="63.7861" x="785.82" y="736.2939">JWT Auth</text><text fill="#1B5E20" font-family="Verdana" font-size="14" lengthAdjust="spacing" textLength="120.3672" x="785.82" y="752.5907">(auth.py custom)</text></g><!--entity RateLimiter--><g class="entity" data-qualified-name="Backend .Monolithe Django..BABIFIX Admin Django .API REST..RateLimiter" data-source-line="56" id="ent0018"><rect fill="#C8E6C9" height="52.5938" rx="2.5" ry="2.5" style="stroke:#2E7D32;stroke-width:1;" width="117.7471" x="623.13" y="713.2988"/><text fill="#1B5E20" font-family="Verdana" font-size="14" lengthAdjust="spacing" textLength="85.9346" x="633.13" y="736.2939">Rate Limiter</text><text fill="#1B5E20" font-family="Verdana" font-size="14" lengthAdjust="spacing" textLength="97.7471" x="633.13" y="752.5907">(throttling.py)</text></g><!--entity SecurityMW--><g class="entity" data-qualified-name="Backend .Monolithe Django..BABIFIX Admin Django .API REST..SecurityMW" data-source-line="57" id="ent0019"><rect fill="#C8E6C9" height="52.5938" rx="2.5" ry="2.5" style="stroke:#2E7D32;stroke-width:1;" width="162.584" x="950.71" y="713.2988"/><text fill="#1B5E20" font-family="Verdana" font-size="14" lengthAdjust="spacing" textLength="142.584" x="960.71" y="736.2939">Security Middleware</text><text fill="#1B5E20" font-family="Verdana" font-size="14" lengthAdjust="spacing" textLength="95.6758" x="960.71" y="752.5907">(CORS, CSRF)</text></g><!--entity Views--><g class="entity" data-qualified-name="Backend .Monolithe Django..BABIFIX Admin Django .API REST..adminpanel..Views" data-source-line="60" id="ent0021"><rect fill="#C8E6C9" height="36.2969" rx="2.5" ry="2.5" style="stroke:#2E7D32;stroke-width:1;" width="179.5645" x="408.22" y="721.4488"/><text fill="#1B5E20" font-family="Verdana" font-size="14" lengthAdjust="spacing" textLength="159.5645" x="418.22" y="744.4439">Views (80+ endpoints)</text></g><!--entity Models--><g class="entity" data-qualified-name="Backend .Monolithe Django..BABIFIX Admin Django .API REST..adminpanel..Models" data-source-line="61" id="ent0022"><rect fill="#C8E6C9" height="36.2969" rx="2.5" ry="2.5" style="stroke:#2E7D32;stroke-width:1;" width="69.3281" x="176.34" y="721.4488"/><text fill="#1B5E20" font-family="Verdana" font-size="14" lengthAdjust="spacing" textLength="49.3281" x="186.34" y="744.4439">Models</text></g><!--entity Serializers--><g class="entity" data-qualified-name="Backend .Monolithe Django..BABIFIX Admin Django .API REST..adminpanel..Serializers" data-source-line="62" id="ent0023"><rect fill="#C8E6C9" height="36.2969" rx="2.5" ry="2.5" style="stroke:#2E7D32;stroke-width:1;" width="92.5156" x="280.74" y="721.4488"/><text fill="#1B5E20" font-family="Verdana" font-size="14" lengthAdjust="spacing" textLength="72.5156" x="290.74" y="744.4439">Serializers</text></g><!--entity Signals--><g class="entity" data-qualified-name="Backend .Monolithe Django..BABIFIX Admin Django .API REST..adminpanel..Signals" data-source-line="63" id="ent0024"><rect fill="#C8E6C9" height="36.2969" rx="2.5" ry="2.5" style="stroke:#2E7D32;stroke-width:1;" width="147.2441" x="336.38" y="828.8888"/><text fill="#1B5E20" font-family="Verdana" font-size="14" lengthAdjust="spacing" textLength="127.2441" x="346.38" y="851.8839">Signals (push, ws)</text></g><!--entity Consumers--><g class="entity" data-qualified-name="Backend .Monolithe Django..BABIFIX Admin Django .API REST..adminpanel..Consumers" data-source-line="64" id="ent0025"><rect fill="#C8E6C9" height="36.2969" rx="2.5" ry="2.5" style="stroke:#2E7D32;stroke-width:1;" width="136.7852" x="335.61" y="942.1888"/><text fill="#1B5E20" font-family="Verdana" font-size="14" lengthAdjust="spacing" textLength="116.7852" x="345.61" y="965.1839">Consumers (WS)</text></g><!--entity VitrineViews--><g class="entity" data-qualified-name="Backend .Monolithe Django..BABIFIX Vitrine Django.VitrineViews" data-source-line="69" id="ent0027"><rect fill="#C8E6C9" height="36.2969" rx="2.5" ry="2.5" style="stroke:#2E7D32;stroke-width:1;" width="60.8242" x="1168.59" y="570.8488"/><text fill="#1B5E20" font-family="Verdana" font-size="14" lengthAdjust="spacing" textLength="40.8242" x="1178.59" y="593.8439">Views</text></g><!--entity Templates--><g class="entity" data-qualified-name="Backend .Monolithe Django..BABIFIX Vitrine Django.Templates" data-source-line="70" id="ent0028"><rect fill="#C8E6C9" height="36.2969" rx="2.5" ry="2.5" style="stroke:#2E7D32;stroke-width:1;" width="93.5547" x="1264.22" y="570.8488"/><text fill="#1B5E20" font-family="Verdana" font-size="14" lengthAdjust="spacing" textLength="73.5547" x="1274.22" y="593.8439">Templates</text></g><!--entity Postgres--><g class="entity" data-qualified-name="Data Layer.Postgres" data-source-line="75" id="ent0030"><path d="M647.49,1144.6288 C647.49,1134.6288 708.9988,1134.6288 708.9988,1134.6288 C708.9988,1134.6288 770.5076,1134.6288 770.5076,1144.6288 L770.5076,1169.9256 C770.5076,1179.9256 708.9988,1179.9256 708.9988,1179.9256 C708.9988,1179.9256 647.49,1179.9256 647.49,1169.9256 L647.49,1144.6288" fill="#FFFFFF" style="stroke:#000000;stroke-width:1;"/><path d="M647.49,1144.6288 C647.49,1154.6288 708.9988,1154.6288 708.9988,1154.6288 C708.9988,1154.6288 770.5076,1154.6288 770.5076,1144.6288" fill="none" style="stroke:#000000;stroke-width:1;"/><text fill="#000000" font-family="Verdana" font-size="14" lengthAdjust="spacing" textLength="103.0176" x="657.49" y="1171.6239">PostgreSQL 16</text></g><!--entity Redis--><g class="entity" data-qualified-name="Data Layer.Redis" data-source-line="76" id="ent0031"><path d="M439.1,1136.4788 C439.1,1126.4788 525.9975,1126.4788 525.9975,1126.4788 C525.9975,1126.4788 612.8949,1126.4788 612.8949,1136.4788 L612.8949,1178.0725 C612.8949,1188.0725 525.9975,1188.0725 525.9975,1188.0725 C525.9975,1188.0725 439.1,1188.0725 439.1,1178.0725 L439.1,1136.4788" fill="#FFFFFF" style="stroke:#000000;stroke-width:1;"/><path d="M439.1,1136.4788 C439.1,1146.4788 525.9975,1146.4788 525.9975,1146.4788 C525.9975,1146.4788 612.8949,1146.4788 612.8949,1136.4788" fill="none" style="stroke:#000000;stroke-width:1;"/><text fill="#000000" font-family="Verdana" font-size="14" lengthAdjust="spacing" textLength="51.7686" x="449.1" y="1163.4739">Redis 7</text><text fill="#000000" font-family="Verdana" font-size="14" lengthAdjust="spacing" textLength="153.7949" x="449.1" y="1179.7707">(Cache + WebSocket)</text></g><!--entity Media--><g class="entity" data-qualified-name="Data Layer.Media" data-source-line="77" id="ent0032"><path d="M805.21,1136.4788 C805.21,1126.4788 882.9986,1126.4788 882.9986,1126.4788 C882.9986,1126.4788 960.7871,1126.4788 960.7871,1136.4788 L960.7871,1178.0725 C960.7871,1188.0725 882.9986,1188.0725 882.9986,1188.0725 C882.9986,1188.0725 805.21,1188.0725 805.21,1178.0725 L805.21,1136.4788" fill="#FFFFFF" style="stroke:#000000;stroke-width:1;"/><path d="M805.21,1136.4788 C805.21,1146.4788 882.9986,1146.4788 882.9986,1146.4788 C882.9986,1146.4788 960.7871,1146.4788 960.7871,1136.4788" fill="none" style="stroke:#000000;stroke-width:1;"/><text fill="#000000" font-family="Verdana" font-size="14" lengthAdjust="spacing" textLength="92.7295" x="815.21" y="1163.4739">MEDIA_ROOT</text><text fill="#000000" font-family="Verdana" font-size="14" lengthAdjust="spacing" textLength="135.5771" x="815.21" y="1179.7707">(Local File Storage)</text></g><!--entity CinetPay--><g class="entity" data-qualified-name="External Services.CinetPay" data-source-line="81" id="ent0034"><rect fill="#C8E6C9" height="52.5938" rx="2.5" ry="2.5" style="stroke:#2E7D32;stroke-width:1;" width="127.7139" x="1438.14" y="713.2988"/><text fill="#1B5E20" font-family="Verdana" font-size="14" lengthAdjust="spacing" textLength="88.5459" x="1448.14" y="736.2939">CinetPay API</text><text fill="#1B5E20" font-family="Verdana" font-size="14" lengthAdjust="spacing" textLength="107.7139" x="1448.14" y="752.5907">(Mobile Money)</text></g><!--entity Firebase--><g class="entity" data-qualified-name="External Services.Firebase" data-source-line="82" id="ent0035"><rect fill="#C8E6C9" height="52.5938" rx="2.5" ry="2.5" style="stroke:#2E7D32;stroke-width:1;" width="94.8945" x="1600.55" y="713.2988"/><text fill="#1B5E20" font-family="Verdana" font-size="14" lengthAdjust="spacing" textLength="59.6846" x="1610.55" y="736.2939">Firebase</text><text fill="#1B5E20" font-family="Verdana" font-size="14" lengthAdjust="spacing" textLength="74.8945" x="1610.55" y="752.5907">(FCM only)</text></g><!--entity SMTP--><g class="entity" data-qualified-name="External Services.SMTP" data-source-line="83" id="ent0036"><rect fill="#C8E6C9" height="52.5938" rx="2.5" ry="2.5" style="stroke:#2E7D32;stroke-width:1;" width="69.7656" x="1730.12" y="713.2988"/><text fill="#1B5E20" font-family="Verdana" font-size="14" lengthAdjust="spacing" textLength="37.96" x="1740.12" y="736.2939">SMTP</text><text fill="#1B5E20" font-family="Verdana" font-size="14" lengthAdjust="spacing" textLength="49.7656" x="1740.12" y="752.5907">(Email)</text></g><!--entity Sentry--><g class="entity" data-qualified-name="External Services.Sentry" data-source-line="84" id="ent0037"><rect fill="#C8E6C9" height="52.5938" rx="2.5" ry="2.5" style="stroke:#2E7D32;stroke-width:1;" width="130.3936" x="1834.8" y="713.2988"/><text fill="#1B5E20" font-family="Verdana" font-size="14" lengthAdjust="spacing" textLength="45.9033" x="1844.8" y="736.2939">Sentry</text><text fill="#1B5E20" font-family="Verdana" font-size="14" lengthAdjust="spacing" textLength="110.3936" x="1844.8" y="752.5907">(Error Tracking)</text></g><g class="entity" data-qualified-name="GMN66" data-source-line="129" id="ent0067"><path d="M594.98,1251.0788 L594.98,1321.61 A0,0 0 0 0 594.98,1321.61 L823.0279,1321.61 A0,0 0 0 0 823.0279,1321.61 L823.0279,1261.0788 L813.0279,1251.0788 L713,1251.0788 L709,1180.4088 L705,1251.0788 L594.98,1251.0788 A0,0 0 0 0 594.98,1251.0788" fill="#FFFFFF" style="stroke:#000000;stroke-width:1;"/><path d="M813.0279,1251.0788 L813.0279,1261.0788 L823.0279,1261.0788 L813.0279,1251.0788" fill="#FFFFFF" style="stroke:#000000;stroke-width:1;"/><text fill="#000000" font-family="Verdana" font-size="13" lengthAdjust="spacing" textLength="207.0479" x="600.98" y="1268.1456">- Users, Providers, Reservations</text><text fill="#000000" font-family="Verdana" font-size="13" lengthAdjust="spacing" textLength="130.3301" x="600.98" y="1283.2785">- Payments, Ratings</text><text fill="#000000" font-family="Verdana" font-size="13" lengthAdjust="spacing" textLength="150.9092" x="600.98" y="1298.4113">- Categories, Messages</text><text fill="#000000" font-family="Verdana" font-size="13" lengthAdjust="spacing" textLength="77.27" x="600.98" y="1313.5441">- Audit Logs</text></g><g class="entity" data-qualified-name="GMN69" data-source-line="136" id="ent0070"><path d="M394.37,1251.0788 L394.37,1321.61 A0,0 0 0 0 394.37,1321.61 L559.6205,1321.61 A0,0 0 0 0 559.6205,1321.61 L559.6205,1261.0788 L549.6205,1251.0788 L494.26,1251.0788 L514.39,1188.3888 L486.26,1251.0788 L394.37,1251.0788 A0,0 0 0 0 394.37,1251.0788" fill="#FFFFFF" style="stroke:#000000;stroke-width:1;"/><path d="M549.6205,1251.0788 L549.6205,1261.0788 L559.6205,1261.0788 L549.6205,1251.0788" fill="#FFFFFF" style="stroke:#000000;stroke-width:1;"/><text fill="#000000" font-family="Verdana" font-size="13" lengthAdjust="spacing" textLength="101.0547" x="400.37" y="1268.1456">- Session cache</text><text fill="#000000" font-family="Verdana" font-size="13" lengthAdjust="spacing" textLength="132.5708" x="400.37" y="1283.2785">- Rate limit counters</text><text fill="#000000" font-family="Verdana" font-size="13" lengthAdjust="spacing" textLength="144.2505" x="400.37" y="1298.4113">- WebSocket channels</text><text fill="#000000" font-family="Verdana" font-size="13" lengthAdjust="spacing" textLength="135.3765" x="400.37" y="1313.5441">- Real-time presence</text></g><g class="entity" data-qualified-name="GMN72" data-source-line="143" id="ent0073"><path d="M858.41,1251.0788 L858.41,1321.61 A0,0 0 0 0 858.41,1321.61 L1027.5833,1321.61 A0,0 0 0 0 1027.5833,1321.61 L1027.5833,1261.0788 L1017.5833,1251.0788 L930.76,1251.0788 L897.22,1188.3888 L922.76,1251.0788 L858.41,1251.0788 A0,0 0 0 0 858.41,1251.0788" fill="#FFFFFF" style="stroke:#000000;stroke-width:1;"/><path d="M1017.5833,1251.0788 L1017.5833,1261.0788 L1027.5833,1261.0788 L1017.5833,1251.0788" fill="#FFFFFF" style="stroke:#000000;stroke-width:1;"/><text fill="#000000" font-family="Verdana" font-size="13" lengthAdjust="spacing" textLength="148.1733" x="864.41" y="1268.1456">- Provider photos (CNI)</text><text fill="#000000" font-family="Verdana" font-size="13" lengthAdjust="spacing" textLength="125.6201" x="864.41" y="1283.2785">- Chat attachments</text><text fill="#000000" font-family="Verdana" font-size="13" lengthAdjust="spacing" textLength="99.4233" x="864.41" y="1298.4113">- Rating photos</text><text fill="#000000" font-family="Verdana" font-size="13" lengthAdjust="spacing" textLength="106.063" x="864.41" y="1313.5441">- Category icons</text></g><!--link ClientApp to FCM--><g class="link" data-entity-1="ent0003" data-entity-2="ent0007" data-link-type="dependency" data-source-line="40" id="lnk8"><path d="M111.53,172.0588 C119.26,202.2588 130.4123,245.9061 137.0823,271.9661" fill="none" id="ClientApp-to-FCM" style="stroke:#64B5F6;stroke-width:1;"/><polygon fill="#64B5F6" points="138.57,277.7788,140.2135,268.068,137.3302,272.9349,132.4633,270.0516,138.57,277.7788" style="stroke:#64B5F6;stroke-width:1;"/></g><!--link ProApp to FCM--><g class="link" data-entity-1="ent0004" data-entity-2="ent0007" data-link-type="dependency" data-source-line="41" id="lnk9"><path d="M268.04,172.0588 C237.35,202.2588 191.3772,247.511 164.8872,273.571" fill="none" id="ProApp-to-FCM" style="stroke:#64B5F6;stroke-width:1;"/><polygon fill="#64B5F6" points="160.61,277.7788,169.831,274.3186,164.1743,274.2723,164.2206,268.6156,160.61,277.7788" style="stroke:#64B5F6;stroke-width:1;"/></g><!--link ClientApp to Nginx--><g class="link" data-entity-1="ent0003" data-entity-2="ent0011" data-link-type="dependency" data-source-line="88" id="lnk38"><path d="M182.08,167.8188 C188.12,169.2488 194.15,170.5988 200,171.8088 C339.05,200.5688 374.55,206.4288 516,218.8088 C548.89,221.6888 781.59,216.6488 813,226.8088 C840,235.5488 861.7006,250.2518 880.5606,265.8018" fill="none" id="ClientApp-to-Nginx" style="stroke:#64B5F6;stroke-width:1;"/><polygon fill="#64B5F6" points="885.19,269.6188,880.7905,260.8071,881.3322,266.438,875.7013,266.9796,885.19,269.6188" style="stroke:#64B5F6;stroke-width:1;"/><text fill="#000000" font-family="Verdana" font-size="13" lengthAdjust="spacing" textLength="41.7485" x="517" y="214.8756">HTTPS</text></g><!--link ProApp to Nginx--><g class="link" data-entity-1="ent0004" data-entity-2="ent0011" data-link-type="dependency" data-source-line="89" id="lnk39"><path d="M371.02,168.0488 C376.75,169.3988 382.45,170.6688 388,171.8088 C532.25,201.4488 569.66,202.3088 716,218.8088 C758.98,223.6588 772.23,212.3588 813,226.8088 C839.35,236.1588 860.6484,250.4637 879.5084,265.6637" fill="none" id="ProApp-to-Nginx" style="stroke:#64B5F6;stroke-width:1;"/><polygon fill="#64B5F6" points="884.18,269.4288,879.6826,260.6667,880.287,266.2912,874.6625,266.8956,884.18,269.4288" style="stroke:#64B5F6;stroke-width:1;"/></g><!--link AdminPanel to Nginx--><g class="link" data-entity-1="ent0005" data-entity-2="ent0011" data-link-type="dependency" data-source-line="90" id="lnk40"><path d="M610.62,172.3088 C695.06,194.0988 803.44,222.4388 813,226.8088 C837.47,238.0088 857.6846,251.4593 876.5646,265.7393" fill="none" id="AdminPanel-to-Nginx" style="stroke:#64B5F6;stroke-width:1;"/><polygon fill="#64B5F6" points="881.35,269.3588,876.5849,260.7394,877.3622,266.3426,871.759,267.1198,881.35,269.3588" style="stroke:#64B5F6;stroke-width:1;"/></g><!--link VitrineWeb to Nginx--><g class="link" data-entity-1="ent0006" data-entity-2="ent0011" data-link-type="dependency" data-source-line="91" id="lnk41"><path d="M755.66,172.0588 C790.46,199.2788 840.5238,238.4224 875.4038,265.7024" fill="none" id="VitrineWeb-to-Nginx" style="stroke:#64B5F6;stroke-width:1;"/><polygon fill="#64B5F6" points="880.13,269.3988,875.505,260.7034,876.1915,266.3184,870.5765,267.005,880.13,269.3988" style="stroke:#64B5F6;stroke-width:1;"/></g><!--link Nginx to SSL--><g class="link" data-entity-1="ent0011" data-entity-2="ent0012" data-link-type="dependency" data-source-line="93" id="lnk42"><path d="M918.44,322.6788 C922.43,341.4688 926.5118,360.63 930.0318,377.18" fill="none" id="Nginx-to-SSL" style="stroke:#64B5F6;stroke-width:1;"/><polygon fill="#64B5F6" points="931.28,383.0488,933.3202,373.4135,930.2398,378.1581,925.4952,375.0778,931.28,383.0488" style="stroke:#64B5F6;stroke-width:1;"/></g><!--link SSL to RESTAPI--><g class="link" data-entity-1="ent0012" data-entity-2="ent0015" data-link-type="dependency" data-source-line="96" id="lnk43"><path d="M921.74,419.9988 C896.78,452.8188 846.3822,519.1131 817.2222,557.4531" fill="none" id="SSL-to-RESTAPI" style="stroke:#64B5F6;stroke-width:1;"/><polygon fill="#64B5F6" points="813.59,562.2288,822.2221,557.4867,816.6168,558.249,815.8545,552.6438,813.59,562.2288" style="stroke:#64B5F6;stroke-width:1;"/><text fill="#000000" font-family="Verdana" font-size="13" lengthAdjust="spacing" textLength="35.0898" x="898" y="464.7656">/api/*</text></g><!--link SSL to VitrineViews--><g class="link" data-entity-1="ent0012" data-entity-2="ent0027" data-link-type="dependency" data-source-line="99" id="lnk44"><path d="M1013.72,420.1488 C1051.58,431.5488 1095.83,449.4788 1129,476.6988 C1160.41,502.4788 1179.6487,540.6902 1189.8787,564.9502" fill="none" id="SSL-to-VitrineViews" style="stroke:#64B5F6;stroke-width:1;"/><polygon fill="#64B5F6" points="1192.21,570.4788,1192.3988,560.6317,1190.2673,565.8716,1185.0273,563.7401,1192.21,570.4788" style="stroke:#64B5F6;stroke-width:1;"/><text fill="#000000" font-family="Verdana" font-size="13" lengthAdjust="spacing" textLength="10.8799" x="1116" y="464.7656">/*</text></g><!--link RESTAPI to JWTAuth--><g class="link" data-entity-1="ent0015" data-entity-2="ent0017" data-link-type="dependency" data-source-line="102" id="lnk45"><path d="M802.94,615.5388 C812.46,642.7588 825.4794,679.9451 835.0194,707.2251" fill="none" id="RESTAPI-to-JWTAuth" style="stroke:#64B5F6;stroke-width:1;"/><polygon fill="#64B5F6" points="837,712.8888,837.8048,703.0728,835.3495,708.169,830.2533,705.7137,837,712.8888" style="stroke:#64B5F6;stroke-width:1;"/></g><!--link RESTAPI to SecurityMW--><g class="link" data-entity-1="ent0015" data-entity-2="ent0019" data-link-type="dependency" data-source-line="103" id="lnk46"><path d="M841.28,615.7488 C868.7,631.0288 903.7,651.0988 934,670.2988 C955.2,683.7288 973.3642,696.2361 991.7842,709.3661" fill="none" id="RESTAPI-to-SecurityMW" style="stroke:#64B5F6;stroke-width:1;"/><polygon fill="#64B5F6" points="996.67,712.8488,991.6631,704.3676,992.5985,709.9465,987.0195,710.882,996.67,712.8488" style="stroke:#64B5F6;stroke-width:1;"/></g><!--link RESTAPI to RateLimiter--><g class="link" data-entity-1="ent0015" data-entity-2="ent0018" data-link-type="dependency" data-source-line="104" id="lnk47"><path d="M774.75,615.5388 C754.23,642.7588 725.5512,680.8172 704.9912,708.0972" fill="none" id="RESTAPI-to-RateLimiter" style="stroke:#64B5F6;stroke-width:1;"/><polygon fill="#64B5F6" points="701.38,712.8888,709.9912,708.1089,704.3894,708.8958,703.6025,703.2939,701.38,712.8888" style="stroke:#64B5F6;stroke-width:1;"/></g><!--link RESTAPI to Views--><g class="link" data-entity-1="ent0015" data-entity-2="ent0021" data-link-type="dependency" data-source-line="107" id="lnk48"><path d="M716.16,615.7588 C677.75,629.7588 631.34,648.6388 592,670.2988 C565.32,684.9888 542.0788,702.3402 523.6688,717.2002" fill="none" id="RESTAPI-to-Views" style="stroke:#64B5F6;stroke-width:1;"/><polygon fill="#64B5F6" points="519,720.9688,528.5156,718.4285,522.8907,717.8283,523.4909,712.2034,519,720.9688" style="stroke:#64B5F6;stroke-width:1;"/></g><!--reverse link Models to Views--><g class="link" data-entity-1="ent0022" data-entity-2="ent0021" data-link-type="dependency" data-source-line="108" id="lnk50"><path d="M221.3764,715.8148 C231.7764,694.0448 249.93,664.3988 280.5,650.7188 C318.23,633.8388 334.14,638.1188 373.5,650.7188 C416.75,664.5788 457.77,699.5688 480.24,721.2888" fill="none" id="Models-backto-Views" style="stroke:#64B5F6;stroke-width:1;"/><polygon fill="#64B5F6" points="218.79,721.2288,226.2788,714.8321,220.9453,716.7171,219.0602,711.3836,218.79,721.2288" style="stroke:#64B5F6;stroke-width:1;"/></g><!--reverse link Serializers to Views--><g class="link" data-entity-1="ent0023" data-entity-2="ent0021" data-link-type="dependency" data-source-line="109" id="lnk52"><path d="M379.42,739.5888 C390.94,739.5888 396.46,739.5888 407.97,739.5888" fill="none" id="Serializers-backto-Views" style="stroke:#64B5F6;stroke-width:1;"/><polygon fill="#64B5F6" points="373.42,739.5888,382.42,743.5888,378.42,739.5888,382.42,735.5888,373.42,739.5888" style="stroke:#64B5F6;stroke-width:1;"/></g><!--link Views to Signals--><g class="link" data-entity-1="ent0021" data-entity-2="ent0024" data-link-type="dependency" data-source-line="110" id="lnk53"><path d="M483.47,758.0088 C467.16,777.5388 444.715,804.4427 428.395,823.9927" fill="none" id="Views-to-Signals" style="stroke:#64B5F6;stroke-width:1;"/><polygon fill="#64B5F6" points="424.55,828.5988,433.3883,824.253,427.7542,824.7604,427.2469,819.1263,424.55,828.5988" style="stroke:#64B5F6;stroke-width:1;"/></g><!--link Signals to Consumers--><g class="link" data-entity-1="ent0024" data-entity-2="ent0025" data-link-type="dependency" data-source-line="111" id="lnk54"><path d="M409.06,865.4288 C407.94,886.2188 406.4041,914.8175 405.2741,935.7075" fill="none" id="Signals-to-Consumers" style="stroke:#64B5F6;stroke-width:1;"/><polygon fill="#64B5F6" points="404.95,941.6988,409.4303,932.9279,405.2201,936.706,401.442,932.4958,404.95,941.6988" style="stroke:#64B5F6;stroke-width:1;"/></g><!--link Views to Postgres--><g class="link" data-entity-1="ent0021" data-entity-2="ent0030" data-link-type="dependency" data-source-line="114" id="lnk55"><path d="M506.93,758.1888 C540.7,824.7188 657.8241,1055.4586 695.1241,1128.9386" fill="none" id="Views-to-Postgres" style="stroke:#64B5F6;stroke-width:1;"/><polygon fill="#64B5F6" points="697.84,1134.2888,697.333,1124.453,695.5768,1129.8303,690.1995,1128.0741,697.84,1134.2888" style="stroke:#64B5F6;stroke-width:1;"/></g><!--link Views to Redis--><g class="link" data-entity-1="ent0021" data-entity-2="ent0031" data-link-type="dependency" data-source-line="115" id="lnk56"><path d="M499.19,758.1888 C503.51,822.3988 518.0666,1038.5723 523.5566,1120.0423" fill="none" id="Views-to-Redis" style="stroke:#64B5F6;stroke-width:1;"/><polygon fill="#64B5F6" points="523.96,1126.0288,527.3458,1116.7802,523.6238,1121.0401,519.3639,1117.3181,523.96,1126.0288" style="stroke:#64B5F6;stroke-width:1;"/></g><!--link Consumers to Redis--><g class="link" data-entity-1="ent0025" data-entity-2="ent0031" data-link-type="dependency" data-source-line="118" id="lnk57"><path d="M352.09,978.8788 C301.3,998.9088 235.67,1034.2988 266,1075.4788 C286.88,1103.8388 365.6571,1125.3303 432.7771,1139.3703" fill="none" id="Consumers-to-Redis" style="stroke:#64B5F6;stroke-width:1;"/><polygon fill="#64B5F6" points="438.65,1140.5988,430.6596,1134.8408,433.7559,1139.575,429.0217,1142.6713,438.65,1140.5988" style="stroke:#64B5F6;stroke-width:1;"/><text fill="#000000" font-family="Verdana" font-size="13" lengthAdjust="spacing" textLength="93.7485" x="267" y="1071.5456">Channel Layer</text></g><!--link Consumers to Redis--><g class="link" data-entity-1="ent0025" data-entity-2="ent0031" data-link-type="dependency" data-source-line="119" id="lnk59"><path d="M396.8396,984.6169 C390.4096,1008.1669 384.32,1044.8388 401,1075.4788 C412.67,1096.9288 427.6161,1110.4699 448.3161,1122.8999" fill="none" id="Consumers-Redis" style="stroke:#64B5F6;stroke-width:1;"/><polygon fill="#64B5F6" points="398.42,978.8288,392.1907,986.4574,397.103,983.6522,399.9082,988.5645,398.42,978.8288" style="stroke:#64B5F6;stroke-width:1;"/><polygon fill="#64B5F6" points="453.46,1125.9888,447.8034,1117.9263,449.1734,1123.4147,443.685,1124.7848,453.46,1125.9888" style="stroke:#64B5F6;stroke-width:1;"/><text fill="#000000" font-family="Verdana" font-size="13" lengthAdjust="spacing" textLength="111.6235" x="402" y="1071.5456">WebSocket State</text></g><!--link RateLimiter to Redis--><g class="link" data-entity-1="ent0018" data-entity-2="ent0031" data-link-type="dependency" data-source-line="120" id="lnk61"><path d="M678.1878,772.1675 C671.0178,826.6975 650.76,951.3988 604,1050.4788 C590.85,1078.3488 573.7343,1101.6405 556.8443,1121.7905" fill="none" id="RateLimiter-Redis" style="stroke:#64B5F6;stroke-width:1;"/><polygon fill="#64B5F6" points="678.97,766.2188,673.8308,774.6205,678.3182,771.1761,681.7626,775.6634,678.97,766.2188" style="stroke:#64B5F6;stroke-width:1;"/><polygon fill="#64B5F6" points="552.99,1126.3888,561.837,1122.0609,556.2019,1122.5569,555.706,1116.9218,552.99,1126.3888" style="stroke:#64B5F6;stroke-width:1;"/><text fill="#000000" font-family="Verdana" font-size="13" lengthAdjust="spacing" textLength="40.4282" x="656" y="908.2556">Cache</text></g><!--link RESTAPI to CinetPay--><g class="link" data-entity-1="ent0015" data-entity-2="ent0034" data-link-type="dependency" data-source-line="123" id="lnk62"><path d="M859.4,615.7688 C875.15,621.3688 892.04,626.8888 908,631.1488 C1004.38,656.8788 1030.83,652.6088 1129,670.2988 C1237.36,689.8188 1357.4397,711.8897 1431.7697,725.6097" fill="none" id="RESTAPI-to-CinetPay" style="stroke:#64B5F6;stroke-width:1;"/><polygon fill="#64B5F6" points="1437.67,726.6988,1429.5456,721.1316,1432.7531,725.7912,1428.0934,728.9987,1437.67,726.6988" style="stroke:#64B5F6;stroke-width:1;"/><text fill="#000000" font-family="Verdana" font-size="13" lengthAdjust="spacing" textLength="82.1958" x="1078" y="658.3656">Payment API</text></g><!--link RESTAPI to Firebase--><g class="link" data-entity-1="ent0015" data-entity-2="ent0035" data-link-type="dependency" data-source-line="124" id="lnk63"><path d="M855.18,615.7888 C872.02,621.8588 890.47,627.5888 908,631.1488 C1055.25,661.0388 1446.75,606.9488 1583,670.2988 C1602.74,679.4788 1615.8855,692.7672 1627.4455,708.0172" fill="none" id="RESTAPI-to-Firebase" style="stroke:#64B5F6;stroke-width:1;"/><polygon fill="#64B5F6" points="1631.07,712.7988,1628.8209,703.2101,1628.0496,708.8142,1622.4455,708.0429,1631.07,712.7988" style="stroke:#64B5F6;stroke-width:1;"/><text fill="#000000" font-family="Verdana" font-size="13" lengthAdjust="spacing" textLength="63.4067" x="1556" y="658.3656">FCM push</text></g><!--link RESTAPI to SMTP--><g class="link" data-entity-1="ent0015" data-entity-2="ent0036" data-link-type="dependency" data-source-line="125" id="lnk64"><path d="M853.92,615.7688 C871.07,621.9988 890,627.8188 908,631.1488 C1065.36,660.2788 1469.83,620.9288 1628,645.2988 C1666.92,651.2888 1680.57,647.9588 1713,670.2988 C1728.83,681.1988 1738.7161,693.3795 1747.7961,707.8195" fill="none" id="RESTAPI-to-SMTP" style="stroke:#64B5F6;stroke-width:1;"/><polygon fill="#64B5F6" points="1750.99,712.8988,1749.5853,703.1506,1748.3284,708.666,1742.813,707.4091,1750.99,712.8988" style="stroke:#64B5F6;stroke-width:1;"/><text fill="#000000" font-family="Verdana" font-size="13" lengthAdjust="spacing" textLength="36.0674" x="1699" y="658.3656">Email</text></g><!--link RESTAPI to Sentry--><g class="link" data-entity-1="ent0015" data-entity-2="ent0037" data-link-type="dependency" data-source-line="126" id="lnk65"><path d="M853.61,615.6888 C870.84,621.9588 889.89,627.8188 908,631.1488 C1090.75,664.7188 1560.98,613.2288 1744,645.2988 C1777.78,651.2188 1787.06,653.5788 1817,670.2988 C1837.69,681.8488 1853.8417,694.7113 1869.3417,708.8113" fill="none" id="RESTAPI-to-Sentry" style="stroke:#64B5F6;stroke-width:1;"/><polygon fill="#64B5F6" points="1873.78,712.8488,1869.8141,703.8337,1870.0814,709.4842,1864.4308,709.7515,1873.78,712.8488" style="stroke:#64B5F6;stroke-width:1;"/><text fill="#000000" font-family="Verdana" font-size="13" lengthAdjust="spacing" textLength="66.5552" x="1802" y="658.3656">Error Logs</text></g><?plantuml-src VLVRSjis47tdLw3kGsqdgY-9xJZJwOn4YQawKgoAQfoPkjE1ILX2JG4i2DfMC_dt7bn8aPJIXoJsxjd5xi7k0VETNh4r8tb6kGY2uf6Bd2gw9lSqULmgMOeqb9bKvFlHc-Wy6ZOGYLpdKZ2XOxt9654iqLGiCzQ0v4X2bwmBQ21g8_aI43Be7ZeO34VHm7YaIfdorhFhgylXEQoH5DhRJiykhgu7mTTWNuNxauVlHfVXTJVv-UXg-AQJ_6nmCJe_RIVdGZFrG9DlL1v5qNNujfiykkw_Exze9uykhgApgtPogfHyjeazwFBju2AwD23DDTWwFXxq1-De_FducFJ8aDCbmd2FAKC4kYweqCMTwAjanJKuBXKZKobanlMA_rComWI0PR9YHH3uQo87aK9PJAHaGZTC7Q00LF27Fuc46JTSzlFyJaHPgT4_uJVnIL-aIlBqJq8BZm6a6JXJyl-Z0EY4zDCr5sH61SlknF1lZ8Wa2xR6c6fMa5VabyNqimsrG8jhXd_YMd71TaDjZFVUidlJttPA3YAks3qjm64covHCML7G9HVB0nCLXLC3hpialLG-YzxFra5y3otZrmQr_TcOV405ptH3JiX4qXGpar6HE9vH-qUSz78dvko9API0V2yRMwvr64GSJquManZTA3HDDPV20c1ldMM6qTpYONNZZ3WUZloLRf4jkZrPXwRM-IXU7BdAMXGPEm6WfjOQ8amVUvRgqJ9bJ81qGy5tB56PhcF35HMukG97nX_6HpQuHdN3Vxt5mQLUtOb3Ydz-p3SaAGijrouERkErKJj5WtWouMkiWaAuNYcfTOQBHH8NRH0Uq0sEML8ghZTaojCqmmKgpDLXU3EFNvCmdaSkGOMQtcuhg6ccXjxS3Eb9HMdhY4-SFOE4TwUli9TfBg4jXKjhFRi1Kvc2DejmF-v2OgOupVY_62PVOFtx7Z1V2chk8I-BrMlox4_tvbryA4LHhf6A7Dx63bkRBFfhuFxi6pQ_VdxSzioORVgWiQbR5XgeUgSjilxD7jpSXY7LT2jeXAJutIxvmKmMUgbO_Dk4d5tQBDvIj61pblA2N9bBfn1Cg4yzetvu3A0LCXqDn_s_vZSt2qHDP48p4d78TgobGb4kR8emsYfrz8Bv0-FcifvuObhxqbQe46pe6JJ4hY0M_DwanPupFyWLOB-m8GJ2HAJ8FBnojE7nT343TBIcFFEJ04i7Wx_Lng3mLYcoK6W26rLjWt6QtdumWo7m0a6iYc1NFAsuaVSGzCKi3ZeYwfHlA_4TnrR7Eux0PQsCHXzHI2MBEO8IdjCiWAC6UT52AISqvoV79gAQr8BXMMQiXM-EfWco0PKA15Ms2bsfKzVUa8skgob9I3qMRZQA7Q3R3bT8BsCF6ZQl2crZKmAyfoh3Btgb0vLzkzIeOEZ7knDRxqpRx9O2OLj1twf62mJs_4FWrZHmrfzwPTui0R0w5HO9xBI13RvCHhEgvlXwfmg_KplyrJlr7XyScxNzni7hrONL7mVlpUDEZ5BkNYVM17wxE7lksYo5STkDcSWb-14IJzCzdYEv9lAXAK0zyZjABbwRBu4ddjeVvynqGTqo6OWlsBXW5Kjd3K75KYhEO7SVCJvZlqovTYURJJ27xvHGgLaF1HS5JYA9vT9Ox4EQ6P8X1QMPI8VSNapYdtG7PpJhQMx-Vu6U63vsldsiKqFRa--Nv2kf9PwOyEFuoFMreffGhL6FxRgg2OrxSBFz3U69uQawyZy0?></g></svg>