<svg xmlns="http://www.w3.org/2000/svg" xmlns:xlink="http://www.w3.org/1999/xlink" contentStyleType="text/css" data-diagram-type="STATE" height="773px" preserveAspectRatio="none" style="width:1025px;height:773px;background:#E3F2FD;" version="1.1" viewBox="0 0 1025 773" width="1025px" zoomAndPan="magnify"><?plantuml 1.2026.3beta6?><defs/><g><rect fill="#E3F2FD" height="773" style="stroke:none;stroke-width:1;" width="1025" x="0" y="0"/><g class="title" data-source-line="19"><text fill="#000000" font-family="Verdana" font-size="22" font-weight="700" lengthAdjust="spacing" textLength="98.9248" x="338.1666" y="35.4209">BABIFIX</text><text fill="#000000" font-family="Verdana" font-size="22" font-weight="700" lengthAdjust="spacing" textLength="240.7002" x="444.7505" y="35.4209">- Diagramme d'Etat</text><text fill="#000000" font-family="Verdana" font-size="22" font-weight="700" lengthAdjust="spacing" textLength="661.1924" x="181.2125" y="61.0303">Cycle de Vie d'un Prestataire (ImplementationReelle)</text></g><g class="entity" data-qualified-name="EN_ATTENTE" id="ent0002"><rect fill="#C8E6C9" height="92.1719" rx="12.5" ry="12.5" style="stroke:#2E7D32;stroke-width:1;" width="176.0938" x="511.36" y="195.2188"/><line style="stroke:#2E7D32;stroke-width:1;" x1="511.36" x2="687.4538" y1="221.5156" y2="221.5156"/><text fill="#1B5E20" font-family="Verdana" font-size="14" lengthAdjust="spacing" textLength="89.7148" x="554.5495" y="213.2139">EN_ATTENTE</text><text fill="#1B5E20" font-family="Verdana" font-size="12" lengthAdjust="spacing" textLength="120.7207" x="516.36" y="237.6543">- Remplir formulaire</text><text fill="#1B5E20" font-family="Verdana" font-size="12" lengthAdjust="spacing" textLength="156.0938" x="516.36" y="251.623">- Upload CNI (recto/verso)</text><text fill="#1B5E20" font-family="Verdana" font-size="12" lengthAdjust="spacing" textLength="95.7891" x="516.36" y="265.5918">- Photo de profil</text><text fill="#1B5E20" font-family="Verdana" font-size="12" lengthAdjust="spacing" textLength="130.1602" x="516.36" y="279.5605">- Selection categories</text></g><g class="entity" data-qualified-name="VALIDE" id="ent0003"><rect fill="#C8E6C9" height="64.2344" rx="12.5" ry="12.5" style="stroke:#2E7D32;stroke-width:1;" width="142.1504" x="330.33" y="382.5388"/><line style="stroke:#2E7D32;stroke-width:1;" x1="330.33" x2="472.4804" y1="408.8356" y2="408.8356"/><text fill="#1B5E20" font-family="Verdana" font-size="14" lengthAdjust="spacing" textLength="50.709" x="376.0507" y="400.5339">VALIDE</text><text fill="#1B5E20" font-family="Verdana" font-size="12" lengthAdjust="spacing" textLength="118.4121" x="335.33" y="424.9743">- Notification admin</text><text fill="#1B5E20" font-family="Verdana" font-size="12" lengthAdjust="spacing" textLength="122.1504" x="335.33" y="438.943">- Badge rouge panel</text></g><g class="start_entity" data-qualified-name=".start." data-source-line="21" id="ent0002"><ellipse cx="599.4" cy="93.2188" fill="#FFFFFF" rx="10" ry="10" style="stroke:#000000;stroke-width:1;"/></g><g class="entity" data-qualified-name="REFUSE" id="ent0005"><rect fill="#C8E6C9" height="50" rx="12.5" ry="12.5" style="stroke:#2E7D32;stroke-width:1;" width="74.6055" x="818.1" y="479.9188"/><line style="stroke:#2E7D32;stroke-width:1;" x1="818.1" x2="892.7055" y1="506.2156" y2="506.2156"/><text fill="#1B5E20" font-family="Verdana" font-size="14" lengthAdjust="spacing" textLength="54.6055" x="828.1" y="497.9139">REFUSE</text></g><g class="entity" data-qualified-name="SUSPENDU" id="ent0007"><rect fill="#C8E6C9" height="50" rx="12.5" ry="12.5" style="stroke:#2E7D32;stroke-width:1;" width="96.8086" x="12" y="585.3188"/><line style="stroke:#2E7D32;stroke-width:1;" x1="12" x2="108.8086" y1="611.6156" y2="611.6156"/><text fill="#1B5E20" font-family="Verdana" font-size="14" lengthAdjust="spacing" textLength="76.8086" x="22" y="603.3139">SUSPENDU</text></g><g class="end_entity" data-qualified-name=".end." data-source-line="39" id="ent0010"><ellipse cx="401.4" cy="748.7188" fill="none" rx="11" ry="11" style="stroke:#000000;stroke-width:1;"/><ellipse cx="401.4" cy="748.7188" fill="#FFFFFF" rx="6" ry="6" style="stroke:#000000;stroke-width:1;"/></g><g class="entity" data-qualified-name="GMN2" data-source-line="44" id="ent0003"><path d="M722.6,213.6088 L722.6,237.3088 L687.89,241.3088 L722.6,245.3088 L722.6,269.0072 A0,0 0 0 0 722.6,269.0072 L918.2113,269.0072 A0,0 0 0 0 918.2113,269.0072 L918.2113,223.6088 L908.2113,213.6088 L722.6,213.6088 A0,0 0 0 0 722.6,213.6088" fill="#FFFFFF" style="stroke:#000000;stroke-width:1;"/><path d="M908.2113,213.6088 L908.2113,223.6088 L918.2113,223.6088 L908.2113,213.6088" fill="#FFFFFF" style="stroke:#000000;stroke-width:1;"/><text fill="#000000" font-family="Verdana" font-size="13" lengthAdjust="spacing" textLength="120.4595" x="728.6" y="230.6756">Dossier en attente</text><text fill="#000000" font-family="Verdana" font-size="13" lengthAdjust="spacing" textLength="129.251" x="728.6" y="245.8085">de validation admin</text><text fill="#000000" font-family="Verdana" font-size="13" lengthAdjust="spacing" textLength="174.6113" x="728.6" y="260.9413">Badge rouge dans le panel</text></g><g class="entity" data-qualified-name="GMN5" data-source-line="50" id="ent0006"><path d="M507.19,379.3888 L507.19,410.6588 L472.63,414.6588 L507.19,418.6588 L507.19,449.92 A0,0 0 0 0 507.19,449.92 L685.6246,449.92 A0,0 0 0 0 685.6246,449.92 L685.6246,389.3888 L675.6246,379.3888 L507.19,379.3888 A0,0 0 0 0 507.19,379.3888" fill="#FFFFFF" style="stroke:#000000;stroke-width:1;"/><path d="M675.6246,379.3888 L675.6246,389.3888 L685.6246,389.3888 L675.6246,379.3888" fill="#FFFFFF" style="stroke:#000000;stroke-width:1;"/><text fill="#000000" font-family="Verdana" font-size="13" lengthAdjust="spacing" textLength="157.4346" x="513.19" y="396.4556">Prestataire operationnel</text><text fill="#000000" font-family="Verdana" font-size="13" lengthAdjust="spacing" textLength="113.5532" x="513.19" y="411.5885">Peut recevoir des</text><text fill="#000000" font-family="Verdana" font-size="13" lengthAdjust="spacing" textLength="127.4038" x="513.19" y="426.7213">reservations clients</text><text fill="#000000" font-family="Verdana" font-size="13" lengthAdjust="spacing" textLength="147.7036" x="513.19" y="441.8541">Visible dans recherche</text></g><g class="entity" data-qualified-name="GMN8" data-source-line="57" id="ent0009"><path d="M143.38,582.6188 L143.38,606.3188 L109.15,610.3188 L143.38,614.3188 L143.38,638.0172 A0,0 0 0 0 143.38,638.0172 L331.4249,638.0172 A0,0 0 0 0 331.4249,638.0172 L331.4249,592.6188 L321.4249,582.6188 L143.38,582.6188 A0,0 0 0 0 143.38,582.6188" fill="#FFFFFF" style="stroke:#000000;stroke-width:1;"/><path d="M321.4249,582.6188 L321.4249,592.6188 L331.4249,592.6188 L321.4249,582.6188" fill="#FFFFFF" style="stroke:#000000;stroke-width:1;"/><text fill="#000000" font-family="Verdana" font-size="13" lengthAdjust="spacing" textLength="108.1006" x="149.38" y="599.6856">Pas visible client</text><text fill="#000000" font-family="Verdana" font-size="13" lengthAdjust="spacing" textLength="167.0449" x="149.38" y="614.8185">Ne recoit pas de missions</text><text fill="#000000" font-family="Verdana" font-size="13" lengthAdjust="spacing" textLength="114.8672" x="149.38" y="629.9513">Possible reactivat</text></g><g class="entity" data-qualified-name="GMN11" data-source-line="63" id="ent0012"><path d="M531.57,559.9188 L531.57,660.7156 A0,0 0 0 0 531.57,660.7156 L877.2463,660.7156 A0,0 0 0 0 877.2463,660.7156 L877.2463,569.9188 L867.2463,559.9188 L630.35,559.9188 L450.76,447.1988 L622.35,559.9188 L531.57,559.9188 A0,0 0 0 0 531.57,559.9188" fill="#FFFFFF" style="stroke:#000000;stroke-width:1;"/><path d="M867.2463,559.9188 L867.2463,569.9188 L877.2463,569.9188 L867.2463,559.9188" fill="#FFFFFF" style="stroke:#000000;stroke-width:1;"/><text fill="#000000" font-family="Verdana" font-size="13" lengthAdjust="spacing" textLength="183.7266" x="537.57" y="576.9856">STATES NON IMPLEMENTES:</text><text fill="#000000" font-family="Verdana" font-size="13" lengthAdjust="spacing" textLength="317.6431" x="537.57" y="592.1185">- REGISTRATION (idempotent avec EN_ATTENTE)</text><text fill="#000000" font-family="Verdana" font-size="13" lengthAdjust="spacing" textLength="324.6763" x="537.57" y="607.2513">- UNDER_REVIEW (idempotent avec EN_ATTENTE)</text><text fill="#000000" font-family="Verdana" font-size="13" lengthAdjust="spacing" textLength="274.46" x="537.57" y="622.3841">- APPROVED (VALIDE est le seul etat actif)</text><text fill="#000000" font-family="Verdana" font-size="13" lengthAdjust="spacing" textLength="164.5947" x="537.57" y="637.5169">- ACTIVE (VALIDE = actif)</text><text fill="#000000" font-family="Verdana" font-size="13" lengthAdjust="spacing" textLength="198.4277" x="537.57" y="652.6497">- REJECTED (REFUSE = refuse)</text></g><!--link *start* to EN_ATTENTE--><g class="link" data-entity-1="ent0002" data-entity-2="ent0002" data-link-type="dependency" data-source-line="21" id="lnk3"><path d="M599.4,103.3587 C599.4,121.3488 599.4,156.4288 599.4,188.9288" fill="none" id="*start*-to-EN_ATTENTE" style="stroke:#64B5F6;stroke-width:1;"/><polygon fill="#64B5F6" points="599.4,194.9288,603.4,185.9288,599.4,189.9288,595.4,185.9288,599.4,194.9288" style="stroke:#64B5F6;stroke-width:1;"/><text fill="#01579B" font-family="Verdana" font-size="13" lengthAdjust="spacing" textLength="68.104" x="600.4" y="146.2856">Inscription</text><text fill="#01579B" font-family="Verdana" font-size="13" lengthAdjust="spacing" textLength="67.0186" x="600.9427" y="161.4185">dans l'app</text></g><!--link EN_ATTENTE to VALIDE--><g class="link" data-entity-1="ent0002" data-entity-2="ent0003" data-link-type="dependency" data-source-line="28" id="lnk4"><path d="M546.86,287.7788 C512.49,317.5188 472.9974,351.7029 442.4274,378.1529" fill="none" id="EN_ATTENTE-to-VALIDE" style="stroke:#64B5F6;stroke-width:1;"/><polygon fill="#64B5F6" points="437.89,382.0788,447.3133,379.2149,441.6711,378.8072,442.0788,373.1651,437.89,382.0788" style="stroke:#64B5F6;stroke-width:1;"/><text fill="#01579B" font-family="Verdana" font-size="13" lengthAdjust="spacing" textLength="84.9253" x="513.4" y="330.4556">Admin valide</text><text fill="#01579B" font-family="Verdana" font-size="13" lengthAdjust="spacing" textLength="62.4482" x="524.6385" y="345.5885">le dossier</text></g><!--link EN_ATTENTE to REFUSE--><g class="link" data-entity-1="ent0002" data-entity-2="ent0005" data-link-type="dependency" data-source-line="30" id="lnk6"><path d="M644,287.8788 C698.58,343.6488 784.7933,431.7607 827.4933,475.3907" fill="none" id="EN_ATTENTE-to-REFUSE" style="stroke:#64B5F6;stroke-width:1;"/><polygon fill="#64B5F6" points="831.69,479.6788,828.2537,470.4488,828.1928,476.1053,822.5362,476.0444,831.69,479.6788" style="stroke:#64B5F6;stroke-width:1;"/><text fill="#01579B" font-family="Verdana" font-size="13" lengthAdjust="spacing" textLength="86.7217" x="701.4" y="330.4556">Admin refuse</text><text fill="#01579B" font-family="Verdana" font-size="13" lengthAdjust="spacing" textLength="62.4482" x="713.5367" y="345.5885">le dossier</text></g><!--link VALIDE to SUSPENDU--><g class="link" data-entity-1="ent0003" data-entity-2="ent0007" data-link-type="dependency" data-source-line="35" id="lnk8"><path d="M329.95,424.0788 C255.91,434.0988 146.58,452.9388 114.4,479.9188 C82.51,506.6688 70.2074,549.5163 64.8374,578.9363" fill="none" id="VALIDE-to-SUSPENDU" style="stroke:#64B5F6;stroke-width:1;"/><polygon fill="#64B5F6" points="63.76,584.8388,69.311,576.7033,64.6578,579.92,61.4411,575.2668,63.76,584.8388" style="stroke:#64B5F6;stroke-width:1;"/><text fill="#01579B" font-family="Verdana" font-size="13" lengthAdjust="spacing" textLength="100.3184" x="115.4" y="501.9856">Admin suspend</text><text fill="#01579B" font-family="Verdana" font-size="13" lengthAdjust="spacing" textLength="87.1914" x="121.9635" y="517.1185">le prestataire</text></g><!--link SUSPENDU to VALIDE--><g class="link" data-entity-1="ent0007" data-entity-2="ent0003" data-link-type="dependency" data-source-line="37" id="lnk9"><path d="M88.09,584.9288 C99.13,576.1288 112.31,566.6988 125.4,559.9188 C164.72,539.5588 182.02,551.9888 220.4,529.9188 C249.04,513.4588 248.23,498.7088 275.4,479.9188 C292.78,467.9188 307.3535,459.4418 326.1435,449.8718" fill="none" id="SUSPENDU-to-VALIDE" style="stroke:#64B5F6;stroke-width:1;"/><polygon fill="#64B5F6" points="331.49,447.1488,321.6549,447.669,327.0346,449.418,325.2856,454.7976,331.49,447.1488" style="stroke:#64B5F6;stroke-width:1;"/><text fill="#01579B" font-family="Verdana" font-size="13" lengthAdjust="spacing" textLength="98.6172" x="276.4" y="509.4856">Admin reactiva</text></g><!--link VALIDE to *end*--><g class="link" data-entity-1="ent0003" data-entity-2="ent0010" data-link-type="dependency" data-source-line="39" id="lnk11"><path d="M401.4,447.1988 C401.4,519.2388 401.4,687.0688 401.4,731.3288" fill="none" id="VALIDE-to-*end*" style="stroke:#64B5F6;stroke-width:1;"/><polygon fill="#64B5F6" points="401.4,737.3288,405.4,728.3288,401.4,732.3288,397.4,728.3288,401.4,737.3288" style="stroke:#64B5F6;stroke-width:1;"/><text fill="#01579B" font-family="Verdana" font-size="13" lengthAdjust="spacing" textLength="93.7549" x="402.4" y="614.8856">Compte ferme</text></g><!--link REFUSE to *end*--><g class="link" data-entity-1="ent0005" data-entity-2="ent0010" data-link-type="dependency" data-source-line="40" id="lnk12"><path d="M877.86,530.1888 C884.52,538.9088 890.95,549.2488 894.4,559.9188 C908.19,602.5488 923.2,626.3988 894.4,660.7188 C829.88,737.6188 486.3893,746.4892 418.7393,747.4992" fill="none" id="REFUSE-to-*end*" style="stroke:#64B5F6;stroke-width:1;"/><polygon fill="#64B5F6" points="412.74,747.5888,421.7987,751.454,417.7394,747.5141,421.6793,743.4548,412.74,747.5888" style="stroke:#64B5F6;stroke-width:1;"/><text fill="#01579B" font-family="Verdana" font-size="13" lengthAdjust="spacing" textLength="98.2173" x="911.4" y="614.8856">Abandon defini</text></g><!--link SUSPENDU to *end*--><g class="link" data-entity-1="ent0007" data-entity-2="ent0010" data-link-type="dependency" data-source-line="41" id="lnk13"><path d="M88.55,635.6988 C99.54,644.3988 112.57,653.7588 125.4,660.7188 C220.79,712.4788 345.7956,737.762 384.3756,744.732" fill="none" id="SUSPENDU-to-*end*" style="stroke:#64B5F6;stroke-width:1;"/><polygon fill="#64B5F6" points="390.28,745.7988,382.1345,740.2624,385.3597,744.9098,380.7122,748.135,390.28,745.7988" style="stroke:#64B5F6;stroke-width:1;"/><text fill="#01579B" font-family="Verdana" font-size="13" lengthAdjust="spacing" textLength="117.7109" x="236.4" y="703.7856">Compte desactive</text></g><?plantuml-src XLDXQzim4FtkNt5Z7ve6mj9sITT21xOZ3u_M3R6J3TPH5FkIYjcIaPICCVRVTqhTr4uxzY66tBrxx-xTwOrzm0gXBhcGdcT-25bppIjOylp7MgkDB49LAWrlsLbq6arQ26EvHVZj0GI7sF036uSNBgDqWRg9dhBpoTafHICbRHCx2KRiT4Wn9elK4RxWYg8m3C8seiqPH6VZeSjIIjlN6Iw6eHzTT35jZfFHU1GElJ_jyRdMwkTkk0OqVX-Ced6t-U79wFmYS8LMs1AXtm_y88xYh_q-360Y-9geoDpYY97edGn_vOGg41R21JSIfXgTZLneX5vSrINjGb90A3b3B4iyzhnl_Uym67m4bjpxMSQIZC4bnDBaMjGEU2SBBWsKHxokFQ-36i0CYLHeM2bTRKgdSuYOrwNY1OH933sDkLNljgYDEZx4JH-KLQxvMgkLA0_JAPPKJEr0JlwkbHPeEjsu4HR-TJnnUB-eX8GjBqM1TzAPeemHg5zKp5WqJvyhDAusvg1YJpg0H5cn4ldEF-2kefqDUB56eCkWRyqbbljQfvJEqobB9lEzbjcO6cMn4wkVz-HvU-Gh8sdavCAMTwZT1Y_faAgQ7imATOLUCzTprbzoML3N1Qw455sDJds1PYT1ZKX5_xLOFrXGgzPzq9LE7jq191-ifPj22jBoTfQt_O6EBO-Nz6GFJGzEur3fSJGgRP-lgb7lY5qbfN1ZoOqSjuhEZvgc6A5HRtSW0tafg2qNNWWZbcKZJYKFgEdtJ_KdQvm8Dx1jgX_vA9YW8r72qXJ6pLm9ye8aNO6pnQ6VzcGFPPRAMbLrfampFsCf9BS9n3VJQtRZF4ulAKFlYtsAqspcPp5bUtJDLQsStS2tcBTMShn3pvC9cztFs29cN_wFzgVJsUs2JQ3Nt1APxPPZS5C2ak_WPbWru32B5smFlMhdPkmp2pD7r9pTLVEGZlVJ_mK0?></g></svg>