<svg xmlns="http://www.w3.org/2000/svg" xmlns:xlink="http://www.w3.org/1999/xlink" contentStyleType="text/css" data-diagram-type="STATE" height="1199px" preserveAspectRatio="none" style="width:835px;height:1199px;background:#E3F2FD;" version="1.1" viewBox="0 0 835 1199" width="835px" zoomAndPan="magnify"><?plantuml 1.2026.3beta6?><defs/><g><rect fill="#E3F2FD" height="1199" style="stroke:none;stroke-width:1;" width="835" x="0" y="0"/><g class="title" data-source-line="19"><text fill="#000000" font-family="Verdana" font-size="22" font-weight="700" lengthAdjust="spacing" textLength="98.9248" x="243.0944" y="35.4209">BABIFIX</text><text fill="#000000" font-family="Verdana" font-size="22" font-weight="700" lengthAdjust="spacing" textLength="240.7002" x="349.6784" y="35.4209">- Diagramme d'Etat</text><text fill="#000000" font-family="Verdana" font-size="22" font-weight="700" lengthAdjust="spacing" textLength="656.8848" x="88.2941" y="61.0303">Cycle de Vie d'une Reservation (Nouveau Flux Devis)</text></g><g class="start_entity" data-qualified-name=".start." data-source-line="21" id="ent0002"><ellipse cx="463.6" cy="93.2188" fill="#FFFFFF" rx="10" ry="10" style="stroke:#000000;stroke-width:1;"/></g><g class="entity" data-qualified-name="DEMANDE_ENVOYEE" id="ent0003"><rect fill="#C8E6C9" height="50" rx="12.5" ry="12.5" style="stroke:#2E7D32;stroke-width:1;" width="164.5391" x="381.33" y="195.2188"/><line style="stroke:#2E7D32;stroke-width:1;" x1="381.33" x2="545.8691" y1="221.5156" y2="221.5156"/><text fill="#1B5E20" font-family="Verdana" font-size="14" lengthAdjust="spacing" textLength="144.5391" x="391.33" y="213.2139">DEMANDE_ENVOYEE</text></g><g class="entity" data-qualified-name="DEVIS_EN_COURS" id="ent0005"><rect fill="#C8E6C9" height="50" rx="12.5" ry="12.5" style="stroke:#2E7D32;stroke-width:1;" width="145.1934" x="12" y="337.2188"/><line style="stroke:#2E7D32;stroke-width:1;" x1="12" x2="157.1934" y1="363.5156" y2="363.5156"/><text fill="#1B5E20" font-family="Verdana" font-size="14" lengthAdjust="spacing" textLength="125.1934" x="22" y="355.2139">DEVIS_EN_COURS</text></g><g class="entity" data-qualified-name="ANNULEE" id="ent0007"><rect fill="#C8E6C9" height="50" rx="12.5" ry="12.5" style="stroke:#2E7D32;stroke-width:1;" width="86.2607" x="557.47" y="905.2188"/><line style="stroke:#2E7D32;stroke-width:1;" x1="557.47" x2="643.7307" y1="931.5156" y2="931.5156"/><text fill="#1B5E20" font-family="Verdana" font-size="14" lengthAdjust="spacing" textLength="66.2607" x="567.47" y="923.2139">ANNULEE</text></g><g class="entity" data-qualified-name="DEVIS_ENVOYE" id="ent0009"><rect fill="#C8E6C9" height="50" rx="12.5" ry="12.5" style="stroke:#2E7D32;stroke-width:1;" width="126.5313" x="162.33" y="479.2188"/><line style="stroke:#2E7D32;stroke-width:1;" x1="162.33" x2="288.8613" y1="505.5156" y2="505.5156"/><text fill="#1B5E20" font-family="Verdana" font-size="14" lengthAdjust="spacing" textLength="106.5313" x="172.33" y="497.2139">DEVIS_ENVOYE</text></g><g class="entity" data-qualified-name="DEVIS_ACCEPTE" id="ent0011"><rect fill="#C8E6C9" height="50" rx="12.5" ry="12.5" style="stroke:#2E7D32;stroke-width:1;" width="133.0322" x="178.08" y="621.2188"/><line style="stroke:#2E7D32;stroke-width:1;" x1="178.08" x2="311.1122" y1="647.5156" y2="647.5156"/><text fill="#1B5E20" font-family="Verdana" font-size="14" lengthAdjust="spacing" textLength="113.0322" x="188.08" y="639.2139">DEVIS_ACCEPTE</text></g><g class="entity" data-qualified-name="INTERVENTION_EN_COURS" id="ent0014"><rect fill="#C8E6C9" height="50" rx="12.5" ry="12.5" style="stroke:#2E7D32;stroke-width:1;" width="207.7695" x="287.71" y="763.2188"/><line style="stroke:#2E7D32;stroke-width:1;" x1="287.71" x2="495.4795" y1="789.5156" y2="789.5156"/><text fill="#1B5E20" font-family="Verdana" font-size="14" lengthAdjust="spacing" textLength="187.7695" x="297.71" y="781.2139">INTERVENTION_EN_COURS</text></g><g class="entity" data-qualified-name="EN_ATTENTE_CLIENT" id="ent0016"><rect fill="#C8E6C9" height="50" rx="12.5" ry="12.5" style="stroke:#2E7D32;stroke-width:1;" width="166.2891" x="97.45" y="905.2188"/><line style="stroke:#2E7D32;stroke-width:1;" x1="97.45" x2="263.7391" y1="931.5156" y2="931.5156"/><text fill="#1B5E20" font-family="Verdana" font-size="14" lengthAdjust="spacing" textLength="146.2891" x="107.45" y="923.2139">EN_ATTENTE_CLIENT</text></g><g class="entity" data-qualified-name="TERMINEE" id="ent0019"><rect fill="#C8E6C9" height="50" rx="12.5" ry="12.5" style="stroke:#2E7D32;stroke-width:1;" width="91.4971" x="258.85" y="1049.9188"/><line style="stroke:#2E7D32;stroke-width:1;" x1="258.85" x2="350.3471" y1="1076.2156" y2="1076.2156"/><text fill="#1B5E20" font-family="Verdana" font-size="14" lengthAdjust="spacing" textLength="71.4971" x="268.85" y="1067.9139">TERMINEE</text></g><g class="end_entity" data-qualified-name=".end." data-source-line="39" id="ent0022"><ellipse cx="452.6" cy="1174.6188" fill="none" rx="11" ry="11" style="stroke:#000000;stroke-width:1;"/><ellipse cx="452.6" cy="1174.6188" fill="#FFFFFF" rx="6" ry="6" style="stroke:#000000;stroke-width:1;"/></g><g class="entity" data-qualified-name="GMN2" data-source-line="43" id="ent0003"><path d="M580.72,200.0888 L580.72,216.2188 L545.99,220.2188 L580.72,224.2188 L580.72,240.3544 A0,0 0 0 0 580.72,240.3544 L820.4729,240.3544 A0,0 0 0 0 820.4729,240.3544 L820.4729,210.0888 L810.4729,200.0888 L580.72,200.0888 A0,0 0 0 0 580.72,200.0888" fill="#FFFFFF" style="stroke:#000000;stroke-width:1;"/><path d="M810.4729,200.0888 L810.4729,210.0888 L820.4729,210.0888 L810.4729,200.0888" fill="#FFFFFF" style="stroke:#000000;stroke-width:1;"/><text fill="#000000" font-family="Verdana" font-size="13" lengthAdjust="spacing" textLength="218.7529" x="586.72" y="217.1556">Demande envoyee au prestataire</text><text fill="#000000" font-family="Verdana" font-size="13" lengthAdjust="spacing" textLength="126.9214" x="586.72" y="232.2885">En attente de devis</text></g><g class="entity" data-qualified-name="GMN5" data-source-line="48" id="ent0006"><path d="M191.83,342.0888 L191.83,358.2188 L157.32,362.2188 L191.83,366.2188 L191.83,382.3544 A0,0 0 0 0 191.83,382.3544 L393.3573,382.3544 A0,0 0 0 0 393.3573,382.3544 L393.3573,352.0888 L383.3573,342.0888 L191.83,342.0888 A0,0 0 0 0 191.83,342.0888" fill="#FFFFFF" style="stroke:#000000;stroke-width:1;"/><path d="M383.3573,342.0888 L383.3573,352.0888 L393.3573,352.0888 L383.3573,342.0888" fill="#FFFFFF" style="stroke:#000000;stroke-width:1;"/><text fill="#000000" font-family="Verdana" font-size="13" lengthAdjust="spacing" textLength="180.5273" x="197.83" y="359.1556">Prestataire prepare le devis</text><text fill="#000000" font-family="Verdana" font-size="13" lengthAdjust="spacing" textLength="138.0044" x="197.83" y="374.2885">Analyse du probleme</text></g><g class="entity" data-qualified-name="GMN8" data-source-line="53" id="ent0009"><path d="M323.7,484.0888 L323.7,500.2188 L289.17,504.2188 L323.7,508.2188 L323.7,524.3544 A0,0 0 0 0 323.7,524.3544 L547.4949,524.3544 A0,0 0 0 0 547.4949,524.3544 L547.4949,494.0888 L537.4949,484.0888 L323.7,484.0888 A0,0 0 0 0 323.7,484.0888" fill="#FFFFFF" style="stroke:#000000;stroke-width:1;"/><path d="M537.4949,484.0888 L537.4949,494.0888 L547.4949,494.0888 L537.4949,484.0888" fill="#FFFFFF" style="stroke:#000000;stroke-width:1;"/><text fill="#000000" font-family="Verdana" font-size="13" lengthAdjust="spacing" textLength="150.2236" x="329.7" y="501.1556">Devis recu par le client</text><text fill="#000000" font-family="Verdana" font-size="13" lengthAdjust="spacing" textLength="202.7949" x="329.7" y="516.2885">Montant, date proposee, lignes</text></g><g class="entity" data-qualified-name="GMN11" data-source-line="58" id="ent0012"><path d="M346.55,626.0888 L346.55,642.2188 L311.45,646.2188 L346.55,650.2188 L346.55,666.3544 A0,0 0 0 0 346.55,666.3544 L540.6506,666.3544 A0,0 0 0 0 540.6506,666.3544 L540.6506,636.0888 L530.6506,626.0888 L346.55,626.0888 A0,0 0 0 0 346.55,626.0888" fill="#FFFFFF" style="stroke:#000000;stroke-width:1;"/><path d="M530.6506,626.0888 L530.6506,636.0888 L540.6506,636.0888 L530.6506,626.0888" fill="#FFFFFF" style="stroke:#000000;stroke-width:1;"/><text fill="#000000" font-family="Verdana" font-size="13" lengthAdjust="spacing" textLength="173.1006" x="352.55" y="643.1556">Devis accepte par le client</text><text fill="#000000" font-family="Verdana" font-size="13" lengthAdjust="spacing" textLength="147.3735" x="352.55" y="658.2885">Reservation confirmee</text></g><g class="entity" data-qualified-name="GMN14" data-source-line="63" id="ent0015"><path d="M653.44,768.0888 L653.44,784.2188 L495.8,788.2188 L653.44,792.2188 L653.44,808.3544 A0,0 0 0 0 653.44,808.3544 L813.7457,808.3544 A0,0 0 0 0 813.7457,808.3544 L813.7457,778.0888 L803.7457,768.0888 L653.44,768.0888 A0,0 0 0 0 653.44,768.0888" fill="#FFFFFF" style="stroke:#000000;stroke-width:1;"/><path d="M803.7457,768.0888 L803.7457,778.0888 L813.7457,778.0888 L803.7457,768.0888" fill="#FFFFFF" style="stroke:#000000;stroke-width:1;"/><text fill="#000000" font-family="Verdana" font-size="13" lengthAdjust="spacing" textLength="139.3057" x="659.44" y="785.1556">Intervention en cours</text><text fill="#000000" font-family="Verdana" font-size="13" lengthAdjust="spacing" textLength="123.1382" x="659.44" y="800.2885">Prestataire sur site</text></g><g class="entity" data-qualified-name="GMN17" data-source-line="68" id="ent0018"><path d="M298.61,910.0888 L298.61,926.2188 L264.15,930.2188 L298.61,934.2188 L298.61,950.3544 A0,0 0 0 0 298.61,950.3544 L522.5827,950.3544 A0,0 0 0 0 522.5827,950.3544 L522.5827,920.0888 L512.5827,910.0888 L298.61,910.0888 A0,0 0 0 0 298.61,910.0888" fill="#FFFFFF" style="stroke:#000000;stroke-width:1;"/><path d="M512.5827,910.0888 L512.5827,920.0888 L522.5827,920.0888 L512.5827,910.0888" fill="#FFFFFF" style="stroke:#000000;stroke-width:1;"/><text fill="#000000" font-family="Verdana" font-size="13" lengthAdjust="spacing" textLength="113.2041" x="304.61" y="927.1556">Pre-attente client</text><text fill="#000000" font-family="Verdana" font-size="13" lengthAdjust="spacing" textLength="202.9727" x="304.61" y="942.2885">Validation reception en attente</text></g><g class="entity" data-qualified-name="GMN20" data-source-line="73" id="ent0021"><path d="M385.7,1047.2188 L385.7,1070.9187 L350.79,1074.9187 L385.7,1078.9187 L385.7,1102.6172 A0,0 0 0 0 385.7,1102.6172 L547.491,1102.6172 A0,0 0 0 0 547.491,1102.6172 L547.491,1057.2188 L537.491,1047.2188 L385.7,1047.2188 A0,0 0 0 0 385.7,1047.2188" fill="#FFFFFF" style="stroke:#000000;stroke-width:1;"/><path d="M537.491,1047.2188 L537.491,1057.2188 L547.491,1057.2188 L537.491,1047.2188" fill="#FFFFFF" style="stroke:#000000;stroke-width:1;"/><text fill="#000000" font-family="Verdana" font-size="13" lengthAdjust="spacing" textLength="140.791" x="391.7" y="1064.2856">Reservation terminee</text><text fill="#000000" font-family="Verdana" font-size="13" lengthAdjust="spacing" textLength="111.1284" x="391.7" y="1079.4185">Paiement effectif</text><text fill="#000000" font-family="Verdana" font-size="13" lengthAdjust="spacing" textLength="118.5552" x="391.7" y="1094.5513">Note/avis possible</text></g><!--link *start* to DEMANDE_ENVOYEE--><g class="link" data-entity-1="ent0002" data-entity-2="ent0003" data-link-type="dependency" data-source-line="21" id="lnk4"><path d="M463.6,103.6188 C463.6,122.8088 463.6,161.0388 463.6,188.8888" fill="none" id="*start*-to-DEMANDE_ENVOYEE" style="stroke:#64B5F6;stroke-width:1;"/><polygon fill="#64B5F6" points="463.6,194.8888,467.6,185.8888,463.6,189.8888,459.6,185.8888,463.6,194.8888" style="stroke:#64B5F6;stroke-width:1;"/><text fill="#01579B" font-family="Verdana" font-size="13" lengthAdjust="spacing" textLength="70.2559" x="468.0119" y="146.2856">Client cree</text><text fill="#01579B" font-family="Verdana" font-size="13" lengthAdjust="spacing" textLength="77.0796" x="464.6" y="161.4185">la demande</text></g><!--link DEMANDE_ENVOYEE to DEVIS_EN_COURS--><g class="link" data-entity-1="ent0003" data-entity-2="ent0005" data-link-type="dependency" data-source-line="23" id="lnk6"><path d="M397.58,245.6088 C328.34,271.1888 225.7584,309.0802 156.4384,334.6802" fill="none" id="DEMANDE_ENVOYEE-to-DEVIS_EN_COURS" style="stroke:#64B5F6;stroke-width:1;"/><polygon fill="#64B5F6" points="150.81,336.7588,160.6384,337.3932,155.5004,335.0266,157.8669,329.8886,150.81,336.7588" style="stroke:#64B5F6;stroke-width:1;"/><text fill="#01579B" font-family="Verdana" font-size="13" lengthAdjust="spacing" textLength="71.0366" x="318.8898" y="288.2856">Prestataire</text><text fill="#01579B" font-family="Verdana" font-size="13" lengthAdjust="spacing" textLength="89.6162" x="309.6" y="303.4185">prepare devis</text></g><!--link DEMANDE_ENVOYEE to ANNULEE--><g class="link" data-entity-1="ent0003" data-entity-2="ent0007" data-link-type="dependency" data-source-line="24" id="lnk8"><path d="M512.28,245.7088 C551.66,269.3488 600.6,309.1888 600.6,361.2188 C600.6,361.2188 600.6,361.2188 600.6,789.2188 C600.6,829.8088 600.6,871.0188 600.6,898.9388" fill="none" id="DEMANDE_ENVOYEE-to-ANNULEE" style="stroke:#64B5F6;stroke-width:1;"/><polygon fill="#64B5F6" points="600.6,904.9388,604.6,895.9388,600.6,899.9388,596.6,895.9388,600.6,904.9388" style="stroke:#64B5F6;stroke-width:1;"/><text fill="#01579B" font-family="Verdana" font-size="13" lengthAdjust="spacing" textLength="86.0615" x="601.6" y="572.2856">Client annule</text><text fill="#01579B" font-family="Verdana" font-size="13" lengthAdjust="spacing" textLength="70.9858" x="609.1378" y="587.4185">ou timeout</text></g><!--link DEVIS_EN_COURS to DEVIS_ENVOYE--><g class="link" data-entity-1="ent0005" data-entity-2="ent0009" data-link-type="dependency" data-source-line="26" id="lnk10"><path d="M109.16,387.6088 C135.04,413.2988 171.2817,449.2918 197.0617,474.8818" fill="none" id="DEVIS_EN_COURS-to-DEVIS_ENVOYE" style="stroke:#64B5F6;stroke-width:1;"/><polygon fill="#64B5F6" points="201.32,479.1088,197.7505,469.9295,197.7714,475.5863,192.1146,475.6072,201.32,479.1088" style="stroke:#64B5F6;stroke-width:1;"/><text fill="#01579B" font-family="Verdana" font-size="13" lengthAdjust="spacing" textLength="71.0366" x="178.8104" y="430.2856">Prestataire</text><text fill="#01579B" font-family="Verdana" font-size="13" lengthAdjust="spacing" textLength="89.4575" x="169.6" y="445.4185">evoie le devis</text></g><!--link DEVIS_ENVOYE to DEVIS_ACCEPTE--><g class="link" data-entity-1="ent0009" data-entity-2="ent0011" data-link-type="dependency" data-source-line="28" id="lnk12"><path d="M228.91,529.6088 C232.39,555.2988 237.0415,589.5735 240.5215,615.1635" fill="none" id="DEVIS_ENVOYE-to-DEVIS_ACCEPTE" style="stroke:#64B5F6;stroke-width:1;"/><polygon fill="#64B5F6" points="241.33,621.1088,244.0808,611.6518,240.6562,616.1544,236.1537,612.7298,241.33,621.1088" style="stroke:#64B5F6;stroke-width:1;"/><text fill="#01579B" font-family="Verdana" font-size="13" lengthAdjust="spacing" textLength="93.374" x="238.6" y="572.2856">Client accepte</text><text fill="#01579B" font-family="Verdana" font-size="13" lengthAdjust="spacing" textLength="50.0703" x="260.2519" y="587.4185">le devis</text></g><!--link DEVIS_ENVOYE to DEMANDE_ENVOYEE--><g class="link" data-entity-1="ent0009" data-entity-2="ent0003" data-link-type="dependency" data-source-line="29" id="lnk13"><path d="M285.96,478.7688 C326.53,459.4688 378.29,428.8488 410.6,387.2188 C443.79,344.4388 455.6865,286.276 460.3165,251.576" fill="none" id="DEVIS_ENVOYE-to-DEMANDE_ENVOYEE" style="stroke:#64B5F6;stroke-width:1;"/><polygon fill="#64B5F6" points="461.11,245.6288,455.9548,254.0207,460.4487,250.5848,463.8845,255.0787,461.11,245.6288" style="stroke:#64B5F6;stroke-width:1;"/><text fill="#01579B" font-family="Verdana" font-size="13" lengthAdjust="spacing" textLength="82.6973" x="438.6" y="359.2856">Client refuse</text><text fill="#01579B" font-family="Verdana" font-size="13" lengthAdjust="spacing" textLength="50.0703" x="454.9135" y="374.4185">le devis</text></g><!--link DEVIS_ACCEPTE to INTERVENTION_EN_COURS--><g class="link" data-entity-1="ent0011" data-entity-2="ent0014" data-link-type="dependency" data-source-line="31" id="lnk15"><path d="M270.2,671.6088 C297.18,697.2988 335.0651,733.3809 361.9351,758.9709" fill="none" id="DEVIS_ACCEPTE-to-INTERVENTION_EN_COURS" style="stroke:#64B5F6;stroke-width:1;"/><polygon fill="#64B5F6" points="366.28,763.1088,362.5213,754.0053,362.6593,759.6605,357.0041,759.7985,366.28,763.1088" style="stroke:#64B5F6;stroke-width:1;"/><text fill="#01579B" font-family="Verdana" font-size="13" lengthAdjust="spacing" textLength="71.0366" x="366.4933" y="714.2856">Prestataire</text><text fill="#01579B" font-family="Verdana" font-size="13" lengthAdjust="spacing" textLength="138.8232" x="332.6" y="729.4185">demarre intervention</text></g><!--link INTERVENTION_EN_COURS to EN_ATTENTE_CLIENT--><g class="link" data-entity-1="ent0014" data-entity-2="ent0016" data-link-type="dependency" data-source-line="33" id="lnk17"><path d="M341.02,813.6988 C324.28,822.3988 305.8,832.6688 289.6,843.2188 C260.72,862.0388 234.6752,882.7989 213.2652,900.8689" fill="none" id="INTERVENTION_EN_COURS-to-EN_ATTENTE_CLIENT" style="stroke:#64B5F6;stroke-width:1;"/><polygon fill="#64B5F6" points="208.68,904.7388,218.1377,901.9907,212.501,901.5138,212.9779,895.8771,208.68,904.7388" style="stroke:#64B5F6;stroke-width:1;"/><text fill="#01579B" font-family="Verdana" font-size="13" lengthAdjust="spacing" textLength="123.4873" x="293.5644" y="856.2856">Prestataire declare</text><text fill="#01579B" font-family="Verdana" font-size="13" lengthAdjust="spacing" textLength="129.416" x="290.6" y="871.4185">prestation terminee</text></g><!--link INTERVENTION_EN_COURS to ANNULEE--><g class="link" data-entity-1="ent0014" data-entity-2="ent0007" data-link-type="dependency" data-source-line="34" id="lnk18"><path d="M406.09,813.7188 C418.47,832.7688 437.84,858.6688 460.6,875.2188 C490.97,897.3088 504.57,891.6788 539.6,905.2188 C545.22,907.3988 545.5409,907.5167 551.3809,909.7967" fill="none" id="INTERVENTION_EN_COURS-to-ANNULEE" style="stroke:#64B5F6;stroke-width:1;"/><polygon fill="#64B5F6" points="556.97,911.9788,550.041,904.9796,552.3124,910.1604,547.1316,912.4318,556.97,911.9788" style="stroke:#64B5F6;stroke-width:1;"/><text fill="#01579B" font-family="Verdana" font-size="13" lengthAdjust="spacing" textLength="70.0908" x="482.7313" y="856.2856">Annulation</text><text fill="#01579B" font-family="Verdana" font-size="13" lengthAdjust="spacing" textLength="112.3535" x="461.6" y="871.4185">avant finalisation</text></g><!--link EN_ATTENTE_CLIENT to TERMINEE--><g class="link" data-entity-1="ent0016" data-entity-2="ent0019" data-link-type="dependency" data-source-line="36" id="lnk20"><path d="M169.37,955.4488 C162.65,973.8688 157.52,999.0388 169.6,1017.2188 C189.23,1046.7588 221.6906,1059.6474 252.5006,1066.4374" fill="none" id="EN_ATTENTE_CLIENT-to-TERMINEE" style="stroke:#64B5F6;stroke-width:1;"/><polygon fill="#64B5F6" points="258.36,1067.7288,250.4318,1061.8855,253.4772,1066.6527,248.71,1069.698,258.36,1067.7288" style="stroke:#64B5F6;stroke-width:1;"/><text fill="#01579B" font-family="Verdana" font-size="13" lengthAdjust="spacing" textLength="99.3027" x="170.6" y="998.2856">Client confirme</text><text fill="#01579B" font-family="Verdana" font-size="13" lengthAdjust="spacing" textLength="61.6421" x="189.4303" y="1013.4185">reception</text></g><!--link EN_ATTENTE_CLIENT to TERMINEE--><g class="link" data-entity-1="ent0016" data-entity-2="ent0019" data-link-type="dependency" data-source-line="37" id="lnk21"><path d="M238.26,955.6188 C251.63,963.4688 264.8,973.2988 274.6,985.2188 C289.87,1003.8088 296.3692,1024.6582 300.0992,1043.9182" fill="none" id="EN_ATTENTE_CLIENT-to-TERMINEE-1" style="stroke:#64B5F6;stroke-width:1;"/><polygon fill="#64B5F6" points="301.24,1049.8088,303.4558,1040.2124,300.2893,1044.9,295.6018,1041.7335,301.24,1049.8088" style="stroke:#64B5F6;stroke-width:1;"/><text fill="#01579B" font-family="Verdana" font-size="13" lengthAdjust="spacing" textLength="117.2793" x="293.6" y="998.2856">Auto-confirmation</text><text fill="#01579B" font-family="Verdana" font-size="13" lengthAdjust="spacing" textLength="70.4971" x="316.9911" y="1013.4185">(delai 48h)</text></g><!--link TERMINEE to *end*--><g class="link" data-entity-1="ent0019" data-entity-2="ent0022" data-link-type="dependency" data-source-line="39" id="lnk23"><path d="M341.56,1100.3188 C375.64,1122.8188 418.8226,1151.3234 438.5926,1164.3734" fill="none" id="TERMINEE-to-*end*" style="stroke:#64B5F6;stroke-width:1;"/><polygon fill="#64B5F6" points="443.6,1167.6788,438.2924,1159.3824,439.4271,1164.9243,433.8852,1166.059,443.6,1167.6788" style="stroke:#64B5F6;stroke-width:1;"/></g><!--link ANNULEE to *end*--><g class="link" data-entity-1="ent0007" data-entity-2="ent0022" data-link-type="dependency" data-source-line="40" id="lnk24"><path d="M601.21,955.6788 C600.92,991.1788 595.79,1057.6488 564.6,1102.6188 C538.49,1140.2688 490.945,1160.2834 468.555,1168.2234" fill="none" id="ANNULEE-to-*end*" style="stroke:#64B5F6;stroke-width:1;"/><polygon fill="#64B5F6" points="462.9,1170.2288,472.7193,1170.9907,467.6125,1168.5576,470.0455,1163.4507,462.9,1170.2288" style="stroke:#64B5F6;stroke-width:1;"/></g><?plantuml-src XLHTJzim57tFhxZJ7iOggfL22zt3f2Hrf4WG49HgqvYGIMwAHMfNZbE6flttNRT9clHZF4MvlkUS-t7i3-OPvmYBZ0lfEFcBa0kk-HoUUFmoqwgGYQyofU4ZEmtwmRYHaHjk4Fuu0Dvshd_1Xlx8dYYTe2wZVNO-FkrJD53IbB4JRy3wFOencTnPmXsk8F1zpszcD3czu7JOiwTqfCr-Xb7FTuDHEwV9SJ8O3loUyxVPFjTQlQwQAvE6PzuW6BQBxvqCpaUU1HfXCeHEntEzC0Y_TphGXR7WCwAYuIQV68a-IFyjfgm4OIfii908jvYZNd8Zb8IZI1LBv0K4MV4RnhWK-MV7-Tdv1TtkDnYpApSQiqSMJQz_C0PVmSy4IWEnHdoG6IVYEPS9EivswXe-3UyeykXVtz_U4Vf6ezqW5vhG2utKjwsDHFVYtIYwlspASYcBZA2g02Fcg0fZXLiYJLtBjAsAIqM3o2fPfvMx0Rk-psucJUauneMnJMygta4Uc9R6jCYRKASjOi5XD66tKnPDmkleuCZij3MDJ4X36oHgMg7Zx8TQKlfn9nCwOO_-PKZVDY5L4sUyt8KDMaSGyrn8nF_GRlRYseMiS0-IBpdrcWh9Cv7pTMcx1LWyyLw5KSjFIgP2pwaIZNRE5lmkrYsCwfR8ieQZ1EbHWREBPt9ndMfnP6cdghlwTwIYrqIBsRC1bMxlZ-xTUErkGBbKRuX0zsIn6T_gVG1k37MmkcBhvQ9Cm1BlqZUDIk3c9ghBK5i4QBOyUylftuggfuoUp7UvRU6hkec2R1SJb6jB6g_cJ4TNz9JGdeuXiIyf4IzKZdWCcPX9VA_uqh2rGdafTaIQBqorsiF5xpKQiOGDbzCAYAdG-TRSya93BinXyXqNhGcwrThgcgTassHTSkr1grec7XIeNBRLTdsDI8uBsXsv7DCKOoDIYaN4yONR6TBySq7RhGN-0G00?></g></svg>