<svg width="24" height="24" viewBox="0 0 24 24" fill="none" xmlns="http://www.w3.org/2000/svg">
  <path d="M12 11v2.4h4.1c-.2 1-1.2 3-4.1 3-2.5 0-4.5-2.1-4.5-4.6s2-4.6 4.5-4.6c1.4 0 2.4.6 3 1.1l2-2C16.4 4.9 14.4 4 12 4 7.6 4 4 7.6 4 12s3.6 8 8 8c4.6 0 7.7-3.2 7.7-7.8 0-.5 0-1-.1-1.4H12z" fill="#E8F7FC"/>
  <path d="M6.3 14.1l1.5 1.1c.4-1 1.3-1.7 2.2-2.1-1-.3-1.8-1-2.3-1.8l-1.4 1.8z" fill="#4CC9F0" opacity=".85"/>
  <path d="M12 20c2.4 0 4.4-.8 5.9-2.2l-1.7-1.4c-.8.6-1.9 1-4.2 1-3.2 0-5.9-2.1-6.9-5l-1.8 1.4C5.4 17.8 8.4 20 12 20z" fill="#7DD9F5" opacity=".9"/>
</svg>
